<svg width="48" height="48" viewBox="0 0 48 48" fill="none" xmlns="http://www.w3.org/2000/svg">
<path d="M41.9989 9.27422V22.3709C42.0104 22.8073 41.934 23.2415 41.7744 23.6477C41.6148 24.0539 41.3752 24.424 41.0698 24.7358C40.7644 25.0476 40.3994 25.2949 39.9965 25.4628C39.5937 25.6308 39.1612 25.7161 38.7247 25.7137C38.7247 25.7137 35.1875 27.0557 33.822 25.7137C32.4326 24.3482 33.822 20.7253 33.822 20.7253H14.1769V25.7137H9.27422C8.84506 25.7159 8.41969 25.6334 8.02255 25.4707C7.6254 25.308 7.26432 25.0685 6.96006 24.7658C6.6558 24.4631 6.41435 24.1033 6.2496 23.707C6.08485 23.3108 6.00004 22.8858 6.00005 22.4567V9.27422C5.99777 8.84362 6.08091 8.41683 6.24465 8.01857C6.40839 7.6203 6.64947 7.25845 6.95396 6.95396C7.25845 6.64947 7.6203 6.40839 8.01857 6.24465C8.41683 6.08091 8.84362 5.99777 9.27422 6.00005H38.7247C39.1553 5.99777 39.5821 6.08091 39.9804 6.24465C40.3786 6.40839 40.7405 6.64947 41.045 6.95396C41.3494 7.25845 41.5905 7.6203 41.7543 8.01857C41.918 8.41683 42.0011 8.84362 41.9989 9.27422Z" stroke="#FF9C00" stroke-width="2.6" stroke-miterlimit="10"/>
<path d="M17.4509 25.6277H14.1768" stroke="#FF9C00" stroke-width="2.6" stroke-miterlimit="10"/>
<path d="M33.822 25.6277H30.5479" stroke="#FF9C00" stroke-width="2.6" stroke-miterlimit="10"/>
<path d="M20.7251 25.7136V33.9076C20.7251 34.776 20.3802 35.6088 19.7661 36.2228C19.1521 36.8369 18.3193 37.1818 17.4509 37.1818C16.584 37.1773 15.7538 36.8309 15.1407 36.2179C14.5277 35.6048 14.1813 34.7746 14.1768 33.9076" stroke="#FF9C00" stroke-width="2.6" stroke-miterlimit="10"/>
<path d="M27.2735 25.7136V38.8103C27.2712 39.2409 27.3543 39.6677 27.5181 40.066C27.6818 40.4643 27.9229 40.8261 28.2274 41.1306C28.5319 41.4351 28.8937 41.6762 29.292 41.8399C29.6903 42.0037 30.1171 42.0868 30.5477 42.0845C31.416 42.0845 32.2488 41.7396 32.8629 41.1255C33.4769 40.5115 33.8218 39.6787 33.8218 38.8103" stroke="#FF9C00" stroke-width="2.6" stroke-miterlimit="10"/>
<path d="M33.8223 12.5483H37.0964" stroke="#FF9C00" stroke-width="2.6" stroke-miterlimit="10"/>
<path d="M10.9023 12.5483H30.5474" stroke="#FF9C00" stroke-width="2.6" stroke-miterlimit="10"/>
</svg>
