<svg width="48" height="48" viewBox="0 0 48 48" fill="none" xmlns="http://www.w3.org/2000/svg">
<path fill-rule="evenodd" clip-rule="evenodd" d="M28.2525 7.29992C28.9706 7.81493 29.1352 8.81451 28.6202 9.53259L7.71642 38.6801H43C43.8835 38.6801 44.6 39.3966 44.6 40.2801C44.6 41.1639 43.8835 41.8801 43 41.8801H4.6C4.00013 41.8801 3.45062 41.5447 3.17664 41.011C2.90265 40.4772 2.9502 39.8353 3.29981 39.3476L26.0198 7.66766C26.5348 6.94958 27.5344 6.78494 28.2525 7.29992ZM35.32 21.0801C35.32 20.1965 36.0362 19.4801 36.92 19.4801C37.8035 19.4801 38.52 20.1965 38.52 21.0801C38.52 21.9638 37.8035 22.6801 36.92 22.6801C36.0362 22.6801 35.32 21.9638 35.32 21.0801ZM33.08 13.0801C32.1965 13.0801 31.4801 13.7965 31.4801 14.6801C31.4801 15.5638 32.1965 16.2801 33.08 16.2801C33.9638 16.2801 34.68 15.5638 34.68 14.6801C34.68 13.7965 33.9638 13.0801 33.08 13.0801ZM38.52 27.4801C38.52 26.5965 39.2362 25.8801 40.12 25.8801C41.0035 25.8801 41.72 26.5965 41.72 27.4801C41.72 28.3638 41.0035 29.0801 40.12 29.0801C39.2362 29.0801 38.52 28.3638 38.52 27.4801ZM42.68 32.2801C41.7965 32.2801 41.08 32.9966 41.08 33.8801C41.08 34.7636 41.7965 35.4801 42.68 35.4801C43.5638 35.4801 44.28 34.7636 44.28 33.8801C44.28 32.9966 43.5638 32.2801 42.68 32.2801Z" fill="#FF9C00"/>
</svg>
