<svg width="48" height="48" viewBox="0 0 48 48" fill="none" xmlns="http://www.w3.org/2000/svg">
<path d="M19.4349 23.0869C17.1693 23.0869 15.3262 24.9301 15.3262 27.1956C15.3262 29.4612 17.1693 31.3043 19.4349 31.3043C21.7004 31.3043 23.5436 29.4612 23.5436 27.1956C23.5436 24.9301 21.7004 23.0869 19.4349 23.0869ZM19.4349 28.5651C18.6797 28.5651 18.0653 27.9507 18.0653 27.1955C18.0653 26.4404 18.6797 25.8259 19.4349 25.8259C20.19 25.8259 20.8045 26.4404 20.8045 27.1955C20.8045 27.9507 20.19 28.5651 19.4349 28.5651Z" fill="#FF9C00"/>
<path d="M19.435 34.0437C18.6787 34.0437 18.0654 34.6569 18.0654 35.4133V38.1524C18.0654 38.9087 18.6786 39.522 19.435 39.522C20.1914 39.522 20.8046 38.9088 20.8046 38.1524V35.4132C20.8046 34.6569 20.1914 34.0437 19.435 34.0437Z" fill="#FF9C00"/>
<path d="M39.4076 36.7826H35.8696V11.9022C35.8696 6.99345 31.8762 3 26.9674 3C22.0586 3 18.0652 6.99345 18.0652 11.9022V12.3661C16.4711 12.9315 15.3261 14.4542 15.3261 16.2412C15.3261 16.2412 15.3275 17.1639 15.3302 18.4073C11.3166 20.0349 8.47829 23.9746 8.47829 28.5653V31.3044H7.1087C4.84316 31.3044 3 33.1476 3 35.4131V40.8914C3 43.1568 4.84316 45 7.1087 45C7.23839 45 42.3837 45 42.7174 45C43.4737 45 44.087 44.3868 44.087 43.6304V41.462C44.087 38.8818 41.9879 36.7826 39.4076 36.7826ZM8.47829 42.2609H7.1087C6.35352 42.2609 5.73911 41.6465 5.73911 40.8913V35.413C5.73911 34.6578 6.35352 34.0434 7.1087 34.0434H8.47829V42.2609ZM20.8044 11.9022C20.8044 8.50389 23.5691 5.73919 26.9674 5.73919C30.3657 5.73919 33.1304 8.50389 33.1304 11.9022V31.539C32.7019 31.3871 32.2409 31.3043 31.7608 31.3043H30.3912V28.5652C30.3912 23.9745 27.5529 20.0349 23.5393 18.4071C23.542 17.1638 23.5434 16.2407 23.5434 16.2391C23.5434 14.4536 22.3983 12.9314 20.8043 12.366L20.8044 11.9022ZM33.1305 35.413V36.7826H30.3914V34.0435H31.761C32.5161 34.0435 33.1305 34.6578 33.1305 35.413ZM19.4348 14.8696C20.19 14.8696 20.8044 15.484 20.8044 16.2371C20.8044 16.2373 20.8035 16.8251 20.8018 17.6939C20.3538 17.6379 19.8977 17.6088 19.4349 17.6088C18.9721 17.6088 18.5159 17.6379 18.068 17.6939C18.0663 16.8262 18.0654 16.2392 18.0654 16.2392C18.0652 15.4839 18.6796 14.8696 19.4348 14.8696ZM24.9131 41.462V42.2609H11.2174V32.6739V28.5652C11.2174 24.0341 14.9037 20.3478 19.4348 20.3478C23.9659 20.3478 27.6522 24.0341 27.6522 28.5652V37.2056C26.0379 37.9443 24.9131 39.5738 24.9131 41.462ZM41.3478 42.2609H27.6522V41.462C27.6522 40.3921 28.5225 39.5218 29.5924 39.5218H39.4076C40.4775 39.5218 41.3478 40.3922 41.3478 41.462V42.2609Z" fill="#FF9C00"/>
</svg>
