<svg width="325" height="206" viewBox="0 0 325 206" fill="none" xmlns="http://www.w3.org/2000/svg">
<path d="M209.133 59.3978L212.458 45.1446L215.566 44.5295L221.316 56.9864L218.703 57.5036L217.507 54.8206L212.421 55.8271L211.728 58.884L209.133 59.3978ZM212.915 53.5397L216.623 52.8058L213.829 46.5885L214.5 46.4557L212.915 53.5397Z" fill="#FF9C00"/>
<path d="M240.451 76.3224L238.655 70.8351L234.801 75.1334L240.451 76.3224ZM221.539 59.3637L221.205 59.736L236.766 73.6903L237.1 73.3181L237.434 72.9458L221.873 58.9915L221.539 59.3637Z" fill="#FF9C00"/>
<path d="M190.764 32.5065L196.414 33.6954L192.56 37.9938L190.764 32.5065ZM209.676 49.4651L209.342 49.8374L193.781 35.883L194.115 35.5108L194.448 35.1385L210.01 49.0929L209.676 49.4651Z" fill="#FF9C00"/>
<path d="M99.2163 126.539C98.257 126.574 97.3402 126.434 96.4662 126.121C95.6041 125.807 94.8148 125.353 94.0981 124.76C93.3935 124.167 92.8026 123.462 92.3254 122.646C91.8482 121.831 91.5258 120.932 91.3581 119.95C91.1905 118.968 91.1978 118.057 91.3802 117.218C91.5726 116.366 91.917 115.627 92.4136 115.002C92.9202 114.365 93.5529 113.866 94.3118 113.506C95.0687 113.133 95.9268 112.929 96.8862 112.895C97.8456 112.86 98.7303 112.989 99.5403 113.281C100.362 113.573 101.083 113.975 101.701 114.488C102.318 114.99 102.794 115.55 103.128 116.168L101.107 117.259C100.742 116.606 100.223 116.077 99.5506 115.673C98.8763 115.257 98.1134 115.064 97.2619 115.095C96.4225 115.125 95.7123 115.347 95.1314 115.761C94.5625 116.174 94.1567 116.731 93.9141 117.43C93.6835 118.128 93.647 118.939 93.8045 119.862C93.9621 120.784 94.2743 121.588 94.7413 122.273C95.2182 122.947 95.8078 123.467 96.5101 123.834C97.2243 124.201 98.0012 124.369 98.8406 124.339C99.692 124.308 100.381 124.069 100.908 123.622C101.433 123.162 101.765 122.597 101.903 121.925L104.271 122.857C104.15 123.493 103.871 124.086 103.434 124.637C102.996 125.177 102.42 125.62 101.707 125.967C101.006 126.314 100.176 126.505 99.2163 126.539Z" fill="#FF9C00"/>
<path d="M98.4225 163.219L95.4839 158.237L101.257 158.204L98.4225 163.219ZM98.0547 127.787L98.5547 127.784L98.8758 158.718L98.3758 158.721L97.8758 158.723L97.5547 127.79L98.0547 127.787Z" fill="#FF9C00"/>
<path d="M96.616 74.2682L93.9028 79.2826L99.6762 79.2499L96.616 74.2682ZM97.8457 109.696L98.3457 109.693L97.2721 78.7636L96.7721 78.7665L96.2721 78.7693L97.3457 109.698L97.8457 109.696Z" fill="#FF9C00"/>
<path d="M161.108 186.61L161.133 173.2L166.785 173.233C167.673 173.238 168.428 173.399 169.052 173.714C169.687 174.018 170.172 174.453 170.507 175.019C170.854 175.573 171.027 176.246 171.026 177.038C171.025 177.65 170.856 178.225 170.519 178.763C170.194 179.289 169.671 179.724 168.95 180.068L168.952 178.934C169.612 179.19 170.133 179.505 170.517 179.879C170.9 180.253 171.169 180.669 171.324 181.126C171.479 181.583 171.557 182.063 171.556 182.567C171.553 183.851 171.125 184.857 170.272 185.584C169.431 186.299 168.26 186.652 166.76 186.643L161.108 186.61ZM163.56 184.464L167.016 184.485C167.652 184.488 168.156 184.317 168.529 183.971C168.914 183.614 169.107 183.141 169.108 182.553C169.109 181.965 168.918 181.49 168.534 181.127C168.163 180.765 167.659 180.582 167.023 180.579L163.567 180.558L163.56 184.464ZM163.571 178.416L166.901 178.436C167.405 178.439 167.807 178.297 168.108 178.011C168.409 177.713 168.559 177.33 168.56 176.862C168.561 176.394 168.412 176.021 168.112 175.743C167.813 175.465 167.411 175.325 166.907 175.322L163.577 175.302L163.571 178.416Z" fill="#FF9C00"/>
<path d="M106.878 180.246L111.874 177.37L111.881 183.144L106.878 180.246ZM154.045 180.349L154.045 180.849L111.378 180.756L111.377 180.256L111.377 179.756L154.044 179.849L154.045 180.349Z" fill="#FF9C00"/>
<path d="M221.301 179.58L216.298 176.774L216.305 182.547L221.301 179.58ZM174.135 180.339L174.135 180.839L216.802 180.152L216.801 179.652L216.801 179.152L174.134 179.839L174.135 180.339Z" fill="#FF9C00"/>
<path d="M166 43.5C196.602 43.5 221.5 68.4246 221.5 99.0596V167.438C221.5 168.574 220.576 169.5 219.439 169.5H112.561C111.424 169.5 110.5 168.574 110.5 167.438V99.0596C110.5 68.4261 135.398 43.5 166 43.5ZM165.998 47.625C137.668 47.6252 114.62 70.6978 114.62 99.0596L114.618 165.375H217.377V99.0596C217.377 70.6977 194.328 47.625 165.998 47.625Z" fill="#FF9C00" stroke="#FF9C00"/>
<path d="M135.319 19L141.487 1.12H145.711L151.879 19H148.327L147.055 15.16H140.143L138.847 19H135.319ZM141.079 12.28H146.119L143.143 3.376H144.055L141.079 12.28ZM153.605 19V5.944H156.557V8.848L156.317 8.416C156.621 7.44 157.093 6.76 157.733 6.376C158.389 5.992 159.173 5.8 160.085 5.8H160.853V8.584H159.725C158.829 8.584 158.109 8.864 157.565 9.424C157.021 9.968 156.749 10.736 156.749 11.728V19H153.605ZM168.869 19.288C167.573 19.288 166.405 18.992 165.365 18.4C164.341 17.792 163.533 16.976 162.941 15.952C162.349 14.912 162.053 13.744 162.053 12.448C162.053 11.152 162.349 9.992 162.941 8.968C163.533 7.944 164.341 7.136 165.365 6.544C166.405 5.952 167.573 5.656 168.869 5.656C169.797 5.656 170.661 5.824 171.461 6.16C172.261 6.48 172.949 6.928 173.525 7.504C174.117 8.064 174.541 8.736 174.797 9.52L172.037 10.72C171.797 10.064 171.389 9.536 170.813 9.136C170.253 8.736 169.605 8.536 168.869 8.536C168.181 8.536 167.565 8.704 167.021 9.04C166.493 9.376 166.077 9.84 165.773 10.432C165.469 11.024 165.317 11.704 165.317 12.472C165.317 13.24 165.469 13.92 165.773 14.512C166.077 15.104 166.493 15.568 167.021 15.904C167.565 16.24 168.181 16.408 168.869 16.408C169.621 16.408 170.277 16.208 170.837 15.808C171.397 15.408 171.797 14.872 172.037 14.2L174.797 15.448C174.541 16.184 174.125 16.848 173.549 17.44C172.973 18.016 172.285 18.472 171.485 18.808C170.685 19.128 169.813 19.288 168.869 19.288ZM177.183 19V0.832003H180.327V8.512L179.895 8.056C180.199 7.272 180.695 6.68 181.383 6.28C182.087 5.864 182.903 5.656 183.831 5.656C184.791 5.656 185.639 5.864 186.375 6.28C187.127 6.696 187.711 7.28 188.127 8.032C188.543 8.768 188.751 9.624 188.751 10.6V19H185.607V11.344C185.607 10.768 185.495 10.272 185.271 9.856C185.047 9.44 184.735 9.12 184.335 8.896C183.951 8.656 183.495 8.536 182.967 8.536C182.455 8.536 181.999 8.656 181.599 8.896C181.199 9.12 180.887 9.44 180.663 9.856C180.439 10.272 180.327 10.768 180.327 11.344V19H177.183Z" fill="#FF9C00"/>
</svg>
