<svg width="48" height="48" viewBox="0 0 48 48" fill="none" xmlns="http://www.w3.org/2000/svg">
<path d="M41.1818 16.3636H43.0909V10.6364H37.3636V12.5569L10.6364 5.78918V3H4.90909V8.72727H6.81818V20.1818H3V35.4545H6.81818V39.2727H4.90909V45H10.6364V43.0909H37.3636V45H43.0909V39.2727H41.1818V35.4545H45V20.1818H41.1818V16.3636ZM39.2727 12.5455H41.1818V14.4545H39.2727V12.5455ZM6.81818 4.90909H8.72727V6.81818H6.81818V4.90909ZM8.72727 8.72727H10.6364V7.76891L37.3636 14.5366V16.3636H39.2727V20.1818H8.72727V8.72727ZM8.72727 43.0909H6.81818V41.1818H8.72727V43.0909ZM41.1818 43.0909H39.2727V41.1818H41.1818V43.0909ZM39.2727 39.2727H37.3636V41.1818H10.6364V39.2727H8.72727V35.4545H39.2727V39.2727ZM43.0909 22.0909V33.5455H41.1818V27.8182H39.2727V33.5455H37.3636V29.7273H35.4545V33.5455H33.5455V24H31.6364V33.5455H29.7273V29.7273H27.8182V33.5455H25.9091V27.8182H24V33.5455H22.0909V29.7273H20.1818V33.5455H18.2727V24H16.3636V33.5455H14.4545V29.7273H12.5455V33.5455H10.6364V27.8182H8.72727V33.5455H4.90909V22.0909H43.0909Z" fill="#FF9C00" stroke="#FF9C00" stroke-width="0.3"/>
</svg>
