<svg width="22" height="22" viewBox="0 0 22 22" fill="none" xmlns="http://www.w3.org/2000/svg">
<path d="M5.27739 8.13884C4.71466 8.13884 4.23625 7.94152 3.84218 7.54687C3.44811 7.15222 3.25108 6.67777 3.25108 6.12353C3.25108 5.5633 3.44811 5.08364 3.84218 4.68455C4.23625 4.28566 4.71466 4.08621 5.27739 4.08621C5.83994 4.08621 6.31825 4.28518 6.71232 4.68311C7.10658 5.08104 7.30371 5.55934 7.30371 6.11803C7.30371 6.6769 7.10658 7.15338 6.71232 7.54745C6.31825 7.94171 5.83994 8.13884 5.27739 8.13884ZM3.25108 22C2.92301 22 2.64801 21.8853 2.42608 21.6558C2.20415 21.4266 2.09318 21.1479 2.09318 20.8198C1.50825 20.8198 1.01316 20.6126 0.607895 20.1983C0.202632 19.7842 0 19.2862 0 18.7043V12.6477H3.25108V11.7683C3.25108 11.1017 3.4815 10.5342 3.94234 10.0659C4.40338 9.5975 4.96718 9.36332 5.63374 9.36332C6.00484 9.36332 6.35067 9.44244 6.67121 9.60068C6.99195 9.75874 7.27997 9.97285 7.53529 10.243L8.93345 11.8262C9.08783 11.9827 9.23739 12.1294 9.38213 12.2664C9.52687 12.4033 9.68608 12.5304 9.85976 12.6477H17.9474V3.03282C17.9474 2.68101 17.8268 2.37706 17.5855 2.12097C17.3443 1.86489 17.0514 1.73684 16.707 1.73684C16.5493 1.73684 16.3982 1.77023 16.2537 1.837C16.1091 1.90377 15.9774 1.9966 15.8585 2.11547L14.4112 3.57934C14.5076 3.91127 14.5269 4.23828 14.4691 4.56037C14.4112 4.88246 14.2954 5.18235 14.1217 5.46005L11.3384 2.61858C11.6086 2.44258 11.898 2.33017 12.2068 2.28134C12.5156 2.23252 12.8244 2.26677 13.1331 2.3841L14.5805 0.917342C14.864 0.629605 15.1874 0.404781 15.5508 0.242869C15.914 0.0809566 16.2994 0 16.707 0C17.5428 0 18.2479 0.294298 18.8224 0.882895C19.397 1.47149 19.6842 2.18813 19.6842 3.03282V12.6477H22V18.7043C22 19.2862 21.7974 19.7842 21.3921 20.1983C20.9868 20.6126 20.4917 20.8198 19.9068 20.8198C19.9068 21.1479 19.7959 21.4266 19.5739 21.6558C19.352 21.8853 19.077 22 18.7489 22H3.25108ZM2.09318 19.083H19.9068C20.0108 19.083 20.0962 19.0458 20.163 18.9715C20.2298 18.8974 20.2632 18.8084 20.2632 18.7043V14.3845H1.73684V18.7043C1.73684 18.8084 1.77023 18.8974 1.837 18.9715C1.90377 19.0458 1.98917 19.083 2.09318 19.083ZM2.09318 19.083H1.73684H20.2632H2.09318Z" fill="#1E1E1E"/>
</svg>
