<svg width="48" height="48" viewBox="0 0 48 48" fill="none" xmlns="http://www.w3.org/2000/svg">
<path d="M46.0361 12.8496L46.168 12.8574C46.2987 12.8731 46.4262 12.9123 46.5439 12.9727C46.7008 13.0531 46.8363 13.1695 46.9395 13.3125C47.0426 13.4556 47.111 13.6215 47.1377 13.7959C47.1577 13.9266 47.1534 14.0596 47.127 14.1885L47.0928 14.3164L45.5186 19.0391C45.4447 19.2608 45.3028 19.4541 45.1133 19.5908C44.9237 19.7275 44.6957 19.8007 44.4619 19.8008H42.4277V28.5898H44.4619C44.6958 28.5899 44.9236 28.664 45.1133 28.8008C45.3029 28.9376 45.4447 29.1306 45.5186 29.3525L47.0928 34.0752C47.1484 34.2425 47.1643 34.4205 47.1377 34.5947C47.111 34.7692 47.0426 34.935 46.9395 35.0781C46.8363 35.2213 46.701 35.3385 46.5439 35.4189C46.4262 35.4793 46.2987 35.5176 46.168 35.5332L46.0361 35.541H1.96387C1.78738 35.5409 1.61314 35.4994 1.45605 35.4189C1.29901 35.3385 1.16372 35.2213 1.06055 35.0781C0.957371 34.935 0.888955 34.7692 0.862305 34.5947C0.835748 34.4205 0.851607 34.2424 0.907227 34.0752L2.48145 29.3525L2.54883 29.1924C2.62876 29.0379 2.74432 28.9035 2.88672 28.8008C3.07638 28.664 3.30425 28.5899 3.53809 28.5898H5.57227V19.8008H3.53809C3.30433 19.8007 3.07634 19.7275 2.88672 19.5908C2.69716 19.4541 2.55532 19.2608 2.48145 19.0391L0.907227 14.3164C0.85149 14.1489 0.835652 13.9704 0.862305 13.7959C0.888973 13.6215 0.957383 13.4556 1.06055 13.3125C1.16365 13.1695 1.2992 13.0531 1.45605 12.9727C1.61314 12.8922 1.78738 12.8497 1.96387 12.8496H46.0361ZM20.0811 33.3125H44.4912L43.6592 30.8193H19.25L20.0811 33.3125ZM4.34082 17.5723H6.68652C6.83267 17.5723 6.97727 17.6013 7.1123 17.6572C7.24736 17.7132 7.37022 17.7951 7.47363 17.8984C7.57704 18.0018 7.65982 18.1247 7.71582 18.2598C7.77181 18.3949 7.80077 18.5402 7.80078 18.6865V29.7051C7.80072 29.8512 7.7717 29.9959 7.71582 30.1309C7.65982 30.2661 7.57711 30.3887 7.47363 30.4922C7.37016 30.5956 7.24749 30.6784 7.1123 30.7344C6.97731 30.7902 6.83261 30.8193 6.68652 30.8193H4.34082L3.50879 33.3125H17.7324L16.9014 30.8193H14.5566C14.4104 30.8193 14.265 30.7903 14.1299 30.7344C13.9947 30.6784 13.872 30.5957 13.7686 30.4922C13.6651 30.3887 13.5824 30.266 13.5264 30.1309C13.4705 29.9959 13.4424 29.8512 13.4424 29.7051V18.6865C13.4424 18.5402 13.4704 18.3949 13.5264 18.2598C13.5824 18.1246 13.6651 18.0019 13.7686 17.8984C13.872 17.7951 13.9948 17.7132 14.1299 17.6572C14.2651 17.6012 14.4103 17.5723 14.5566 17.5723H16.9014L17.7314 15.0791H3.50977L4.34082 17.5723ZM15.6709 28.5898H40.1992V19.8008H15.6709V28.5898ZM19.249 17.5723H43.6592L44.4902 15.0791H20.0811L19.249 17.5723Z" fill="#FF9C00" stroke="#FF9C00" stroke-width="0.3"/>
</svg>
