<svg width="25" height="25" viewBox="0 0 25 25" fill="none" xmlns="http://www.w3.org/2000/svg">
<path d="M0 25.0001V18.7967H2.19222V6.20359H0V0.00012207H6.20346V2.19234H18.7965V0.00012207H25V6.20359H22.8078V18.7967H25V25.0001H18.7965V22.8079H6.20346V25.0001H0ZM6.20346 20.9889H18.7965V18.7967H20.9888V6.20359H18.7965V4.01136H6.20346V6.20359H4.01124V18.7967H6.20346V20.9889ZM1.81902 4.38457H4.38444V1.81914H1.81902V4.38457ZM20.6156 4.38457H23.181V1.81914H20.6156V4.38457ZM20.6156 23.1811H23.181V20.6157H20.6156V23.1811ZM1.81902 23.1811H4.38444V20.6157H1.81902V23.1811Z" fill="#1E1E1E"/>
</svg>
