<svg width="48" height="48" viewBox="0 0 48 48" fill="none" xmlns="http://www.w3.org/2000/svg">
<path d="M39.2826 30.6087H33.087V14.913H39.2826C39.9669 14.913 40.5218 14.3582 40.5218 13.6739V8.71739C40.5218 8.0331 39.967 7.47824 39.2826 7.47824H32.8738C32.3623 6.03602 30.9849 5 29.3696 5C27.7542 5 26.3769 6.03602 25.8653 7.47824H22.5478C22.0362 6.03602 20.6589 5 19.0434 5C17.428 5 16.0507 6.03602 15.5392 7.47824H12.2216C11.7101 6.03602 10.3328 5 8.71739 5C6.66762 5 5 6.66762 5 8.71739V36.8044C5 38.8541 6.66762 40.5218 8.71739 40.5218C10.3328 40.5218 11.7101 39.4857 12.2216 38.0435H15.5392C16.0507 39.4858 17.4281 40.5218 19.0434 40.5218C20.6588 40.5218 22.0362 39.4857 22.5477 38.0435H25.8653C26.3768 39.4858 27.7541 40.5218 29.3695 40.5218C30.9849 40.5218 32.3622 39.4857 32.8737 38.0435H35.5651V39.2827C35.5651 41.3325 37.2328 43.0001 39.2825 43.0001C41.3323 43.0001 43 41.3324 43 39.2826V34.3261C43 32.2764 41.3324 30.6087 39.2826 30.6087ZM33.087 9.95655H38.0435V12.4348H33.087V9.95655ZM9.95655 36.8044C9.95655 37.4876 9.40065 38.0435 8.71739 38.0435C8.03414 38.0435 7.47824 37.4876 7.47824 36.8044V8.71739C7.47824 8.03414 8.03414 7.47824 8.71739 7.47824C9.40065 7.47824 9.95655 8.03414 9.95655 8.71739V36.8044ZM15.3261 35.5652H12.4348V33.087H15.3261V35.5652ZM15.3261 30.6087H12.4348V14.913H15.3261V30.6087ZM15.3261 12.4348H12.4348V9.95655H15.3261V12.4348ZM20.2826 36.8044C20.2826 37.4876 19.7267 38.0435 19.0434 38.0435C18.3602 38.0435 17.8043 37.4876 17.8043 36.8044V8.71739C17.8043 8.03414 18.3602 7.47824 19.0434 7.47824C19.7267 7.47824 20.2826 8.03414 20.2826 8.71739V36.8044ZM25.6522 35.5652H22.7609V33.087H25.6522V35.5652ZM25.6522 30.6087H22.7609V14.913H25.6522V30.6087ZM25.6522 12.4348H22.7609V9.95655H25.6522V12.4348ZM30.6087 31.8478V36.8044C30.6087 37.4876 30.0528 38.0435 29.3695 38.0435C28.6862 38.0435 28.1303 37.4876 28.1303 36.8044V8.71739C28.1303 8.03414 28.6862 7.47824 29.3695 7.47824C30.0528 7.47824 30.6087 8.03414 30.6087 8.71739V31.8478ZM40.5218 39.2826C40.5218 39.9659 39.9659 40.5218 39.2826 40.5218C38.5993 40.5218 38.0434 39.9659 38.0434 39.2826V36.8044C38.0434 36.1201 37.4887 35.5652 36.8043 35.5652H33.0869V33.087H39.2825C39.9658 33.087 40.5217 33.6429 40.5217 34.3261V39.2826H40.5218Z" fill="#FF9C00"/>
</svg>
