<svg width="48" height="48" viewBox="0 0 48 48" fill="none" xmlns="http://www.w3.org/2000/svg">
<path d="M43.2633 13.8067L35.5483 9.95C34.59 8.20667 32.2017 7 29.3333 7C25.595 7 22.6667 9.05 22.6667 11.6667C22.667 12.0366 22.7267 12.404 22.8433 12.755L19.59 14.3817C18.4554 13.8985 17.2332 13.6551 16 13.6667C12.2617 13.6667 9.33333 15.7167 9.33333 18.3333C9.3337 18.7032 9.39334 19.0707 9.51 19.4217L4.73667 21.8067C4.51515 21.9175 4.32889 22.0879 4.19877 22.2987C4.06865 22.5094 3.99982 22.7523 4 23V33.6667C3.99982 33.9144 4.06865 34.1572 4.19877 34.368C4.32889 34.5788 4.51515 34.7492 4.73667 34.86L15.4033 40.1933C15.5886 40.286 15.7929 40.3343 16 40.3343C16.2071 40.3343 16.4114 40.286 16.5967 40.1933L43.2633 26.86C43.4849 26.7492 43.6711 26.5788 43.8012 26.368C43.9314 26.1572 44.0002 25.9144 44 25.6667V15C44.0002 14.7523 43.9314 14.5094 43.8012 14.2987C43.6711 14.0879 43.4849 13.9175 43.2633 13.8067ZM16 26.8433L8.315 23L11.1667 21.575C12.3733 22.4567 14.08 23 16 23C19.7383 23 22.6667 20.95 22.6667 18.3333C22.6603 17.5587 22.4063 16.8065 21.9417 16.1867L24.5 14.9083C25.7067 15.79 27.4133 16.3333 29.3333 16.3333C32.3967 16.3333 34.915 14.9567 35.725 13.02L39.685 15L16 26.8433ZM29.3333 9.66667C31.6233 9.66667 33.3333 10.7233 33.3333 11.6667C33.3333 12.61 31.6233 13.6667 29.3333 13.6667C27.0433 13.6667 25.3333 12.61 25.3333 11.6667C25.3333 10.7233 27.0433 9.66667 29.3333 9.66667ZM16 16.3333C18.29 16.3333 20 17.39 20 18.3333C20 19.2767 18.29 20.3333 16 20.3333C14.3883 20.3333 13.065 19.81 12.4217 19.1667C12.379 19.1115 12.3322 19.0597 12.2817 19.0117C12.1131 18.8244 12.0137 18.585 12 18.3333C12 17.39 13.71 16.3333 16 16.3333ZM6.66667 25.1567L14.6667 29.1567V36.8433L6.66667 32.8433V25.1567ZM17.3333 36.8433V29.1567L41.3333 17.1567V24.8433L17.3333 36.8433Z" fill="#FF9C00"/>
</svg>
