<svg width="50" height="50" viewBox="0 0 50 50" fill="none" xmlns="http://www.w3.org/2000/svg">
<path d="M8.8845 34C8.09817 34 7.42083 33.7158 6.8525 33.1475C6.28417 32.5792 6 31.9018 6 31.1155V18.8845C6 18.0982 6.28417 17.4208 6.8525 16.8525C7.42083 16.2842 8.09817 16 8.8845 16H41.1155C41.9018 16 42.5792 16.2842 43.1475 16.8525C43.7158 17.4208 44 18.0982 44 18.8845V31.1155C44 31.9018 43.7158 32.5792 43.1475 33.1475C42.5792 33.7158 41.9018 34 41.1155 34H8.8845ZM8.8845 31.7305H41.1155C41.2948 31.7305 41.4422 31.6728 41.5575 31.5575C41.6728 31.4422 41.7305 31.2948 41.7305 31.1155V18.8845C41.7305 18.7052 41.6728 18.5578 41.5575 18.4425C41.4422 18.3272 41.2948 18.2695 41.1155 18.2695H34.6615C35.0742 18.7848 35.4005 19.363 35.6405 20.004C35.8802 20.645 36 21.3103 36 22C36 23.618 35.4077 25.0225 34.223 26.2135C33.0383 27.4045 31.6307 28 30 28H20C18.382 28 16.9775 27.4045 15.7865 26.2135C14.5955 25.0225 14 23.618 14 22C14 21.3103 14.1198 20.645 14.3595 20.004C14.5995 19.363 14.9258 18.7848 15.3385 18.2695H8.8845C8.70517 18.2695 8.55783 18.3272 8.4425 18.4425C8.32717 18.5578 8.2695 18.7052 8.2695 18.8845V31.1155C8.2695 31.2948 8.32717 31.4422 8.4425 31.5575C8.55783 31.6728 8.70517 31.7305 8.8845 31.7305ZM20 25.7305H23.8655V18.2695H20C19.005 18.2695 18.1345 18.642 17.3885 19.387C16.6425 20.132 16.2695 21.0012 16.2695 21.9945C16.2695 22.9878 16.6425 23.8588 17.3885 24.6075C18.1345 25.3562 19.005 25.7305 20 25.7305ZM26.1345 25.7305H30C31.0027 25.7305 31.8752 25.3567 32.6175 24.609C33.3595 23.8613 33.7305 22.989 33.7305 21.992C33.7305 20.9947 33.3595 20.1248 32.6175 19.3825C31.8752 18.6405 31.0027 18.2695 30 18.2695H26.1345V25.7305ZM41.1155 31.7305H8.2695H41.7305H41.1155Z" fill="#FF9C00"/>
</svg>
