<svg width="100" height="100" viewBox="0 0 100 100" fill="none" xmlns="http://www.w3.org/2000/svg">
<path d="M13 50.5C13 29.7893 29.7893 13 50.5 13C71.2107 13 88 29.7893 88 50.5C88 71.2107 71.2107 88 50.5 88C29.7893 88 13 71.2107 13 50.5Z" fill="url(#paint0_linear_472_1020)"/>
<path d="M68.3834 88.6667H33.614C31.434 88.6667 29.666 86.8987 29.666 84.7173V15.2827C29.666 13.1014 31.434 11.3333 33.614 11.3333H68.3834C70.5648 11.3333 72.3327 13.1012 72.3327 15.2827V84.7173C72.3326 86.8987 70.5646 88.6667 68.3834 88.6667Z" fill="#FF9C00"/>
<path d="M55 83.3333C55 85.5427 53.2094 87.3333 51 87.3333C48.7906 87.3333 47 85.5427 47 83.3333C47 81.1239 48.7906 79.3333 51 79.3333C53.2094 79.3333 55 81.1241 55 83.3333Z" fill="#FF9C00"/>
<path d="M68.3848 11.3333H64.3848C66.5662 11.3333 68.3341 13.1012 68.3341 15.2827V84.7173C68.3341 86.8986 66.5662 88.6667 64.3848 88.6667H68.3848C70.5662 88.6667 72.3341 86.8988 72.3341 84.7173V15.2827C72.334 13.1012 70.566 11.3333 68.3848 11.3333Z" fill="#FFBE41"/>
<path d="M33.6154 11.3333H37.6154C35.4341 11.3333 33.666 13.1012 33.666 15.2827V84.7173C33.666 86.8986 35.434 88.6667 37.6154 88.6667H33.6154C31.4341 88.6667 29.666 86.8988 29.666 84.7173V15.2827C29.6662 13.1012 31.4341 11.3333 33.6154 11.3333Z" fill="white"/>
<path d="M68.3848 90H33.6154C30.7034 90 28.334 87.6306 28.334 84.7173V15.2827C28.334 12.3694 30.7034 10 33.6154 10H68.3848C71.298 10 73.6674 12.3694 73.6674 15.2827V84.7173C73.6674 87.6306 71.298 90 68.3848 90ZM33.6154 12.6667C32.1741 12.6667 31.0007 13.84 31.0007 15.2827V84.7173C31.0007 86.16 32.174 87.3333 33.6154 87.3333H68.3848C69.8274 87.3333 71.0007 86.16 71.0007 84.7173V15.2827C71.0007 13.84 69.8274 12.6667 68.3848 12.6667H33.6154Z" fill="#1E1E1E"/>
<path d="M73.6674 79.3333H28.334V18H73.6673L73.6674 79.3333ZM31.0007 76.6667H71.0007V20.6667H31.0007V76.6667Z" fill="#1E1E1E"/>
<path d="M56.334 16.6667H49.6673C48.9313 16.6667 48.334 16.0694 48.334 15.3334C48.334 14.5975 48.9313 14.0002 49.6673 14.0002H56.334C57.0713 14.0002 57.6673 14.5975 57.6673 15.3334C57.6673 16.0694 57.0713 16.6667 56.334 16.6667Z" fill="#1E1E1E"/>
<path d="M45.6666 16.6667H44.3333C43.5973 16.6667 43 16.0694 43 15.3334C43 14.5975 43.5973 14.0002 44.3333 14.0002H45.6666C46.4025 14.0002 46.9998 14.5975 46.9998 15.3334C46.9998 16.0694 46.4025 16.6667 45.6666 16.6667Z" fill="#1E1E1E"/>
<path d="M28.3333 26C27.5973 26 27 25.4027 27 24.6667V23.3334C27 22.5975 27.5973 22.0002 28.3333 22.0002C29.0692 22.0002 29.6666 22.5975 29.6666 23.3334V24.6667C29.6667 25.4027 29.0694 26 28.3333 26Z" fill="#1E1E1E"/>
<path d="M28.3333 31.3333C27.5973 31.3333 27 30.7359 27 30V28.6667C27 27.9308 27.5973 27.3334 28.3333 27.3334C29.0692 27.3334 29.6666 27.9308 29.6666 28.6667V30C29.6667 30.7359 29.0694 31.3333 28.3333 31.3333Z" fill="#1E1E1E"/>
<path d="M28.3333 36.6667C27.5973 36.6667 27 36.0694 27 35.3334V34C27 33.2641 27.5973 32.6667 28.3333 32.6667C29.0692 32.6667 29.6666 33.2641 29.6666 34V35.3333C29.6667 36.0694 29.0694 36.6667 28.3333 36.6667Z" fill="#1E1E1E"/>
<defs>
<linearGradient id="paint0_linear_472_1020" x1="50.5" y1="13" x2="42.5281" y2="261.348" gradientUnits="userSpaceOnUse">
<stop stop-color="#FF9C00"/>
<stop offset="1" stop-color="white"/>
</linearGradient>
</defs>
</svg>
