<svg width="25" height="26" viewBox="0 0 25 26" fill="none" xmlns="http://www.w3.org/2000/svg">
<path d="M6.22124 25.0223C5.95791 25.0223 5.6983 24.9731 5.44241 24.8747C5.18652 24.7761 4.95626 24.6304 4.75162 24.4377L0.584562 20.2707C0.392056 20.066 0.246502 19.8358 0.147901 19.5799C0.0493004 19.3242 0 19.0647 0 18.8014C0 18.5259 0.0493004 18.2651 0.147901 18.019C0.246502 17.7729 0.392056 17.5536 0.584562 17.3611L4.08577 13.8599C4.48311 13.4625 4.97103 13.2609 5.54952 13.2551C6.12822 13.249 6.61623 13.4446 7.01357 13.842L8.60497 15.4334L9.84423 14.1941L8.25283 12.6024C7.85549 12.2053 7.65682 11.7234 7.65682 11.1569C7.65682 10.5901 7.85549 10.1081 8.25283 9.71101L9.69985 8.26398C10.097 7.86664 10.58 7.66797 11.1489 7.66797C11.7178 7.66797 12.201 7.86664 12.5983 8.26398L14.1897 9.85538L15.429 8.61613L13.8376 7.02472C13.4402 6.62738 13.2416 6.1424 13.2416 5.56977C13.2416 4.99714 13.4402 4.51226 13.8376 4.11512L17.3385 0.613909C17.5433 0.409273 17.7717 0.255796 18.0237 0.153478C18.2757 0.0511602 18.5334 0 18.797 0C19.0603 0 19.3169 0.0492034 19.5667 0.147609C19.8165 0.246209 20.0437 0.397828 20.2484 0.602463L24.4154 4.76952C24.6201 4.96222 24.7687 5.18349 24.8612 5.43332C24.9537 5.68314 25 5.94569 25 6.22095C25 6.48447 24.9537 6.74408 24.8612 6.99978C24.7687 7.25567 24.6201 7.48593 24.4154 7.69057L20.9142 11.1918C20.5169 11.5891 20.0319 11.7878 19.4593 11.7878C18.8867 11.7878 18.4018 11.5891 18.0046 11.1918L16.4132 9.60037L15.1737 10.8396L16.7654 12.431C17.1625 12.8284 17.3581 13.3134 17.3523 13.886C17.3462 14.4586 17.1445 14.9435 16.7472 15.3406L15.3295 16.7583C14.9323 17.1557 14.4475 17.3562 13.8748 17.3599C13.3022 17.3636 12.8172 17.1668 12.4199 16.7695L10.8285 15.1781L9.58922 16.4176L11.1806 18.009C11.578 18.4062 11.7736 18.8941 11.7675 19.4728C11.7615 20.0515 11.5598 20.5394 11.1624 20.9365L7.66152 24.4377C7.46881 24.6304 7.24941 24.7761 7.0033 24.8747C6.75738 24.9731 6.4967 25.0223 6.22124 25.0223ZM6.02932 23.2234C6.08195 23.276 6.14592 23.3024 6.22124 23.3024C6.29656 23.3024 6.36053 23.276 6.41316 23.2234L7.67942 21.9569L3.09477 17.3722L1.82852 18.6388C1.77569 18.6914 1.74928 18.7554 1.74928 18.8307C1.74928 18.9058 1.77569 18.9697 1.82852 19.0223L6.02932 23.2234ZM8.68186 20.9436L9.94812 19.677C10.0007 19.6244 10.0271 19.5604 10.0271 19.4851C10.0271 19.41 10.0007 19.346 9.94812 19.2932L5.74731 15.0924C5.69449 15.0398 5.63052 15.0134 5.55539 15.0134C5.48007 15.0134 5.4161 15.0398 5.36347 15.0924L4.09692 16.3586L8.68186 20.9436ZM13.6861 15.544C13.739 15.5966 13.8029 15.6229 13.8781 15.6229C13.9534 15.6229 14.0174 15.5966 14.07 15.544L15.5329 14.0811C15.5855 14.0285 15.6118 13.9645 15.6118 13.8892C15.6118 13.8141 15.5855 13.7501 15.5329 13.6973L11.3318 9.49649C11.2791 9.44386 11.2152 9.41755 11.1398 9.41755C11.0647 9.41755 11.0007 9.44386 10.9479 9.49649L9.48534 10.9591C9.43271 11.0119 9.4064 11.0759 9.4064 11.151C9.4064 11.2263 9.43271 11.2903 9.48534 11.3429L13.6861 15.544ZM19.2709 9.94782C19.3235 10.0006 19.3875 10.0271 19.4628 10.0271C19.5381 10.0271 19.6021 10.0006 19.6547 9.94782L20.921 8.68157L16.3363 4.09692L15.0701 5.36318C15.0173 5.416 14.9908 5.47998 14.9908 5.5551C14.9908 5.63042 15.0173 5.69439 15.0701 5.74702L19.2709 9.94782ZM21.9346 7.67942L23.2008 6.41287C23.2537 6.36024 23.2801 6.29627 23.2801 6.22095C23.2801 6.14582 23.2537 6.08195 23.2008 6.02932L19 1.82822C18.9474 1.7756 18.8834 1.74929 18.8081 1.74929C18.7328 1.74929 18.6688 1.7756 18.6162 1.82822L17.3499 3.09477L21.9346 7.67942Z" fill="white"/>
</svg>
