<svg width="25" height="19" viewBox="0 0 25 19" fill="none" xmlns="http://www.w3.org/2000/svg">
<path d="M6.92582 18.3833C6.02202 18.3833 5.2487 18.0778 4.60584 17.4667C3.96298 16.8553 3.61537 16.0939 3.56302 15.1822C2.83524 14.8096 2.26246 14.2737 1.84467 13.5746C1.42709 12.8754 1.2183 12.1081 1.2183 11.2725C1.2183 10.2436 1.52664 9.33714 2.14332 8.55309C2.76001 7.76904 3.56621 7.24387 4.56193 6.97758L2.1458 4.56113L1.58435 5.12258C1.40524 5.30169 1.18408 5.39516 0.920881 5.40299C0.657677 5.41103 0.43652 5.32549 0.257409 5.14638C0.078299 4.96727 -0.00734 4.74612 0.000492212 4.48291C0.00853054 4.21971 0.102105 3.99855 0.281215 3.81944L2.70694 1.39341C2.88605 1.2143 3.1072 1.12083 3.37041 1.113C3.63361 1.10496 3.85477 1.1905 4.03388 1.36961C4.21299 1.54892 4.29863 1.77018 4.29079 2.03339C4.28276 2.29638 4.18918 2.51754 4.01007 2.69686L3.44893 3.258L5.58466 5.39372L6.6689 2.20219C6.8845 1.55047 7.26745 1.02046 7.81777 0.612149C8.36788 0.204049 8.98538 0 9.67029 0H16.5004C17.1853 0 17.8029 0.204049 18.3532 0.612149C18.9033 1.02046 19.2862 1.55047 19.5018 2.20219L21.0761 6.87772C22.2033 7.01725 23.1391 7.50275 23.8836 8.3342C24.6279 9.16586 25 10.1453 25 11.2725C25 12.1081 24.7912 12.8754 24.3736 13.5746C23.9558 14.2737 23.3831 14.8096 22.6553 15.1822C22.6029 16.0939 22.2553 16.8553 21.6125 17.4667C20.9696 18.0778 20.1963 18.3833 19.2925 18.3833C18.5014 18.3833 17.8034 18.1348 17.1985 17.6376C16.5936 17.1407 16.2086 16.5093 16.0438 15.7434H10.1745C10.0097 16.5093 9.62474 17.1407 9.01981 17.6376C8.41487 18.1348 7.71687 18.3833 6.92582 18.3833ZM7.08751 6.80166H12.1578V1.855H9.67029C9.38648 1.855 9.13358 1.94022 8.9116 2.11068C8.68962 2.28093 8.5271 2.50796 8.42404 2.79177L7.08751 6.80166ZM14.0128 6.80166H19.0832L17.7466 2.79177C17.6436 2.50796 17.4811 2.28093 17.2591 2.11068C17.0371 1.94022 16.7842 1.855 16.5004 1.855H14.0128V6.80166ZM10.1269 13.8887H16.0914C16.3276 13.2021 16.7382 12.6459 17.3234 12.2201C17.9083 11.7945 18.5647 11.5817 19.2925 11.5817C19.8949 11.5817 20.4523 11.7279 20.9645 12.0204C21.4764 12.3131 21.8941 12.7107 22.2175 13.2132C22.5063 12.9786 22.7331 12.6905 22.898 12.3487C23.0629 12.007 23.1453 11.6483 23.1453 11.2725C23.1453 10.5528 22.8892 9.93682 22.377 9.42463C21.8648 8.91244 21.2489 8.65635 20.5291 8.65635H5.68915C4.96942 8.65635 4.35345 8.91244 3.84127 9.42463C3.32908 9.93682 3.07299 10.5528 3.07299 11.2725C3.07299 11.6483 3.15543 12.007 3.32032 12.3487C3.48521 12.6905 3.71204 12.9786 4.0008 13.2132C4.31615 12.7026 4.73187 12.3031 5.24797 12.0145C5.76408 11.726 6.32336 11.5817 6.92582 11.5817C7.6536 11.5817 8.30996 11.7945 8.8949 12.2201C9.48005 12.6459 9.89073 13.2021 10.1269 13.8887ZM6.92582 16.5283C7.35556 16.5283 7.72059 16.3781 8.02089 16.0776C8.3214 15.7773 8.47165 15.4123 8.47165 14.9825C8.47165 14.5528 8.3214 14.1878 8.02089 13.8874C7.72059 13.5869 7.35556 13.4367 6.92582 13.4367C6.49608 13.4367 6.13106 13.5869 5.83075 13.8874C5.53024 14.1878 5.37999 14.5528 5.37999 14.9825C5.37999 15.4123 5.53024 15.7773 5.83075 16.0776C6.13106 16.3781 6.49608 16.5283 6.92582 16.5283ZM19.2925 16.5283C19.7222 16.5283 20.0872 16.3781 20.3875 16.0776C20.6881 15.7773 20.8383 15.4123 20.8383 14.9825C20.8383 14.5528 20.6881 14.1878 20.3875 13.8874C20.0872 13.5869 19.7222 13.4367 19.2925 13.4367C18.8627 13.4367 18.4977 13.5869 18.1974 13.8874C17.8969 14.1878 17.7466 14.5528 17.7466 14.9825C17.7466 15.4123 17.8969 15.7773 18.1974 16.0776C18.4977 16.3781 18.8627 16.5283 19.2925 16.5283Z" fill="#1E1E1E"/>
</svg>
