<svg width="48" height="48" viewBox="0 0 48 48" fill="none" xmlns="http://www.w3.org/2000/svg">
<path d="M35.7857 5C35.4258 5 35.0806 5.14298 34.8261 5.3975C34.5716 5.65201 34.4286 5.99721 34.4286 6.35714V9.07143H29V6.35714C29 5.99721 28.857 5.65201 28.6025 5.3975C28.348 5.14298 28.0028 5 27.6429 5C27.2829 5 26.9377 5.14298 26.6832 5.3975C26.4287 5.65201 26.2857 5.99721 26.2857 6.35714V9.07143H20.8571V6.35714C20.8571 5.99721 20.7142 5.65201 20.4596 5.3975C20.2051 5.14298 19.8599 5 19.5 5C19.1401 5 18.7949 5.14298 18.5404 5.3975C18.2858 5.65201 18.1429 5.99721 18.1429 6.35714V9.07143H12.7143V6.35714C12.7143 5.99721 12.5713 5.65201 12.3168 5.3975C12.0623 5.14298 11.7171 5 11.3571 5C10.9972 5 10.652 5.14298 10.3975 5.3975C10.143 5.65201 10 5.99721 10 6.35714V41.6429C10 42.0028 10.143 42.348 10.3975 42.6025C10.652 42.857 10.9972 43 11.3571 43C11.7171 43 12.0623 42.857 12.3168 42.6025C12.5713 42.348 12.7143 42.0028 12.7143 41.6429V38.9286H18.1429V41.6429C18.1429 42.0028 18.2858 42.348 18.5404 42.6025C18.7949 42.857 19.1401 43 19.5 43C19.8599 43 20.2051 42.857 20.4596 42.6025C20.7142 42.348 20.8571 42.0028 20.8571 41.6429V38.9286H26.2857V41.6429C26.2857 42.0028 26.4287 42.348 26.6832 42.6025C26.9377 42.857 27.2829 43 27.6429 43C28.0028 43 28.348 42.857 28.6025 42.6025C28.857 42.348 29 42.0028 29 41.6429V38.9286H34.4286V41.6429C34.4286 42.0028 34.5716 42.348 34.8261 42.6025C35.0806 42.857 35.4258 43 35.7857 43C36.1457 43 36.4909 42.857 36.7454 42.6025C36.9999 42.348 37.1429 42.0028 37.1429 41.6429V6.35714C37.1429 5.99721 36.9999 5.65201 36.7454 5.3975C36.4909 5.14298 36.1457 5 35.7857 5ZM12.7143 11.7857H34.4286V36.2143H12.7143V11.7857ZM23.5714 32.1429C23.8057 32.1429 24.036 32.0823 24.24 31.967C24.4439 31.8517 24.6145 31.6855 24.7352 31.4846L28.8066 24.6989C28.9334 24.4878 29.0004 24.2462 29.0004 24C29.0004 23.7538 28.9334 23.5121 28.8066 23.3011L24.7352 16.5154C24.6146 16.3144 24.444 16.1481 24.2401 16.0326C24.0362 15.9171 23.8058 15.8564 23.5714 15.8564C23.3371 15.8564 23.1067 15.9171 22.9028 16.0326C22.6988 16.1481 22.5283 16.3144 22.4077 16.5154L18.3363 23.3011C18.2094 23.5121 18.1424 23.7538 18.1424 24C18.1424 24.2462 18.2094 24.4878 18.3363 24.6989L22.4077 31.4846C22.5283 31.6855 22.6989 31.8517 22.9029 31.967C23.1068 32.0823 23.3371 32.1429 23.5714 32.1429ZM23.5714 19.8522L26.0601 24L23.5714 28.1478L21.0828 24L23.5714 19.8522Z" fill="#FF9C00"/>
</svg>
