<svg width="48" height="48" viewBox="0 0 48 48" fill="none" xmlns="http://www.w3.org/2000/svg">
<g clip-path="url(#clip0_376_491)">
<path d="M24 41.0066C24.1775 41.0066 24.3481 41.0773 24.4736 41.2029C24.599 41.3284 24.6689 41.4991 24.6689 41.6765V46.4489C24.6689 46.6264 24.5991 46.7971 24.4736 46.9226C24.3481 47.0481 24.1775 47.1179 24 47.1179H1.46973C1.2923 47.1179 1.12161 47.048 0.996094 46.9226C0.870579 46.7971 0.799827 46.6264 0.799805 46.4489V41.6765C0.799805 41.499 0.87056 41.3284 0.996094 41.2029C1.12163 41.0773 1.29219 41.0066 1.46973 41.0066C1.64707 41.0067 1.81694 41.0775 1.94238 41.2029C2.06792 41.3284 2.13867 41.499 2.13867 41.6765V45.779H23.3301V41.6765C23.3301 41.499 23.4009 41.3284 23.5264 41.2029C23.6519 41.0773 23.8225 41.0066 24 41.0066Z" fill="#FF9C00" stroke="#FF9C00" stroke-width="0.4"/>
<path d="M24 21.9213C24.1775 21.9213 24.3481 21.992 24.4736 22.1176C24.599 22.2431 24.6689 22.4138 24.6689 22.5912V27.3636C24.6689 27.5411 24.5991 27.7118 24.4736 27.8373C24.3481 27.9628 24.1775 28.0326 24 28.0326H23.7705L23.2207 28.0873C20.5537 28.4138 19.1016 29.4816 18.3076 30.6049C17.4546 31.8119 17.3389 33.1158 17.3389 33.725C17.339 36.118 18.4585 38.0632 20.6992 39.516H20.6982C21.7575 40.1953 22.9202 40.6976 24.1406 41.0043L24.25 41.0375C24.3553 41.0799 24.4484 41.1494 24.5205 41.2386C24.6167 41.3578 24.669 41.5064 24.6689 41.6595V41.6761C24.6689 41.8536 24.5991 42.0243 24.4736 42.1498C24.3794 42.244 24.2596 42.3067 24.1309 42.3324L24 42.3451C23.8989 42.3452 23.7998 42.3216 23.709 42.2777C22.3851 41.931 21.1239 41.3786 19.9717 40.64L19.9707 40.639C17.3859 38.9598 16.0001 36.5674 16 33.725C16 31.1723 17.1702 29.163 19.376 27.9359C20.853 27.1147 22.4551 26.8268 23.3301 26.7308V23.2621H2.13867V26.724C2.99546 26.8134 4.6616 27.0904 6.19531 27.9379C8.41886 29.1648 9.59375 31.1739 9.59375 33.7269C9.59363 36.5706 8.20355 38.9638 5.60156 40.642H5.60059C4.44155 41.3805 3.17363 41.9322 1.84375 42.2787C1.74849 42.325 1.64424 42.3493 1.53809 42.347C1.42215 42.3446 1.30859 42.3127 1.20898 42.2533C1.10952 42.194 1.02695 42.1098 0.969727 42.0092C0.912516 41.9084 0.882793 41.794 0.882812 41.6781V41.6615C0.882767 41.5084 0.935117 41.3597 1.03125 41.2406C1.12744 41.1215 1.26149 41.0384 1.41113 41.0062C2.64661 40.6958 3.82388 40.1881 4.89746 39.5023C7.13575 38.0484 8.25477 36.1084 8.25488 33.7269C8.25488 31.6492 7.34866 30.1039 5.54785 29.1088H5.54688C4.26521 28.3992 2.84724 28.1501 2.07031 28.0629L1.7793 28.0345H1.46973C1.29231 28.0345 1.12161 27.9646 0.996094 27.8392C0.870597 27.7137 0.799848 27.5431 0.799805 27.3656V22.5912C0.799805 22.4137 0.87056 22.2431 0.996094 22.1176C1.12163 21.992 1.29219 21.9213 1.46973 21.9213H24Z" fill="#FF9C00" stroke="#FF9C00" stroke-width="0.4"/>
<path d="M46.5303 19.8889C46.7078 19.8889 46.8784 19.9597 47.0039 20.0852C47.1294 20.2107 47.2002 20.3813 47.2002 20.5588V25.3313C47.2002 25.4227 47.1808 25.513 47.1445 25.5969C47.1082 25.6809 47.0551 25.7569 46.9883 25.8196L24.458 46.9426L24.4551 46.9446C24.3306 47.0576 24.1681 47.1187 24 47.1174C23.8657 47.1175 23.7341 47.0777 23.623 47.0022C23.5122 46.9267 23.4263 46.8193 23.377 46.6946C23.3277 46.5698 23.3173 46.4329 23.3467 46.302C23.3761 46.1711 23.4441 46.0519 23.542 45.9602L45.8613 25.0393V20.5588C45.8613 20.3814 45.9313 20.2107 46.0566 20.0852C46.1821 19.9597 46.3528 19.889 46.5303 19.8889Z" fill="#FF9C00" stroke="#FF9C00" stroke-width="0.4"/>
<path d="M39.1758 12.4523C39.3532 12.4431 39.5272 12.5052 39.6592 12.6242C39.7911 12.7432 39.8707 12.9097 39.8799 13.0871C39.9972 15.3324 41.1465 17.1526 43.3154 18.5012H43.3164C44.3548 19.1359 45.487 19.6027 46.6709 19.8849H46.6699C46.8189 19.9167 46.9525 19.9984 47.0488 20.1164C47.1464 20.2359 47.2002 20.3859 47.2002 20.5402V20.5568C47.2002 20.6482 47.1808 20.7385 47.1445 20.8224C47.1082 20.9065 47.0551 20.9825 46.9883 21.0451L24.458 42.1672L24.4561 42.1691C24.3317 42.2834 24.1688 42.3457 24 42.3449C23.8657 42.345 23.7341 42.3052 23.623 42.2297C23.5121 42.1542 23.4263 42.0468 23.377 41.9221C23.3277 41.7972 23.3173 41.6604 23.3467 41.5295C23.3761 41.3985 23.4441 41.2794 23.542 41.1877L45.2246 20.8644C44.3214 20.557 43.454 20.1523 42.6387 19.6555L42.6377 19.6545C40.1878 18.1439 38.7735 15.9881 38.5586 13.4074L38.542 13.1564C38.5328 12.979 38.594 12.805 38.7129 12.673C38.8318 12.5411 38.9984 12.4616 39.1758 12.4523Z" fill="#FF9C00" stroke="#FF9C00" stroke-width="0.4"/>
<path d="M46.5303 0.799911C46.7078 0.799911 46.8784 0.870685 47.0039 0.996201C47.1294 1.12173 47.2002 1.2923 47.2002 1.46983V6.2462C47.2001 6.42357 47.1293 6.5934 47.0039 6.71886C46.8784 6.84439 46.7078 6.91515 46.5303 6.91515C46.3529 6.91504 46.1831 6.8443 46.0576 6.71886C45.9322 6.59339 45.8614 6.42361 45.8613 6.2462V2.14268H24.2666L1.92871 23.0743C1.83612 23.1634 1.72102 23.2238 1.59668 23.2482L1.46973 23.2599C1.33581 23.2597 1.20447 23.2199 1.09375 23.1446C0.982973 23.0692 0.89698 22.9616 0.847656 22.837C0.798447 22.7125 0.788262 22.5761 0.817383 22.4454C0.84653 22.3146 0.914157 22.1955 1.01172 22.1036L23.542 0.980576C23.6661 0.864424 23.8301 0.799883 24 0.799911H46.5303Z" fill="#FF9C00" stroke="#FF9C00" stroke-width="0.4"/>
<path d="M46.5518 0.80072C46.6396 0.803578 46.7266 0.823066 46.8066 0.859314C46.8866 0.89554 46.9585 0.947611 47.0186 1.01166C47.0787 1.0758 47.1262 1.15109 47.1572 1.23334C47.1882 1.31559 47.2021 1.40331 47.1992 1.49115C47.1964 1.57903 47.1769 1.66593 47.1406 1.74603C47.1044 1.82602 47.0524 1.89789 46.9883 1.95795L24.458 23.08C24.3341 23.1965 24.1701 23.2606 24 23.2597V23.2607C23.8661 23.2605 23.7348 23.2198 23.624 23.1445C23.5132 23.0691 23.4273 22.9615 23.3779 22.8369C23.3288 22.7124 23.3185 22.5759 23.3477 22.4453C23.3768 22.3145 23.4445 22.1953 23.542 22.1035L46.0723 0.981384C46.1364 0.921263 46.2126 0.873702 46.2949 0.842712C46.3769 0.811898 46.4642 0.797926 46.5518 0.80072Z" fill="#FF9C00" stroke="#FF9C00" stroke-width="0.4"/>
<path d="M46.5518 5.57343C46.7291 5.5792 46.8972 5.65493 47.0186 5.78436C47.1399 5.91392 47.205 6.08641 47.1992 6.26385C47.1934 6.44129 47.1178 6.60924 46.9883 6.73065L24.458 27.8527C24.3341 27.9692 24.1701 28.0333 24 28.0324V28.0334C23.8661 28.0332 23.7348 27.9925 23.624 27.9172C23.5132 27.8418 23.4273 27.7342 23.3779 27.6096C23.3288 27.4851 23.3185 27.3486 23.3477 27.218C23.3768 27.0872 23.4445 26.968 23.542 26.8762L46.0723 5.75409C46.2017 5.63277 46.3744 5.56777 46.5518 5.57343Z" fill="#FF9C00" stroke="#FF9C00" stroke-width="0.4"/>
<path d="M5.06586 21.9744L6.01258 22.9211L1.80032 27.1334L0.8536 26.1866L5.06586 21.9744Z" fill="#FF9C00" stroke="#FF9C00" stroke-width="0.4"/>
<path d="M8.93551 21.9752L9.88224 22.9219L4.4429 28.3612L3.49618 27.4145L8.93551 21.9752Z" fill="#FF9C00" stroke="#FF9C00" stroke-width="0.4"/>
<path d="M12.8072 21.9748L13.754 22.9215L7.01712 29.6583L6.0704 28.7116L12.8072 21.9748Z" fill="#FF9C00" stroke="#FF9C00" stroke-width="0.4"/>
<path d="M16.6775 21.9735L17.6243 22.9203L8.76126 31.7833L7.81454 30.8365L16.6775 21.9735Z" fill="#FF9C00" stroke="#FF9C00" stroke-width="0.4"/>
<path d="M20.5482 21.9748L21.4949 22.9215L9.02591 35.3905L8.07919 34.4438L20.5482 21.9748Z" fill="#FF9C00" stroke="#FF9C00" stroke-width="0.4"/>
<path d="M23.6686 22.7826L24.6154 23.7293L1.91751 46.4272L0.970787 45.4805L23.6686 22.7826Z" fill="#FF9C00" stroke="#FF9C00" stroke-width="0.4"/>
<path d="M16.3868 33.9907L17.3335 34.9374L5.29544 46.9755L4.34872 46.0287L16.3868 33.9907Z" fill="#FF9C00" stroke="#FF9C00" stroke-width="0.4"/>
<path d="M17.3298 36.7845L18.2765 37.7312L8.96536 47.0424L8.01864 46.0956L17.3298 36.7845Z" fill="#FF9C00" stroke="#FF9C00" stroke-width="0.4"/>
<path d="M19.1424 38.8351L20.0891 39.7818L12.8931 46.9778L11.9464 46.0311L19.1424 38.8351Z" fill="#FF9C00" stroke="#FF9C00" stroke-width="0.4"/>
<path d="M21.583 40.3157L22.5297 41.2625L16.8003 46.9918L15.8536 46.0451L21.583 40.3157Z" fill="#FF9C00" stroke="#FF9C00" stroke-width="0.4"/>
<path d="M23.7159 41.9959L24.6626 42.9426L20.5933 47.0119L19.6466 46.0652L23.7159 41.9959Z" fill="#FF9C00" stroke="#FF9C00" stroke-width="0.4"/>
</g>
<defs>
<clipPath id="clip0_376_491">
<rect width="48" height="48" fill="white"/>
</clipPath>
</defs>
</svg>
