<svg width="325" height="223" viewBox="0 0 325 223" fill="none" xmlns="http://www.w3.org/2000/svg">
<path d="M138.151 19.288C136.871 19.288 135.687 19.056 134.599 18.592C133.527 18.128 132.583 17.48 131.767 16.648C130.967 15.816 130.343 14.84 129.895 13.72C129.447 12.6 129.223 11.376 129.223 10.048C129.223 8.72 129.439 7.496 129.871 6.376C130.319 5.24 130.943 4.264 131.743 3.448C132.559 2.616 133.511 1.976 134.599 1.528C135.687 1.064 136.871 0.831999 138.151 0.831999C139.431 0.831999 140.575 1.048 141.583 1.48C142.607 1.912 143.471 2.488 144.175 3.208C144.879 3.912 145.383 4.688 145.687 5.536L142.759 6.904C142.423 6.008 141.855 5.272 141.055 4.696C140.255 4.104 139.287 3.808 138.151 3.808C137.031 3.808 136.039 4.072 135.175 4.6C134.327 5.128 133.663 5.856 133.183 6.784C132.719 7.712 132.487 8.8 132.487 10.048C132.487 11.296 132.719 12.392 133.183 13.336C133.663 14.264 134.327 14.992 135.175 15.52C136.039 16.048 137.031 16.312 138.151 16.312C139.287 16.312 140.255 16.024 141.055 15.448C141.855 14.856 142.423 14.112 142.759 13.216L145.687 14.584C145.383 15.432 144.879 16.216 144.175 16.936C143.471 17.64 142.607 18.208 141.583 18.64C140.575 19.072 139.431 19.288 138.151 19.288ZM148.073 19V5.944H151.217V19H148.073ZM148.073 4.48V1.12H151.217V4.48H148.073ZM154.12 19V5.944H157.072V8.848L156.832 8.416C157.136 7.44 157.608 6.76 158.248 6.376C158.904 5.992 159.688 5.8 160.6 5.8H161.368V8.584H160.24C159.344 8.584 158.624 8.864 158.08 9.424C157.536 9.968 157.264 10.736 157.264 11.728V19H154.12ZM169.385 19.288C168.089 19.288 166.921 18.992 165.881 18.4C164.857 17.792 164.049 16.976 163.457 15.952C162.865 14.912 162.569 13.744 162.569 12.448C162.569 11.152 162.865 9.992 163.457 8.968C164.049 7.944 164.857 7.136 165.881 6.544C166.921 5.952 168.089 5.656 169.385 5.656C170.313 5.656 171.177 5.824 171.977 6.16C172.777 6.48 173.465 6.928 174.041 7.504C174.633 8.064 175.057 8.736 175.313 9.52L172.553 10.72C172.313 10.064 171.905 9.536 171.329 9.136C170.769 8.736 170.121 8.536 169.385 8.536C168.697 8.536 168.081 8.704 167.537 9.04C167.009 9.376 166.593 9.84 166.289 10.432C165.985 11.024 165.833 11.704 165.833 12.472C165.833 13.24 165.985 13.92 166.289 14.512C166.593 15.104 167.009 15.568 167.537 15.904C168.081 16.24 168.697 16.408 169.385 16.408C170.137 16.408 170.793 16.208 171.353 15.808C171.913 15.408 172.313 14.872 172.553 14.2L175.313 15.448C175.057 16.184 174.641 16.848 174.065 17.44C173.489 18.016 172.801 18.472 172.001 18.808C171.201 19.128 170.329 19.288 169.385 19.288ZM177.698 19V0.831999H180.842V19H177.698ZM189.937 19.288C188.593 19.288 187.417 18.984 186.409 18.376C185.401 17.768 184.617 16.944 184.057 15.904C183.497 14.864 183.217 13.712 183.217 12.448C183.217 11.136 183.497 9.976 184.057 8.968C184.633 7.944 185.409 7.136 186.385 6.544C187.377 5.952 188.481 5.656 189.697 5.656C190.721 5.656 191.617 5.824 192.385 6.16C193.169 6.496 193.833 6.96 194.377 7.552C194.921 8.144 195.337 8.824 195.625 9.592C195.913 10.344 196.057 11.16 196.057 12.04C196.057 12.264 196.041 12.496 196.009 12.736C195.993 12.976 195.953 13.184 195.889 13.36H185.809V10.96H194.113L192.625 12.088C192.769 11.352 192.729 10.696 192.505 10.12C192.297 9.544 191.945 9.088 191.449 8.752C190.969 8.416 190.385 8.248 189.697 8.248C189.041 8.248 188.457 8.416 187.945 8.752C187.433 9.072 187.041 9.552 186.769 10.192C186.513 10.816 186.417 11.576 186.481 12.472C186.417 13.272 186.521 13.984 186.793 14.608C187.081 15.216 187.497 15.688 188.041 16.024C188.601 16.36 189.241 16.528 189.961 16.528C190.681 16.528 191.289 16.376 191.785 16.072C192.297 15.768 192.697 15.36 192.985 14.848L195.529 16.096C195.273 16.72 194.873 17.272 194.329 17.752C193.785 18.232 193.137 18.608 192.385 18.88C191.649 19.152 190.833 19.288 189.937 19.288Z" fill="#FF9C00"/>
<path fill-rule="evenodd" clip-rule="evenodd" d="M162.501 64.8826C130.484 64.8826 104.529 90.8374 104.529 122.854C104.529 154.871 130.484 180.826 162.501 180.826C194.518 180.826 220.472 154.871 220.472 122.854C220.472 90.8374 194.518 64.8826 162.501 64.8826ZM91.6465 122.854C91.6465 83.7225 123.369 52 162.501 52C201.632 52 233.355 83.7225 233.355 122.854C233.355 161.986 201.632 193.708 162.501 193.708C123.369 193.708 91.6465 161.986 91.6465 122.854Z" fill="#FF9C00"/>
<line x1="161" y1="52.5" x2="285" y2="52.5" stroke="#FF9C00"/>
<path d="M274.634 131V117.59H279.008C280.424 117.59 281.654 117.878 282.698 118.454C283.754 119.018 284.57 119.804 285.146 120.812C285.722 121.808 286.01 122.966 286.01 124.286C286.01 125.594 285.722 126.758 285.146 127.778C284.57 128.786 283.754 129.578 282.698 130.154C281.654 130.718 280.424 131 279.008 131H274.634ZM277.082 128.84H279.062C279.974 128.84 280.76 128.654 281.42 128.282C282.092 127.898 282.614 127.37 282.986 126.698C283.358 126.014 283.544 125.21 283.544 124.286C283.544 123.35 283.358 122.546 282.986 121.874C282.614 121.202 282.092 120.68 281.42 120.308C280.76 119.936 279.974 119.75 279.062 119.75H277.082V128.84Z" fill="#FF9C00"/>
<path d="M280 189L282.887 184L277.113 184L280 189ZM280 135L279.5 135L279.5 184.5L280 184.5L280.5 184.5L280.5 135L280 135Z" fill="#FF9C00"/>
<path d="M280 58L282.887 63L277.113 63L280 58ZM280 112L279.5 112L279.5 62.5L280 62.5L280.5 62.5L280.5 112L280 112Z" fill="#FF9C00"/>
<line x1="163" y1="192.5" x2="287" y2="192.5" stroke="#FF9C00"/>
</svg>
