<svg width="48" height="48" viewBox="0 0 48 48" fill="none" xmlns="http://www.w3.org/2000/svg">
<path d="M4.02832 2.86035C4.83755 2.89625 8.23244 3.05957 11.9951 3.4375C15.7515 3.8148 19.897 4.40766 22.1943 5.30762C23.4061 5.78303 24.3119 6.80128 24.6807 8.09863C24.9096 8.90543 24.9148 9.7492 24.7158 10.498L20.6602 43.0479L20.6562 43.0771L20.6406 43.1025L20.5205 43.0312L20.6406 43.1035L20.6396 43.1055C20.6389 43.1066 20.6379 43.1085 20.6367 43.1104C20.6342 43.1143 20.6305 43.1199 20.626 43.127C20.6167 43.1413 20.6028 43.1619 20.585 43.1875C20.5491 43.2388 20.4957 43.3109 20.4248 43.3965C20.2829 43.5678 20.0696 43.7947 19.7812 44.0166C19.2035 44.4613 18.325 44.8881 17.1289 44.8184C15.8882 44.7459 14.5201 44.3902 13.2842 43.5244L13.2832 43.5234C12.894 43.2462 12.6882 42.7841 12.7432 42.3125V42.3115L13.084 39.4004C8.31032 38.9457 5.90517 38.7154 4.66016 38.5547C4.03452 38.4739 3.69028 38.409 3.4834 38.3398C3.3776 38.3044 3.30088 38.2661 3.23926 38.2188C3.20872 38.1952 3.18306 38.1704 3.16113 38.1465L3.10352 38.0781L2.93066 37.8623L2.90039 37.8242V37.7754L2.89941 37.4971V4.03418C2.78593 3.62821 2.94523 3.28811 3.15137 3.09375L3.17773 3.06836L3.21289 3.05957L3.9873 2.86426L4.00781 2.85938L4.02832 2.86035ZM18.4561 12.5566C18.3631 12.5234 18.2682 12.5328 18.1943 12.5771C18.146 12.6072 18.0902 12.6608 18.0781 12.7637L14.6221 42.1855C15.4187 42.68 16.2708 42.9404 17.0312 42.9639C17.7978 42.9875 18.4562 42.7716 18.8809 42.3359L22.5625 12.7822C21.3176 13.1798 19.7494 13.0358 18.4561 12.5576V12.5566ZM4.75195 36.6953C6.39501 36.886 10.4454 37.288 13.3008 37.5605L16.2373 12.5469C16.3134 11.9027 16.6735 11.337 17.2256 10.999L17.4424 10.8818C17.9591 10.6404 18.5507 10.6164 19.0986 10.8203L19.374 10.9131C20.021 11.1135 20.6893 11.1902 21.2637 11.1504C21.9295 11.1042 22.4318 10.9055 22.6533 10.6094L22.6982 10.5303C22.7189 10.4895 22.7446 10.4346 22.7725 10.3662C22.8264 10.2336 22.8854 10.0603 22.9307 9.86621C23.0218 9.47469 23.0534 9.01396 22.9014 8.61816C22.7305 8.17322 22.4259 7.38899 21.5186 7.0332C19.5983 6.28079 16.1125 5.74545 12.7227 5.37988C9.44724 5.02666 6.28022 4.83311 4.74609 4.75195L4.75195 36.6953Z" fill="#FF9C00" stroke="#FF9C00" stroke-width="0.28"/>
<path d="M44.0039 8.41675C44.6304 8.41689 45.1395 8.92549 45.1396 9.55249V43.7351C45.1396 44.3623 44.6305 44.8717 44.0039 44.8718H37.5635C36.9363 44.8717 36.4277 44.3623 36.4277 43.7351V9.55249C36.4279 8.92544 36.9365 8.41689 37.5635 8.41675H44.0039ZM38.2803 43.0193H43.2871V40.6775H41.8125C41.3012 40.6774 40.8869 40.263 40.8867 39.7517C40.8867 39.2403 41.3011 38.8251 41.8125 38.825H43.2871V36.2537H41.8125C41.3012 36.2535 40.8868 35.8392 40.8867 35.3279C40.8867 34.8165 41.3011 34.4013 41.8125 34.4011H43.2871V31.8298H41.8125C41.3011 31.8297 40.8868 31.4145 40.8867 30.9031C40.8867 30.3917 41.3011 29.9764 41.8125 29.9763H43.2871V27.405H41.8125C41.3011 27.4049 40.8867 26.9897 40.8867 26.4783C40.8867 25.9669 41.3011 25.5516 41.8125 25.5515H43.2871V22.9812H41.8125C41.3011 22.9811 40.8867 22.5659 40.8867 22.0544C40.8868 21.5431 41.3012 21.1288 41.8125 21.1287H43.2871V18.5564H41.8125C41.3011 18.5563 40.8867 18.1411 40.8867 17.6296C40.8869 17.1184 41.3012 16.704 41.8125 16.7039H43.2871V14.1326H41.8125C41.3013 14.1324 40.887 13.718 40.8867 13.2068C40.8867 12.6954 41.3011 12.2802 41.8125 12.28H43.2871V10.2693H38.2803V43.0193Z" fill="#FF9C00" stroke="#FF9C00" stroke-width="0.28"/>
<path d="M30.5273 22.2552C30.8872 22.2555 31.2594 22.404 31.4834 22.7133L31.5693 22.8558L31.5713 22.8588V22.8597C31.5716 22.8603 31.5727 22.8615 31.5732 22.8627C31.5743 22.865 31.576 22.8689 31.5781 22.8734C31.5824 22.8826 31.5885 22.896 31.5967 22.9135C31.6133 22.949 31.6379 23.0013 31.6689 23.0677C31.731 23.2007 31.8194 23.3909 31.9258 23.6195C32.1386 24.0771 32.4223 24.6898 32.7061 25.308C32.9898 25.9262 33.2741 26.5511 33.4873 27.0336C33.5938 27.2745 33.6833 27.4806 33.7461 27.6332C33.7774 27.7093 33.8027 27.7737 33.8203 27.8226C33.8291 27.8469 33.8363 27.8692 33.8418 27.8881C33.8456 27.9013 33.8545 27.9299 33.8545 27.9584V43.6302C33.8545 44.3148 33.2973 44.8715 32.6133 44.8715H28.4414C27.757 44.8715 27.2002 44.3149 27.2002 43.6302V27.9584C27.2002 27.9299 27.2081 27.9013 27.2119 27.8881C27.2174 27.8692 27.2246 27.8469 27.2334 27.8226C27.251 27.7737 27.2763 27.7093 27.3076 27.6332C27.3704 27.4806 27.46 27.2744 27.5664 27.0336C27.7795 26.5513 28.064 25.9268 28.3477 25.309C28.6314 24.691 28.9152 24.0788 29.1279 23.6215C29.2343 23.3929 29.3227 23.2026 29.3848 23.0697C29.4158 23.0033 29.4404 22.9509 29.457 22.9154C29.4652 22.898 29.4713 22.8845 29.4756 22.8754C29.4777 22.8708 29.4794 22.867 29.4805 22.8646C29.481 22.8635 29.4812 22.8623 29.4814 22.8617H29.4824L29.4834 22.8578C29.6886 22.449 30.1161 22.2551 30.5273 22.2552ZM29.0527 43.0189H32.001V41.934H29.0527V43.0189ZM29.0527 40.0804H32.001V28.5707H29.0527V40.0804ZM29.625 26.7181H31.4287L30.5264 24.9144L29.625 26.7181Z" fill="#FF9C00" stroke="#FF9C00" stroke-width="0.28"/>
</svg>
