<svg width="31" height="30" viewBox="0 0 31 30" fill="none" xmlns="http://www.w3.org/2000/svg">
<path d="M15.2257 27C13.5884 27 12.0419 26.6846 10.5861 26.0539C9.13011 25.4232 7.85884 24.5644 6.77232 23.4777C5.68558 22.3912 4.82684 21.1179 4.19611 19.6579C3.56537 18.1979 3.25 16.6453 3.25 15C3.25 13.3337 3.57389 11.7705 4.22168 10.3105C4.86947 8.85053 5.74926 7.58053 6.86105 6.50053C7.97263 5.42032 9.27305 4.56684 10.7623 3.94011C12.2514 3.31337 13.8396 3 15.5269 3C17.1059 3 18.6022 3.26926 20.0159 3.80779C21.4298 4.34632 22.6715 5.09168 23.7409 6.0439C24.8106 6.99611 25.6628 8.12768 26.2976 9.43863C26.9325 10.7494 27.25 12.1707 27.25 13.7027C27.25 15.8891 26.6002 17.5992 25.3006 18.8331C24.0011 20.0672 22.3351 20.6842 20.3026 20.6842H18.0144C17.6548 20.6842 17.3674 20.8016 17.152 21.0363C16.9366 21.2713 16.8289 21.5491 16.8289 21.8697C16.8289 22.26 16.9868 22.6657 17.3026 23.0867C17.6184 23.5078 17.7763 23.9912 17.7763 24.5368C17.7763 25.3707 17.5456 25.9898 17.0841 26.394C16.6224 26.798 16.0029 27 15.2257 27ZM8.30263 15.9474C8.75274 15.9474 9.12842 15.7967 9.42968 15.4955C9.73095 15.1942 9.88158 14.8185 9.88158 14.3684C9.88158 13.9183 9.73095 13.5426 9.42968 13.2414C9.12842 12.9401 8.75274 12.7895 8.30263 12.7895C7.85253 12.7895 7.47684 12.9401 7.17558 13.2414C6.87432 13.5426 6.72368 13.9183 6.72368 14.3684C6.72368 14.8185 6.87432 15.1942 7.17558 15.4955C7.47684 15.7967 7.85253 15.9474 8.30263 15.9474ZM12.0921 10.8947C12.5422 10.8947 12.9179 10.7441 13.2192 10.4428C13.5204 10.1416 13.6711 9.76589 13.6711 9.31579C13.6711 8.86568 13.5204 8.49 13.2192 8.18874C12.9179 7.88747 12.5422 7.73684 12.0921 7.73684C11.642 7.73684 11.2663 7.88747 10.9651 8.18874C10.6638 8.49 10.5132 8.86568 10.5132 9.31579C10.5132 9.76589 10.6638 10.1416 10.9651 10.4428C11.2663 10.7441 11.642 10.8947 12.0921 10.8947ZM18.4079 10.8947C18.858 10.8947 19.2337 10.7441 19.5349 10.4428C19.8362 10.1416 19.9868 9.76589 19.9868 9.31579C19.9868 8.86568 19.8362 8.49 19.5349 8.18874C19.2337 7.88747 18.858 7.73684 18.4079 7.73684C17.9578 7.73684 17.5821 7.88747 17.2808 8.18874C16.9796 8.49 16.8289 8.86568 16.8289 9.31579C16.8289 9.76589 16.9796 10.1416 17.2808 10.4428C17.5821 10.7441 17.9578 10.8947 18.4079 10.8947ZM22.1974 15.9474C22.6475 15.9474 23.0232 15.7967 23.3244 15.4955C23.6257 15.1942 23.7763 14.8185 23.7763 14.3684C23.7763 13.9183 23.6257 13.5426 23.3244 13.2414C23.0232 12.9401 22.6475 12.7895 22.1974 12.7895C21.7473 12.7895 21.3716 12.9401 21.0703 13.2414C20.7691 13.5426 20.6184 13.9183 20.6184 14.3684C20.6184 14.8185 20.7691 15.1942 21.0703 15.4955C21.3716 15.7967 21.7473 15.9474 22.1974 15.9474ZM15.2257 25.1053C15.4314 25.1053 15.5921 25.0546 15.7079 24.9534C15.8237 24.8521 15.8816 24.7133 15.8816 24.5368C15.8816 24.2421 15.7237 23.9109 15.4079 23.5434C15.0921 23.1758 14.9342 22.6001 14.9342 21.8163C14.9342 20.9159 15.2395 20.1863 15.85 19.6276C16.4605 19.0688 17.2079 18.7895 18.0921 18.7895H20.3026C21.7894 18.7895 23.0032 18.3539 23.944 17.4827C24.8848 16.6114 25.3553 15.3514 25.3553 13.7027C25.3553 11.1474 24.3755 9.04053 22.4159 7.38221C20.4565 5.7239 18.1602 4.89474 15.5269 4.89474C12.6396 4.89474 10.1874 5.87368 8.17032 7.83158C6.15326 9.78947 5.14474 12.1789 5.14474 15C5.14474 17.8 6.12895 20.1842 8.09737 22.1526C10.0658 24.1211 12.4419 25.1053 15.2257 25.1053Z" fill="#1E1E1E"/>
</svg>
