<svg width="48" height="48" viewBox="0 0 48 48" fill="none" xmlns="http://www.w3.org/2000/svg">
<path d="M44.3334 12H40.3334C39.2288 12 38.3334 12.8955 38.3334 14V20H36.3334H30.3334V15.8837C31.1096 15.6089 31.6667 14.8704 31.6667 14C31.6667 12.8954 30.7712 12 29.6667 12H29.5694L27.207 7.27534C27.494 6.92923 27.6667 6.48484 27.6667 5.99998C27.6667 4.89542 26.7712 4 25.6667 4H24.3333H15.0001H13.6667C12.5621 4 11.6667 4.89542 11.6667 5.99998C11.6667 6.48475 11.8394 6.92923 12.1263 7.27534L9.76405 12H9.66674C8.56218 12 7.66676 12.8955 7.66676 14C7.66676 14.8704 8.22386 15.6089 9.00011 15.8837V20H2.99998C1.89551 20 1 20.8955 1 22V42C1 43.1046 1.89551 44 2.99998 44C4.10445 44 4.99996 43.1045 4.99996 42V24H9.00002V30C9.00002 31.1046 9.89544 32 11 32H28.3334C29.4379 32 30.3334 31.1045 30.3334 30V24H34.3333V42C34.3333 43.1046 35.2289 44 36.3333 44C37.4378 44 38.3333 43.1045 38.3333 42V24H40.3333C41.4378 24 42.3333 23.1045 42.3333 22V16H44.3332C45.4378 16 46.3332 15.1046 46.3332 14C46.3332 12.8954 45.4379 12 44.3334 12ZM16.2362 7.99996H23.0974L25.0974 11.9999H14.2361L16.2362 7.99996ZM26.3334 28H13V16H26.3333V28H26.3334Z" fill="#FF9C00" stroke="#FFFCF7" stroke-width="1.2"/>
</svg>
