<svg width="48" height="48" viewBox="0 0 48 48" fill="none" xmlns="http://www.w3.org/2000/svg">
<path d="M38.72 14.7111L25.1815 7.30338C24.8195 7.10434 24.4131 6.99998 24 6.99998C23.5869 6.99998 23.1805 7.10434 22.8185 7.30338L9.28 14.7157C8.89337 14.9272 8.57062 15.2387 8.34546 15.6176C8.12031 15.9964 8.001 16.4288 8 16.8695V31.5834C8.001 32.0241 8.12031 32.4565 8.34546 32.8353C8.57062 33.2142 8.89337 33.5257 9.28 33.7372L22.8185 41.148C23.1802 41.3479 23.5867 41.4527 24 41.4527C24.4133 41.4527 24.8198 41.3479 25.1815 41.148L38.72 33.7372C39.1066 33.5257 39.4294 33.2142 39.6545 32.8353C39.8797 32.4565 39.999 32.0241 40 31.5834V16.8695C39.9998 16.428 39.8809 15.9947 39.6557 15.6149C39.4305 15.2352 39.1073 14.923 38.72 14.7111ZM30.1538 27.9188V35.6249L25.2308 38.3203V24.9557L37.5385 18.2172V23.1403L30.7938 26.8326C30.5992 26.9391 30.4369 27.0963 30.3242 27.2875C30.2116 27.4787 30.1527 27.6968 30.1538 27.9188ZM17.2062 26.8418L10.4615 23.1495V18.2265L22.7692 24.9649V38.3295L17.8462 35.6249V27.9188C17.8457 27.6984 17.786 27.4822 17.6734 27.2928C17.5608 27.1034 17.3995 26.9476 17.2062 26.8418ZM17.0985 13.2403L23.4062 16.6942C23.5873 16.7933 23.7904 16.8452 23.9969 16.8452C24.2034 16.8452 24.4066 16.7933 24.5877 16.6942L30.8954 13.2403L36.2 16.1434L24 22.8234L11.7938 16.1403L17.0985 13.2403ZM24 9.45723L28.3385 11.8326L24 14.2095L19.6615 11.8342L24 9.45723ZM10.4615 25.9526L15.3846 28.648V34.2772L10.4615 31.5834V25.9526ZM32.6154 34.2772V28.648L37.5385 25.9526V31.5834L32.6154 34.2772Z" fill="#FF9C00"/>
</svg>
