<svg width="48" height="48" viewBox="0 0 48 48" fill="none" xmlns="http://www.w3.org/2000/svg">
<path d="M42.3813 27.5064C41.8852 27.1248 41.3078 26.8626 40.694 26.7404C40.0802 26.6181 39.4464 26.6391 38.8419 26.8016L31.8699 28.4046C32.0321 27.7194 32.0371 27.0063 31.8845 26.3189C31.732 25.6315 31.4258 24.9875 30.989 24.4352C30.5521 23.8829 29.9959 23.4367 29.3621 23.13C28.7283 22.8232 28.0332 22.6639 27.3291 22.664H18.9873C18.2867 22.6622 17.5928 22.7993 16.9455 23.0673C16.2983 23.3353 15.7105 23.7289 15.2163 24.2254L11.447 27.9963H6.66618C5.95906 27.9963 5.28091 28.2772 4.78091 28.7772C4.2809 29.2772 4 29.9554 4 30.6625L4 37.328C4 38.0351 4.2809 38.7132 4.78091 39.2132C5.28091 39.7132 5.95906 39.9941 6.66618 39.9941H23.9963C24.1053 39.9942 24.2139 39.9808 24.3196 39.9541L34.9843 37.288C35.0523 37.2718 35.1187 37.2495 35.1826 37.2213L41.6598 34.4652L41.7331 34.4318C42.3556 34.1208 42.8887 33.6564 43.2821 33.0823C43.6755 32.5083 43.9163 31.8436 43.9818 31.1508C44.0473 30.458 43.9354 29.7599 43.6565 29.1223C43.3777 28.4848 42.9411 27.9287 42.388 27.5064H42.3813ZM6.66618 30.6625H10.6654V37.328H6.66618V30.6625ZM40.565 32.0306L34.2328 34.7268L23.8297 37.328H13.3316V29.881L17.1026 26.1117C17.3493 25.863 17.6429 25.6659 17.9665 25.5317C18.29 25.3976 18.637 25.329 18.9873 25.3302H27.3291C27.8594 25.3302 28.368 25.5408 28.743 25.9158C29.118 26.2908 29.3287 26.7995 29.3287 27.3298C29.3287 27.8601 29.118 28.3687 28.743 28.7437C28.368 29.1187 27.8594 29.3294 27.3291 29.3294H22.6632C22.3097 29.3294 21.9706 29.4699 21.7206 29.7199C21.4706 29.9699 21.3302 30.309 21.3302 30.6625C21.3302 31.0161 21.4706 31.3552 21.7206 31.6052C21.9706 31.8552 22.3097 31.9956 22.6632 31.9956H27.9956C28.0959 31.9953 28.196 31.9841 28.2939 31.9623L39.4585 29.3944L39.5102 29.3811C39.851 29.2865 40.2148 29.3212 40.5315 29.4787C40.8482 29.6362 41.0955 29.9052 41.2258 30.234C41.3561 30.5629 41.3602 30.9283 41.2373 31.2599C41.1143 31.5916 40.8731 31.8661 40.56 32.0306H40.565ZM31.3283 19.9978C31.6577 19.9982 31.9865 19.9714 32.3115 19.9178C32.677 21.0035 33.3458 21.9619 34.2387 22.6796C35.1316 23.3972 36.2113 23.8442 37.3502 23.9677C38.4892 24.0912 39.6396 23.886 40.6656 23.3763C41.6916 22.8667 42.5502 22.0739 43.1399 21.0918C43.7296 20.1096 44.0257 18.9792 43.9933 17.834C43.9609 16.6889 43.6013 15.577 42.957 14.6298C42.3127 13.6826 41.4106 12.9396 40.3574 12.4888C39.3043 12.038 38.1441 11.8982 37.0139 12.0859C36.662 11.0399 36.0283 10.1112 35.1825 9.40204C34.3368 8.69292 33.3118 8.23086 32.2204 8.06672C31.129 7.90257 30.0135 8.0427 28.9966 8.47169C27.9797 8.90067 27.1008 9.60188 26.4567 10.4982C25.8127 11.3944 25.4283 12.451 25.346 13.5516C25.2637 14.6522 25.4867 15.7542 25.9903 16.7363C26.4939 17.7184 27.2587 18.5425 28.2005 19.1179C29.1423 19.6934 30.2246 19.9978 31.3283 19.9978ZM41.3265 17.9982C41.3265 18.6573 41.131 19.3017 40.7648 19.8497C40.3986 20.3978 39.8781 20.825 39.2691 21.0772C38.6602 21.3295 37.9901 21.3954 37.3436 21.2669C36.6971 21.1383 36.1033 20.8209 35.6372 20.3548C35.1711 19.8887 34.8537 19.2948 34.7251 18.6484C34.5965 18.0019 34.6625 17.3318 34.9147 16.7228C35.167 16.1138 35.5941 15.5933 36.1422 15.2271C36.6903 14.8609 37.3346 14.6654 37.9938 14.6654C38.8777 14.6654 39.7254 15.0166 40.3504 15.6416C40.9754 16.2666 41.3265 17.1143 41.3265 17.9982ZM31.3283 10.6662C32.0554 10.6665 32.7623 10.9046 33.3415 11.3442C33.9206 11.7837 34.3401 12.4006 34.5361 13.1007C33.8533 13.5811 33.2783 14.1988 32.8479 14.9141C32.4175 15.6294 32.1412 16.4267 32.0365 17.255C31.8038 17.3052 31.5664 17.3309 31.3283 17.3316C30.4444 17.3316 29.5967 16.9805 28.9717 16.3555C28.3467 15.7305 27.9956 14.8828 27.9956 13.9989C27.9956 13.115 28.3467 12.2673 28.9717 11.6423C29.5967 11.0173 30.4444 10.6662 31.3283 10.6662Z" fill="#FF9C00"/>
</svg>
