<svg width="48" height="48" viewBox="0 0 48 48" fill="none" xmlns="http://www.w3.org/2000/svg">
<path d="M10.7148 37.864H37.2852C37.454 37.864 37.5926 37.8097 37.7012 37.7012C37.8097 37.5926 37.864 37.454 37.864 37.2852V20.1266L27.8734 10.136H10.7148C10.546 10.136 10.4074 10.1903 10.2988 10.2988C10.1903 10.4074 10.136 10.546 10.136 10.7148V37.2852C10.136 37.454 10.1903 37.5926 10.2988 37.7012C10.4074 37.8097 10.546 37.864 10.7148 37.864ZM10.7148 40C9.97475 40 9.33726 39.7325 8.80235 39.1976C8.26745 38.6627 8 38.0253 8 37.2852V10.7148C8 9.97475 8.26745 9.33725 8.80235 8.80235C9.33726 8.26745 9.97475 8 10.7148 8H28.76L40 19.24V37.2852C40 38.0253 39.7325 38.6627 39.1976 39.1976C38.6627 39.7325 38.0253 40 37.2852 40H10.7148ZM15.0301 32.0979H32.9699V29.9619H15.0301V32.0979ZM15.0301 25.0678H32.9699V22.9322H15.0301V25.0678ZM15.0301 18.0381H26.8776V15.9021H15.0301V18.0381Z" fill="#FF9C00"/>
</svg>
