<svg width="48" height="48" viewBox="0 0 48 48" fill="none" xmlns="http://www.w3.org/2000/svg">
<path d="M13.0534 42.3295C13.0385 42.3441 13.0185 42.3523 12.9976 42.3523C12.9767 42.3523 12.9567 42.3441 12.9418 42.3295C12.1443 41.4443 3 34.2405 3 25.2026C3 17.2757 8.85875 14.5696 13.0534 14.5696C16.9132 14.5696 22.1392 17.6877 22.1392 25.3753C23.2025 34.7722 13.7951 41.4603 13.0534 42.3295Z" stroke="#FF9C00" stroke-width="2.5"/>
<path d="M12.7186 27.4328C14.8107 27.4328 16.5066 25.7369 16.5066 23.6448C16.5066 21.5528 14.8107 19.8568 12.7186 19.8568C10.6266 19.8568 8.93066 21.5528 8.93066 23.6448C8.93066 25.7369 10.6266 27.4328 12.7186 27.4328Z" stroke="#FF9C00" stroke-width="2.5"/>
<path d="M38.2853 26.3482C38.269 26.3633 38.2477 26.3717 38.2255 26.3717C38.2033 26.3717 38.1819 26.3633 38.1656 26.3482C37.4718 25.5507 30.8369 19.8861 30.8369 12.9986C30.8369 6.74643 34.8562 5 38.1656 5C41.204 5 45 6.89795 45 12.9986C45 18.1741 38.9392 25.5826 38.2853 26.3482Z" stroke="#FF9C00" stroke-width="2.5"/>
<path d="M38.0061 15.4229C39.6577 15.4229 40.9966 14.084 40.9966 12.4324C40.9966 10.7808 39.6577 9.44188 38.0061 9.44188C36.3545 9.44188 35.0156 10.7808 35.0156 12.4324C35.0156 14.084 36.3545 15.4229 38.0061 15.4229Z" stroke="#FF9C00" stroke-width="2.5"/>
<path d="M8.25 37.55C12.45 42.275 13.4999 44.375 15.0749 42.8" stroke="#FF9C00" stroke-width="2.5"/>
<path d="M18.4287 43.3344C20.6536 43.4301 23.0939 43.1111 24.7287 41.6756C29.354 37.6165 27.0334 32.7041 30.1116 29.9449C31.2736 28.9256 32.6039 28.116 34.0431 27.5525" stroke="#FF9C00" stroke-width="2.5" stroke-dasharray="7.31 2.74"/>
<path d="M35.1348 27.1696C36.1422 26.8278 37.1775 26.5744 38.2289 26.412" stroke="#FF9C00" stroke-width="2.5"/>
</svg>
