<svg width="22" height="22" viewBox="0 0 22 22" fill="none" xmlns="http://www.w3.org/2000/svg">
<path d="M9.75014 12.1056C10.0643 12.1056 10.3271 11.9979 10.5386 11.7825C10.75 11.5669 10.8558 11.306 10.8558 11C10.8558 10.6858 10.75 10.423 10.5386 10.2116C10.3271 10.0001 10.0643 9.89437 9.75014 9.89437C9.4441 9.89437 9.18326 10.0001 8.96764 10.2116C8.75222 10.423 8.64451 10.6858 8.64451 11C8.64451 11.306 8.75222 11.5669 8.96764 11.7825C9.18326 11.9979 9.4441 12.1056 9.75014 12.1056ZM4.75014 21.625V19.75L12.8751 18.6922V4.32937C12.8751 3.93667 12.7514 3.59125 12.5039 3.29313C12.2562 2.99521 11.9465 2.82542 11.5748 2.78375L5.13482 1.9375V0.0625L11.8414 0.947187C12.686 1.07365 13.3819 1.4526 13.9292 2.08406C14.4765 2.71552 14.7501 3.45354 14.7501 4.29812V20.2741L4.75014 21.625ZM0.663574 21.625V19.75H2.87514V2.32219C2.87514 1.67802 3.09587 1.14031 3.53732 0.709063C3.97899 0.278021 4.51149 0.0625 5.13482 0.0625H16.8654C17.5096 0.0625 18.0473 0.278021 18.4786 0.709063C18.9096 1.14031 19.1251 1.67802 19.1251 2.32219V19.75H21.3367V21.625H0.663574ZM4.75014 19.75H17.2501V2.32219C17.2501 2.2099 17.2141 2.11771 17.142 2.04563C17.0699 1.97354 16.9777 1.9375 16.8654 1.9375H5.13482C5.02253 1.9375 4.93035 1.97354 4.85826 2.04563C4.78618 2.11771 4.75014 2.2099 4.75014 2.32219V19.75Z" fill="#1E1E1E"/>
</svg>
