<svg width="30" height="30" viewBox="0 0 30 30" fill="none" xmlns="http://www.w3.org/2000/svg">
<path d="M15.0161 20.7943L26.6269 9.18347C26.6896 9.12081 26.7209 9.04464 26.7209 8.95496C26.7209 8.86528 26.6896 8.78912 26.6269 8.72646L25.267 7.3666C25.2041 7.30394 25.128 7.27261 25.0385 7.27261C24.9489 7.27261 24.8727 7.30394 24.81 7.3666L13.1992 18.9774L15.0161 20.7943ZM6.24618 23.3232C4.16773 23.2068 2.60709 22.7445 1.56425 21.9365C0.521418 21.1284 0 19.9852 0 18.5068C0 17.0915 0.593976 15.9435 1.78193 15.0628C2.96988 14.1821 4.62102 13.6485 6.73534 13.4622C7.75139 13.3744 8.51342 13.1907 9.02145 12.9112C9.52924 12.6317 9.78313 12.2447 9.78313 11.7501C9.78313 11.0639 9.43956 10.5403 8.75241 10.1793C8.06526 9.81821 6.93869 9.55884 5.37269 9.40114L5.56346 7.31804C7.71179 7.52232 9.30155 7.9855 10.3327 8.70759C11.3639 9.42968 11.8795 10.4439 11.8795 11.7501C11.8795 12.8591 11.4536 13.7384 10.6018 14.3881C9.74971 15.0375 8.51284 15.4277 6.89117 15.5586C5.29302 15.693 4.09436 16.0048 3.29517 16.4939C2.49598 16.9831 2.09639 17.654 2.09639 18.5068C2.09639 19.3759 2.42924 20.0224 3.09496 20.4463C3.76068 20.87 4.83974 21.1302 6.33213 21.2269L6.24618 23.3232ZM15.3438 23.4333L10.5598 18.6493L23.6112 5.61158C24.0233 5.19952 24.5049 4.99571 25.056 5.00013C25.6069 5.00456 26.0884 5.20837 26.5004 5.61158L28.3819 7.49273C28.794 7.90502 29 8.38882 29 8.94413C29 9.49967 28.794 9.98347 28.3819 10.3955L15.3438 23.4333ZM10.6755 24.3983C10.3601 24.4736 10.0824 24.3911 9.84253 24.151C9.60238 23.9108 9.51992 23.6332 9.59516 23.318L10.5598 18.6493L15.3438 23.4333L10.6755 24.3983Z" fill="#1E1E1E"/>
</svg>
