<svg width="48" height="48" viewBox="0 0 48 48" fill="none" xmlns="http://www.w3.org/2000/svg">
<g clip-path="url(#clip0_375_302)">
<path d="M43.0693 8.44641L34.8229 0.20009C34.5559 -0.0666966 34.1233 -0.0666966 33.8564 0.20009L32.1814 1.87516C31.9145 2.14211 31.9145 2.5747 32.1814 2.84157L33.203 3.86308L32.1505 8.47735L23.0283 17.5996L21.3855 15.9567C20.0533 14.6248 17.8859 14.6247 16.5536 15.9567L10.6209 21.8895C10.1423 22.3682 9.93091 23.0514 10.0557 23.7168L11.2967 30.3357C11.4538 31.173 12.0963 31.8156 12.9338 31.9727L19.5526 33.2138C20.2123 33.3372 20.9054 33.123 21.38 32.6484L27.3127 26.7156C28.6447 25.3835 28.6447 23.216 27.3127 21.8839L25.6699 20.2411L32.7178 13.193C32.9847 12.926 35.1603 10.0984 34.8934 9.83157C34.6265 9.56478 32.3997 11.55 29.7121 14.2659L19.1306 24.8473C18.9351 25.0428 18.6174 25.0428 18.422 24.8473C18.2267 24.6519 18.2266 24.334 18.422 24.1388L32.7291 9.83157L33.4378 10.5402L31.7514 12.2265C31.4845 12.4935 31.4845 12.9261 31.7514 13.193C32.0183 13.4597 32.4509 13.4597 32.7178 13.193L34.792 11.1187L39.4063 10.0663L40.4278 11.0878C40.6911 11.3511 41.1308 11.3511 41.3942 11.0878L43.0693 9.41273C43.3361 9.14586 43.3361 8.71328 43.0693 8.44641ZM17.4554 23.1724C16.7273 23.9007 16.7273 25.0857 17.4554 25.8139C17.8196 26.178 18.2978 26.36 18.7761 26.36C19.2544 26.36 19.7327 26.178 20.0968 25.8139L24.7032 21.2076L26.346 22.8504C27.1453 23.6495 27.1453 24.9501 26.346 25.7493L20.4133 31.682C20.2538 31.8417 20.0261 31.912 19.8042 31.8705L13.1854 30.6295C12.9062 30.5771 12.692 30.3629 12.6396 30.0838L11.3987 23.465C11.3572 23.2433 11.4276 23.0155 11.5872 22.856L17.5199 16.9232C18.3194 16.1239 19.62 16.1241 20.4189 16.9232L22.0617 18.5661L17.4554 23.1724ZM34.5929 9.76238L33.507 8.67649L34.3445 5.0044L38.265 8.92489L34.5929 9.76238ZM40.9112 9.63827L33.6312 2.35828L34.3398 1.64962L41.6198 8.92961L40.9112 9.63827Z" fill="#FF9C00"/>
<path d="M32.7178 13.193L25.6699 20.2411L27.3127 21.8839C28.6447 23.216 28.6447 25.3835 27.3127 26.7156L21.38 32.6484C20.9054 33.123 20.2123 33.3372 19.5526 33.2138L12.9338 31.9727C12.0963 31.8156 11.4538 31.173 11.2967 30.3357L10.0557 23.7168C9.93091 23.0514 10.1423 22.3682 10.6209 21.8895L16.5536 15.9567C17.8859 14.6247 20.0533 14.6248 21.3855 15.9567L23.0283 17.5996L32.1505 8.47735L33.203 3.86308L32.1814 2.84157C31.9145 2.5747 31.9145 2.14211 32.1814 1.87516L33.8564 0.20009C34.1233 -0.0666966 34.5559 -0.0666966 34.8229 0.20009L43.0693 8.44641C43.3361 8.71328 43.3361 9.14586 43.0693 9.41274L41.3942 11.0878C41.1308 11.3511 40.6911 11.3511 40.4278 11.0878L39.4063 10.0663L34.792 11.1187L32.7178 13.193ZM32.7178 13.193C32.9847 12.926 35.1603 10.0984 34.8934 9.83157C34.6265 9.56478 32.3997 11.55 29.7121 14.2659L19.1306 24.8473C18.9351 25.0428 18.6174 25.0428 18.422 24.8473C18.2267 24.6519 18.2266 24.334 18.422 24.1388L32.7291 9.83157L33.4378 10.5402L31.7514 12.2265C31.4845 12.4935 31.4845 12.9261 31.7514 13.193C32.0183 13.4597 32.4509 13.4597 32.7178 13.193ZM17.4554 23.1724C16.7273 23.9007 16.7273 25.0857 17.4554 25.8139C17.8196 26.178 18.2978 26.36 18.7761 26.36C19.2544 26.36 19.7327 26.178 20.0968 25.8139L24.7032 21.2076L26.346 22.8504C27.1453 23.6495 27.1453 24.9501 26.346 25.7493L20.4133 31.682C20.2538 31.8417 20.0261 31.912 19.8042 31.8705L13.1854 30.6295C12.9062 30.5771 12.692 30.3629 12.6396 30.0838L11.3987 23.465C11.3572 23.2433 11.4276 23.0155 11.5872 22.856L17.5199 16.9232C18.3194 16.1239 19.62 16.1241 20.4189 16.9232L22.0617 18.5661L17.4554 23.1724ZM34.5929 9.76238L33.507 8.67649L34.3445 5.0044L38.265 8.92489L34.5929 9.76238ZM40.9112 9.63827L33.6312 2.35828L34.3398 1.64962L41.6198 8.92961L40.9112 9.63827Z" stroke="#FF9C00" stroke-width="0.7"/>
<path d="M41.7617 34.7223C41.5225 34.4305 36.8919 32.311 36.6 32.5499C36.3082 32.7892 40.6431 35.4461 40.8823 35.738C42.4848 37.6931 43.4393 40.1208 43.6072 42.6391H19.336C19.7534 36.3155 25.059 31.2807 31.4717 31.2807C34.0277 31.2807 38.8115 34.2553 40.8823 35.738C41.1889 35.9577 41.616 35.8873 41.8357 35.5803C42.0554 35.2736 41.6779 34.627 41.6779 34.627C41.6779 34.627 36.6 30.4499 31.4718 29.9141C27.8802 29.9141 24.4977 31.3067 21.9473 33.8351C21.5601 34.2192 21.1992 34.6228 20.8648 35.0434C19.6998 34.5217 18.4571 34.2571 17.1676 34.2571C14.1233 34.2571 11.4246 35.7656 9.77976 38.0743C9.33773 37.9602 8.88202 37.9015 8.42099 37.9015C5.43176 37.9015 3 40.3333 3 43.3225C3 43.7 3.30589 44.0058 3.6833 44.0058H44.3167C44.6912 44.0058 45.0035 43.6906 45 43.3162C44.9714 40.2436 43.95 37.2749 41.7617 34.7223ZM8.12773 42.639H4.42418C4.74993 40.7275 6.4182 39.268 8.42099 39.268C8.62865 39.268 8.83467 39.2836 9.03768 39.3147C8.53488 40.3305 8.21661 41.4532 8.12773 42.639ZM9.50077 42.639C9.84801 38.7129 13.1529 35.6236 17.1675 35.6236C18.1694 35.6236 19.1374 35.8115 20.0517 36.182C18.8214 38.1093 18.1019 40.3189 17.9664 42.639H9.50077Z" fill="#FF9C00"/>
<path d="M40.8823 35.738C40.6431 35.4461 36.3082 32.7892 36.6 32.5499C36.8919 32.311 41.5225 34.4305 41.7617 34.7223C43.95 37.2749 44.9714 40.2436 45 43.3162C45.0035 43.6906 44.6912 44.0058 44.3167 44.0058H3.6833C3.30589 44.0058 3 43.7 3 43.3225C3 40.3333 5.43176 37.9015 8.42099 37.9015C8.88202 37.9015 9.33773 37.9602 9.77976 38.0743C11.4246 35.7656 14.1233 34.2571 17.1676 34.2571C18.4571 34.2571 19.6998 34.5217 20.8648 35.0434C21.1992 34.6228 21.5601 34.2192 21.9473 33.8351C24.4977 31.3067 27.8802 29.9141 31.4718 29.9141C36.6 30.4499 41.6779 34.627 41.6779 34.627C41.6779 34.627 42.0554 35.2736 41.8357 35.5803C41.616 35.8873 41.1889 35.9577 40.8823 35.738ZM40.8823 35.738C42.4848 37.6931 43.4393 40.1208 43.6072 42.6391H19.336C19.7534 36.3155 25.059 31.2807 31.4717 31.2807C34.0277 31.2807 38.8115 34.2553 40.8823 35.738ZM8.12773 42.639H4.42418C4.74993 40.7275 6.4182 39.268 8.42099 39.268C8.62865 39.268 8.83467 39.2836 9.03768 39.3147C8.53488 40.3305 8.21661 41.4532 8.12773 42.639ZM9.50077 42.639C9.84801 38.7129 13.1529 35.6236 17.1675 35.6236C18.1694 35.6236 19.1374 35.8115 20.0517 36.182C18.8214 38.1093 18.1019 40.3189 17.9664 42.639H9.50077Z" stroke="#FF9C00" stroke-width="0.7"/>
</g>
<defs>
<clipPath id="clip0_375_302">
<rect width="48" height="48" fill="white"/>
</clipPath>
</defs>
</svg>
