<svg width="48" height="48" viewBox="0 0 48 48" fill="none" xmlns="http://www.w3.org/2000/svg">
<path d="M10.7148 40C9.97475 40 9.33726 39.7325 8.80235 39.1976C8.26745 38.6627 8 38.0253 8 37.2852V10.7148C8 9.97475 8.26745 9.33725 8.80235 8.80235C9.33726 8.26745 9.97475 8 10.7148 8H37.2852C38.0253 8 38.6627 8.26745 39.1976 8.80235C39.7325 9.33725 40 9.97475 40 10.7148V37.2852C40 38.0253 39.7325 38.6627 39.1976 39.1976C38.6627 39.7325 38.0253 40 37.2852 40H10.7148ZM33.4696 37.864H37.2852C37.454 37.864 37.5926 37.8097 37.7012 37.7012C37.8097 37.5926 37.864 37.454 37.864 37.2852V33.4696L33.4696 37.864ZM11.4645 37.864H16.0795L21.7266 32.2169H24.4165L18.7694 37.864H23.4391L29.0861 32.2169H31.7755L26.1285 37.864H30.7802L36.4273 32.2169H37.864V10.7148C37.864 10.546 37.8097 10.4074 37.7012 10.2988C37.5926 10.1903 37.454 10.136 37.2852 10.136H10.7148C10.546 10.136 10.4074 10.1903 10.2988 10.2988C10.1903 10.4074 10.136 10.546 10.136 10.7148V36.5031L14.4216 32.2169H17.1115L11.4645 37.864ZM14.9609 27.3049L13.4734 25.8169L21.3431 17.9478L25.4518 22.056L33.0569 14.4508L34.5266 15.9384L25.4518 25.0786L21.3431 20.9699L14.9609 27.3049ZM10.136 37.2852V10.136V37.864V37.2852Z" fill="#FF9C00"/>
</svg>
