<svg width="48" height="48" viewBox="0 0 48 48" fill="none" xmlns="http://www.w3.org/2000/svg">
<g clip-path="url(#clip0_375_272)">
<path d="M23.4853 17.0714C23.6568 17.157 23.8282 17.2428 23.9996 17.2428C24.1711 17.2428 24.3425 17.1571 24.514 17.0714L30.514 12.7857C30.6854 12.6142 30.8568 12.3571 30.8568 12.1C30.8568 11.8428 30.7711 11.5857 30.514 11.4143L24.514 7.1286C24.1711 6.95713 23.7425 6.95713 23.4854 7.1286L17.4854 11.4143C17.314 11.5858 17.1426 11.8428 17.1426 12.1C17.1426 12.3571 17.314 12.6143 17.4854 12.7857L23.4853 17.0714ZM23.9996 8.84282L28.5425 12.1L23.9996 15.357L19.4568 12.0999L23.9996 8.84282Z" fill="#FF9C00" stroke="#FF9C00" stroke-width="0.15"/>
<path d="M25.7148 18.0999C25.7148 18.357 25.8863 18.6142 26.0577 18.7855L32.0577 23.0712C32.2292 23.1569 32.4005 23.2427 32.572 23.2427C32.7435 23.2427 32.9148 23.157 33.0863 23.0712L39.0863 18.7855C39.2578 18.6141 39.4292 18.357 39.4292 18.0999C39.4292 17.8427 39.3435 17.5855 39.0863 17.4142L33.0863 13.1285C32.7435 12.957 32.3148 12.957 32.0578 13.1285L26.0578 17.4142C25.8862 17.5856 25.7148 17.8428 25.7148 18.0999ZM32.572 14.8428L37.1148 18.0999L32.572 21.3571L28.0292 18.0999L32.572 14.8428Z" fill="#FF9C00" stroke="#FF9C00" stroke-width="0.15"/>
<path d="M14.914 23.0714C15.0855 23.157 15.2569 23.2428 15.4284 23.2428C15.5998 23.2428 15.7712 23.1571 15.9427 23.0714L21.9427 18.7857C22.1141 18.6142 22.2855 18.3571 22.2855 18.1C22.2855 17.8428 22.1998 17.5857 21.9427 17.4143L15.9427 13.1286C15.5998 12.9571 15.1712 12.9571 14.9141 13.1286L8.91413 17.4143C8.74266 17.5858 8.57129 17.8428 8.57129 18.1C8.57129 18.3571 8.74276 18.6143 8.91413 18.7857L14.914 23.0714ZM15.4283 14.8428L19.9711 18.1L15.4283 21.3571L10.8854 18.1L15.4283 14.8428Z" fill="#FF9C00" stroke="#FF9C00" stroke-width="0.15"/>
<path d="M24.514 19.1285C24.1711 18.957 23.7425 18.957 23.4854 19.1285L17.4854 23.4142C17.314 23.5856 17.1426 23.8427 17.1426 24.0999C17.1426 24.357 17.314 24.6142 17.4854 24.7855L23.4854 29.0712C23.6569 29.1569 23.8283 29.2427 23.9997 29.2427C24.1712 29.2427 24.3426 29.157 24.514 29.0712L30.514 24.7855C30.6855 24.6141 30.8569 24.357 30.8569 24.0999C30.8569 23.8427 30.7712 23.5855 30.514 23.4142L24.514 19.1285ZM23.9996 27.357L19.4568 24.0999L23.9996 20.8428L28.5425 24.0999L23.9996 27.357Z" fill="#FF9C00" stroke="#FF9C00" stroke-width="0.15"/>
<path d="M30.514 35.4142L24.514 31.1285C24.1711 30.957 23.7425 30.957 23.4854 31.1285L17.4854 35.4142C17.314 35.5856 17.1426 35.8427 17.1426 36.0999C17.1426 36.357 17.314 36.6142 17.4854 36.7855L23.4854 41.0712C23.6569 41.1569 23.8283 41.2427 23.9997 41.2427C24.1712 41.2427 24.3426 41.157 24.514 41.0712L30.514 36.7855C30.6855 36.6141 30.8569 36.357 30.8569 36.0999C30.8569 35.8427 30.7711 35.5856 30.514 35.4142ZM23.9996 39.357L19.4568 36.0999L23.9996 32.8428L28.5425 36.0999L23.9996 39.357Z" fill="#FF9C00" stroke="#FF9C00" stroke-width="0.15"/>
<path d="M47.6575 23.4142L41.6575 19.1285C41.3147 18.957 40.886 18.957 40.629 19.1285L34.629 23.4142C34.4575 23.5856 34.2861 23.8427 34.2861 24.0999C34.2861 24.357 34.4576 24.6142 34.629 24.7855L40.629 29.0712C40.8004 29.1569 40.9718 29.2427 41.1433 29.2427C41.3148 29.2427 41.4861 29.157 41.6576 29.0712L47.6576 24.7855C47.8291 24.6141 48.0004 24.357 48.0004 24.0999C48.0004 23.8427 47.9147 23.5856 47.6575 23.4142ZM41.1432 27.357L36.6004 24.0999L41.1432 20.8427L45.686 24.0999L41.1432 27.357Z" fill="#FF9C00" stroke="#FF9C00" stroke-width="0.15"/>
<path d="M39.0862 29.4142L33.0862 25.1285C32.7434 24.957 32.3147 24.957 32.0577 25.1285L26.0577 29.4142C25.8862 29.5856 25.7148 29.8427 25.7148 30.0999C25.7148 30.357 25.8863 30.6142 26.0577 30.7855L32.0577 35.0712C32.2292 35.1569 32.4005 35.2427 32.572 35.2427C32.7435 35.2427 32.9148 35.157 33.0863 35.0712L39.0863 30.7855C39.2578 30.6141 39.4292 30.357 39.4292 30.0999C39.4292 29.8427 39.3434 29.5856 39.0862 29.4142ZM32.572 33.357L28.0292 30.0999L32.572 26.8427L37.1148 30.0999L32.572 33.357Z" fill="#FF9C00" stroke="#FF9C00" stroke-width="0.15"/>
<path d="M13.7143 24.0999C13.7143 23.8427 13.6286 23.5855 13.3715 23.4142L7.37147 19.1285C7.02863 18.957 6.6 18.957 6.34294 19.1285L0.342937 23.4142C0.171469 23.5856 0 23.8428 0 24.0999C0 24.3569 0.171469 24.6142 0.342844 24.7855L6.34284 29.0712C6.51431 29.1569 6.68569 29.2427 6.85716 29.2427C7.02863 29.2427 7.2 29.157 7.37147 29.0712L13.3715 24.7855C13.5428 24.6142 13.7143 24.357 13.7143 24.0999ZM6.85716 27.357L2.31431 24.0999L6.85716 20.8427L11.4 24.0999L6.85716 27.357Z" fill="#FF9C00" stroke="#FF9C00" stroke-width="0.15"/>
<path d="M22.2855 30.0999C22.2855 29.8427 22.1998 29.5855 21.9427 29.4142L15.9427 25.1285C15.5998 24.957 15.1712 24.957 14.9141 25.1285L8.91413 29.4142C8.74266 29.5856 8.57129 29.8427 8.57129 30.0999C8.57129 30.357 8.74276 30.6142 8.91413 30.7855L14.9141 35.0712C15.0856 35.1569 15.257 35.2427 15.4284 35.2427C15.5999 35.2427 15.7713 35.157 15.9428 35.0712L21.9428 30.7855C22.1141 30.6142 22.2855 30.357 22.2855 30.0999ZM15.4284 33.357L10.8855 30.0999L15.4284 26.8427L19.9712 30.0999L15.4284 33.357Z" fill="#FF9C00" stroke="#FF9C00" stroke-width="0.15"/>
</g>
<defs>
<clipPath id="clip0_375_272">
<rect width="48" height="48" fill="white"/>
</clipPath>
</defs>
</svg>
