<svg width="30" height="30" viewBox="0 0 30 30" fill="none" xmlns="http://www.w3.org/2000/svg">
<path d="M5.36245 25.9803C5.05258 25.9023 4.76748 25.7332 4.50716 25.4731C4.24706 25.2128 4.07801 24.9277 4 24.6178L24.6178 4C24.9542 4.09115 25.2425 4.26021 25.4828 4.50716C25.7233 4.75412 25.8957 5.03922 26 5.36246L5.36245 25.9803ZM4 17.7228V14.9976L14.9976 4H17.7228L4 17.7228ZM4 8.10255V6.33734C4 5.68419 4.22627 5.13134 4.6788 4.6788C5.13134 4.22627 5.68419 4 6.33734 4H8.10256L4 8.10255ZM21.8777 25.9803L25.9803 21.8777V23.6429C25.9803 24.2961 25.754 24.8489 25.3015 25.3015C24.8489 25.754 24.2961 25.9803 23.6429 25.9803H21.8777ZM12.2575 25.9803L25.9803 12.2575V14.9827L14.9827 25.9803H12.2575Z" fill="#1E1E1E"/>
</svg>
