<svg width="401" height="228" viewBox="0 0 401 228" fill="none" xmlns="http://www.w3.org/2000/svg">
<rect width="409" height="228" transform="translate(-8)" fill="#FFFCF7"/>
<path d="M110.802 40V22.12H117.45C118.666 22.12 119.738 22.344 120.666 22.792C121.61 23.224 122.346 23.864 122.874 24.712C123.402 25.544 123.666 26.56 123.666 27.76C123.666 28.992 123.37 30.04 122.778 30.904C122.202 31.768 121.418 32.408 120.426 32.824L124.53 40H120.834L116.442 32.152L118.554 33.4H114.066V40H110.802ZM114.066 30.52H117.498C118.09 30.52 118.602 30.408 119.034 30.184C119.466 29.944 119.802 29.616 120.042 29.2C120.282 28.784 120.402 28.304 120.402 27.76C120.402 27.2 120.282 26.72 120.042 26.32C119.802 25.904 119.466 25.584 119.034 25.36C118.602 25.12 118.09 25 117.498 25H114.066V30.52ZM131.871 40.288C130.527 40.288 129.351 39.984 128.343 39.376C127.335 38.768 126.551 37.944 125.991 36.904C125.431 35.864 125.151 34.712 125.151 33.448C125.151 32.136 125.431 30.976 125.991 29.968C126.567 28.944 127.343 28.136 128.319 27.544C129.311 26.952 130.415 26.656 131.631 26.656C132.655 26.656 133.551 26.824 134.319 27.16C135.103 27.496 135.767 27.96 136.311 28.552C136.855 29.144 137.271 29.824 137.559 30.592C137.847 31.344 137.991 32.16 137.991 33.04C137.991 33.264 137.975 33.496 137.943 33.736C137.927 33.976 137.887 34.184 137.823 34.36H127.743V31.96H136.047L134.559 33.088C134.703 32.352 134.663 31.696 134.439 31.12C134.231 30.544 133.879 30.088 133.383 29.752C132.903 29.416 132.319 29.248 131.631 29.248C130.975 29.248 130.391 29.416 129.879 29.752C129.367 30.072 128.975 30.552 128.703 31.192C128.447 31.816 128.351 32.576 128.415 33.472C128.351 34.272 128.455 34.984 128.727 35.608C129.015 36.216 129.431 36.688 129.975 37.024C130.535 37.36 131.175 37.528 131.895 37.528C132.615 37.528 133.223 37.376 133.719 37.072C134.231 36.768 134.631 36.36 134.919 35.848L137.463 37.096C137.207 37.72 136.807 38.272 136.263 38.752C135.719 39.232 135.071 39.608 134.319 39.88C133.583 40.152 132.767 40.288 131.871 40.288ZM146.662 40.288C145.366 40.288 144.198 39.992 143.158 39.4C142.134 38.792 141.326 37.976 140.734 36.952C140.142 35.912 139.846 34.744 139.846 33.448C139.846 32.152 140.142 30.992 140.734 29.968C141.326 28.944 142.134 28.136 143.158 27.544C144.198 26.952 145.366 26.656 146.662 26.656C147.59 26.656 148.454 26.824 149.254 27.16C150.054 27.48 150.742 27.928 151.318 28.504C151.91 29.064 152.334 29.736 152.59 30.52L149.83 31.72C149.59 31.064 149.182 30.536 148.606 30.136C148.046 29.736 147.398 29.536 146.662 29.536C145.974 29.536 145.358 29.704 144.814 30.04C144.286 30.376 143.87 30.84 143.566 31.432C143.262 32.024 143.11 32.704 143.11 33.472C143.11 34.24 143.262 34.92 143.566 35.512C143.87 36.104 144.286 36.568 144.814 36.904C145.358 37.24 145.974 37.408 146.662 37.408C147.414 37.408 148.07 37.208 148.63 36.808C149.19 36.408 149.59 35.872 149.83 35.2L152.59 36.448C152.334 37.184 151.918 37.848 151.342 38.44C150.766 39.016 150.078 39.472 149.278 39.808C148.478 40.128 147.606 40.288 146.662 40.288ZM160.928 40.144C159.456 40.144 158.312 39.744 157.496 38.944C156.696 38.128 156.296 36.984 156.296 35.512V29.752H154.04V26.944H154.28C154.92 26.944 155.416 26.776 155.768 26.44C156.12 26.104 156.296 25.616 156.296 24.976V23.968H159.44V26.944H162.44V29.752H159.44V35.344C159.44 35.776 159.512 36.144 159.656 36.448C159.816 36.752 160.056 36.984 160.376 37.144C160.712 37.304 161.136 37.384 161.648 37.384C161.76 37.384 161.888 37.376 162.032 37.36C162.192 37.344 162.344 37.328 162.488 37.312V40C162.264 40.032 162.008 40.064 161.72 40.096C161.432 40.128 161.168 40.144 160.928 40.144ZM168.803 40.288C167.891 40.288 167.099 40.136 166.427 39.832C165.755 39.528 165.235 39.096 164.867 38.536C164.499 37.96 164.315 37.296 164.315 36.544C164.315 35.824 164.475 35.184 164.795 34.624C165.115 34.048 165.611 33.568 166.283 33.184C166.955 32.8 167.803 32.528 168.827 32.368L173.099 31.672V34.072L169.427 34.696C168.803 34.808 168.339 35.008 168.035 35.296C167.731 35.584 167.579 35.96 167.579 36.424C167.579 36.872 167.747 37.232 168.083 37.504C168.435 37.76 168.867 37.888 169.379 37.888C170.035 37.888 170.611 37.752 171.107 37.48C171.619 37.192 172.011 36.8 172.283 36.304C172.571 35.808 172.715 35.264 172.715 34.672V31.312C172.715 30.752 172.491 30.288 172.043 29.92C171.611 29.536 171.035 29.344 170.315 29.344C169.643 29.344 169.043 29.528 168.515 29.896C168.003 30.248 167.627 30.72 167.387 31.312L164.819 30.064C165.075 29.376 165.475 28.784 166.019 28.288C166.579 27.776 167.235 27.376 167.987 27.088C168.739 26.8 169.555 26.656 170.435 26.656C171.507 26.656 172.451 26.856 173.267 27.256C174.083 27.64 174.715 28.184 175.163 28.888C175.627 29.576 175.859 30.384 175.859 31.312V40H172.883V37.768L173.555 37.72C173.219 38.28 172.819 38.752 172.355 39.136C171.891 39.504 171.363 39.792 170.771 40C170.179 40.192 169.523 40.288 168.803 40.288ZM178.765 40V26.944H181.717V29.512L181.477 29.056C181.781 28.272 182.277 27.68 182.965 27.28C183.669 26.864 184.485 26.656 185.413 26.656C186.373 26.656 187.221 26.864 187.957 27.28C188.709 27.696 189.293 28.28 189.709 29.032C190.125 29.768 190.333 30.624 190.333 31.6V40H187.189V32.344C187.189 31.768 187.077 31.272 186.853 30.856C186.629 30.44 186.317 30.12 185.917 29.896C185.533 29.656 185.077 29.536 184.549 29.536C184.037 29.536 183.581 29.656 183.181 29.896C182.781 30.12 182.469 30.44 182.245 30.856C182.021 31.272 181.909 31.768 181.909 32.344V40H178.765ZM199.327 45.28C198.351 45.28 197.447 45.12 196.615 44.8C195.783 44.48 195.063 44.032 194.455 43.456C193.863 42.896 193.431 42.232 193.159 41.464L196.087 40.36C196.279 40.968 196.655 41.456 197.215 41.824C197.791 42.208 198.495 42.4 199.327 42.4C199.967 42.4 200.527 42.28 201.007 42.04C201.503 41.8 201.887 41.448 202.159 40.984C202.431 40.536 202.567 39.992 202.567 39.352V36.376L203.167 37.096C202.719 37.88 202.119 38.472 201.367 38.872C200.615 39.272 199.759 39.472 198.799 39.472C197.583 39.472 196.495 39.192 195.535 38.632C194.575 38.072 193.823 37.304 193.279 36.328C192.735 35.352 192.463 34.256 192.463 33.04C192.463 31.808 192.735 30.712 193.279 29.752C193.823 28.792 194.567 28.04 195.511 27.496C196.455 26.936 197.527 26.656 198.727 26.656C199.703 26.656 200.559 26.864 201.295 27.28C202.047 27.68 202.671 28.264 203.167 29.032L202.735 29.824V26.944H205.711V39.352C205.711 40.488 205.431 41.504 204.871 42.4C204.327 43.296 203.575 44 202.615 44.512C201.671 45.024 200.575 45.28 199.327 45.28ZM199.183 36.568C199.855 36.568 200.439 36.424 200.935 36.136C201.447 35.832 201.847 35.416 202.135 34.888C202.423 34.36 202.567 33.752 202.567 33.064C202.567 32.392 202.415 31.792 202.111 31.264C201.823 30.72 201.423 30.296 200.911 29.992C200.415 29.688 199.839 29.536 199.183 29.536C198.527 29.536 197.935 29.688 197.407 29.992C196.879 30.296 196.463 30.72 196.159 31.264C195.871 31.792 195.727 32.392 195.727 33.064C195.727 33.736 195.871 34.336 196.159 34.864C196.463 35.392 196.871 35.808 197.383 36.112C197.911 36.416 198.511 36.568 199.183 36.568ZM208.648 40V21.832H211.792V40H208.648ZM220.886 40.288C219.542 40.288 218.366 39.984 217.358 39.376C216.35 38.768 215.566 37.944 215.006 36.904C214.446 35.864 214.166 34.712 214.166 33.448C214.166 32.136 214.446 30.976 215.006 29.968C215.582 28.944 216.358 28.136 217.334 27.544C218.326 26.952 219.43 26.656 220.646 26.656C221.67 26.656 222.566 26.824 223.334 27.16C224.118 27.496 224.782 27.96 225.326 28.552C225.87 29.144 226.286 29.824 226.574 30.592C226.862 31.344 227.006 32.16 227.006 33.04C227.006 33.264 226.99 33.496 226.958 33.736C226.942 33.976 226.902 34.184 226.838 34.36H216.758V31.96H225.062L223.574 33.088C223.718 32.352 223.678 31.696 223.454 31.12C223.246 30.544 222.894 30.088 222.398 29.752C221.918 29.416 221.334 29.248 220.646 29.248C219.99 29.248 219.406 29.416 218.894 29.752C218.382 30.072 217.99 30.552 217.718 31.192C217.462 31.816 217.366 32.576 217.43 33.472C217.366 34.272 217.47 34.984 217.742 35.608C218.03 36.216 218.446 36.688 218.99 37.024C219.55 37.36 220.19 37.528 220.91 37.528C221.63 37.528 222.238 37.376 222.734 37.072C223.246 36.768 223.646 36.36 223.934 35.848L226.478 37.096C226.222 37.72 225.822 38.272 225.278 38.752C224.734 39.232 224.086 39.608 223.334 39.88C222.598 40.152 221.782 40.288 220.886 40.288Z" fill="#FF9C00"/>
<path d="M84.5 176L84.5 61" stroke="#FF9C00"/>
<path d="M264.822 132.038L261.222 118.628H263.85L266.676 130.058H265.992L268.944 118.628H271.482L274.416 130.058H273.732L276.558 118.628H279.186L275.586 132.038H272.778L269.808 120.914H270.6L267.63 132.038H264.822Z" fill="#FF9C00"/>
<path d="M270.199 172L273.086 167L267.312 167L270.199 172ZM270.199 132.427L269.699 132.427L269.699 167.5L270.199 167.5L270.699 167.5L270.699 132.427L270.199 132.427Z" fill="#FF9C00"/>
<path d="M270.199 76L273.086 81L267.312 81L270.199 76ZM270.199 115.573L269.699 115.573L269.699 80.5L270.199 80.5L270.699 80.5L270.699 115.573L270.199 115.573Z" fill="#FF9C00"/>
<path d="M166.035 66.4414L166.227 53.0328L168.674 53.0678L168.513 64.3167L174.255 64.3988L174.224 66.5586L166.035 66.4414Z" fill="#FF9C00"/>
<path d="M101.875 62.0637L106.859 59.1888L106.89 64.9622L101.875 62.0637ZM156.992 62.1942L156.995 62.6942L106.377 62.5743L106.375 62.0743L106.372 61.5743L156.989 61.6942L156.992 62.1942Z" fill="#FF9C00"/>
<path d="M235.582 61.4642L230.566 58.6439L230.598 64.4173L235.582 61.4642ZM180.469 62.1957L180.471 62.6957L231.085 62.0239L231.082 61.5239L231.079 61.0239L180.466 61.6957L180.469 62.1957Z" fill="#FF9C00"/>
<path d="M85 175.5L274.567 175.5" stroke="#FF9C00"/>
<path fill-rule="evenodd" clip-rule="evenodd" d="M87 84C87 76.8203 92.9695 71 100.333 71H233.667C241.03 71 247 76.8203 247 84V162C247 169.18 241.03 175 233.667 175H100.333C92.9695 175 87 169.18 87 162V84ZM100.333 81.4C98.8606 81.4 97.6667 82.5641 97.6667 84V162C97.6667 163.436 98.8606 164.6 100.333 164.6H233.667C235.139 164.6 236.333 163.436 236.333 162V84C236.333 82.5641 235.139 81.4 233.667 81.4H100.333Z" fill="#FF9C00"/>
</svg>
