<svg width="48" height="48" viewBox="0 0 48 48" fill="none" xmlns="http://www.w3.org/2000/svg">
<path fill-rule="evenodd" clip-rule="evenodd" d="M18.6006 5H20.562C22.9791 4.99997 24.9273 4.99993 26.4597 5.20594C28.0506 5.41983 29.3899 5.8774 30.4539 6.94125C31.5177 8.0051 31.9753 9.34458 32.1892 10.9355C32.3951 12.4678 32.3951 14.416 32.3951 16.8331V31.5114H33.8468C35.9734 31.5114 37.6973 33.2353 37.6973 35.3619V35.4881C37.6973 36.2201 38.2908 36.8136 39.0229 36.8136C39.755 36.8136 40.3485 36.2201 40.3485 35.4881V28.4901L37.7654 27.629C36.1415 27.0877 35.0462 25.568 35.0462 23.8565V19.5812C35.0462 17.385 36.8267 15.6045 39.0229 15.6045H40.334C40.2479 14.5974 39.7809 13.6592 39.0263 12.9826C38.9496 12.9139 38.8621 12.8433 38.6068 12.639L36.4274 10.8955C35.8557 10.4382 35.7631 9.60402 36.2203 9.03234C36.6777 8.46067 37.5119 8.36799 38.0835 8.82532L40.2914 10.5916C40.5077 10.7646 40.6569 10.884 40.7958 11.0085C42.1021 12.1795 42.8907 13.8205 42.9892 15.572C42.9996 15.7583 42.9996 15.9493 42.9996 16.2262V27.5037C43.0001 27.5242 43.0001 27.5447 42.9996 27.5652V35.4881C42.9996 37.6843 41.2191 39.4648 39.0229 39.4648C36.8267 39.4648 35.0462 37.6843 35.0462 35.4881V35.3619C35.0462 34.6994 34.5093 34.1625 33.8468 34.1625H32.3951V40.3485H32.8369C33.569 40.3485 34.1625 40.942 34.1625 41.674C34.1625 42.4061 33.569 42.9996 32.8369 42.9996H6.32557C5.59348 42.9996 5 42.4061 5 41.674C5 40.942 5.59348 40.3485 6.32557 40.3485H6.76742V16.8331C6.76739 14.416 6.76735 12.4678 6.97336 10.9355C7.18726 9.34458 7.64483 8.0051 8.70867 6.94125C9.77252 5.8774 11.112 5.41983 12.7029 5.20594C14.2352 4.99993 16.1834 4.99997 18.6006 5ZM9.41856 40.3485H29.7439V16.9301C29.7439 14.3931 29.7411 12.6237 29.5617 11.2887C29.3873 9.99182 29.0684 9.30504 28.5792 8.81589C28.09 8.32673 27.4033 8.0078 26.1064 7.83345C24.7713 7.65395 23.0019 7.65114 20.465 7.65114H18.6975C16.1605 7.65114 14.3912 7.65395 13.0561 7.83345C11.7592 8.0078 11.0725 8.32673 10.5833 8.81589C10.0942 9.30504 9.77522 9.99182 9.60087 11.2887C9.42137 12.6237 9.41856 14.3931 9.41856 16.9301V40.3485ZM40.3485 25.6955V18.2557H39.0229C38.2908 18.2557 37.6973 18.8492 37.6973 19.5812V23.8565C37.6973 24.427 38.0625 24.9335 38.6037 25.114L40.3485 25.6955ZM16.851 12.0697C16.8773 12.0697 16.9037 12.0697 16.9301 12.0697H22.2324C22.2589 12.0697 22.2852 12.0697 22.3116 12.0697C23.0765 12.0696 23.7778 12.0695 24.3483 12.1462C24.9767 12.2307 25.6407 12.4294 26.1868 12.9756C26.7331 13.5218 26.9318 14.1858 27.0163 14.8141C27.093 15.3847 27.093 16.0861 27.0928 16.851V17.0092C27.093 17.7742 27.093 18.4755 27.0163 19.0461C26.9318 19.6744 26.7331 20.3384 26.1868 20.8845C25.6407 21.4309 24.9767 21.6295 24.3483 21.714C23.7778 21.7907 23.0765 21.7907 22.3114 21.7905C22.2852 21.7905 22.2589 21.7905 22.2324 21.7905H16.9301C16.9037 21.7905 16.8773 21.7905 16.851 21.7905C16.0861 21.7907 15.3847 21.7907 14.8141 21.714C14.1858 21.6295 13.5218 21.4309 12.9756 20.8845C12.4294 20.3384 12.2307 19.6744 12.1462 19.0461C12.0695 18.4755 12.0696 17.7742 12.0697 17.0092C12.0697 16.9829 12.0697 16.9565 12.0697 16.9301C12.0697 16.9037 12.0697 16.8773 12.0697 16.851C12.0696 16.0861 12.0695 15.3847 12.1462 14.8141C12.2307 14.1858 12.4294 13.5218 12.9756 12.9756C13.5218 12.4294 14.1858 12.2307 14.8141 12.1462C15.3847 12.0695 16.086 12.0696 16.851 12.0697ZM14.8503 14.8502C14.8509 14.8497 14.8511 14.8494 14.8503 14.8502V14.8502ZM14.8546 14.8478L14.8503 14.8502L14.8478 14.8546C14.8461 14.858 14.8432 14.8638 14.8395 14.8728C14.8237 14.9113 14.7967 14.9967 14.7737 15.1674C14.7236 15.5398 14.7208 16.0595 14.7208 16.9301C14.7208 17.8008 14.7236 18.3204 14.7737 18.6928C14.7967 18.8635 14.8237 18.949 14.8395 18.9875C14.8432 18.9964 14.8461 19.0022 14.8478 19.0056L14.8503 19.0099L14.8546 19.0124C14.858 19.0142 14.8638 19.017 14.8728 19.0207C14.9113 19.0365 14.9967 19.0636 15.1674 19.0865C15.5398 19.1366 16.0595 19.1394 16.9301 19.1394H22.2324C23.103 19.1394 23.6226 19.1366 23.995 19.0865C24.1658 19.0636 24.2513 19.0365 24.2897 19.0207C24.2987 19.017 24.3045 19.0142 24.3079 19.0124L24.3123 19.0099L24.3146 19.0056C24.3163 19.0022 24.3194 18.9964 24.3229 18.9875C24.3388 18.949 24.3658 18.8635 24.3888 18.6928C24.4388 18.3204 24.4417 17.8008 24.4417 16.9301C24.4417 16.0595 24.4388 15.5398 24.3888 15.1674C24.3658 14.9967 24.3388 14.9113 24.3229 14.8728C24.3194 14.8638 24.3163 14.858 24.3146 14.8546L24.3123 14.8503L24.3079 14.8478C24.3045 14.8461 24.2987 14.8432 24.2897 14.8395C24.2513 14.8237 24.1658 14.7967 23.995 14.7737C23.6226 14.7236 23.103 14.7208 22.2324 14.7208H16.9301C16.0595 14.7208 15.5398 14.7236 15.1674 14.7737C14.9967 14.7967 14.9113 14.8237 14.8728 14.8395C14.8638 14.8432 14.858 14.8461 14.8546 14.8478ZM14.8503 19.0099C14.8496 19.0092 14.8498 19.0094 14.8503 19.0099V19.0099ZM24.3123 19.0099C24.3121 19.01 24.3123 19.01 24.3123 19.0099V19.0099ZM24.3123 19.0099C24.3121 19.01 24.3123 19.01 24.3123 19.0099V19.0099ZM13.8371 32.8369C13.8371 32.1049 14.4306 31.5114 15.1627 31.5114H23.9998C24.7319 31.5114 25.3254 32.1049 25.3254 32.8369C25.3254 33.569 24.7319 34.1625 23.9998 34.1625H15.1627C14.4306 34.1625 13.8371 33.569 13.8371 32.8369Z" fill="#FF9C00"/>
</svg>
