<svg width="48" height="48" viewBox="0 0 48 48" fill="none" xmlns="http://www.w3.org/2000/svg">
<path d="M2 42.2301V38.3418C2 37.2899 2.25556 36.4151 2.76668 35.7173C3.27815 35.0195 4.0061 34.4397 4.95053 33.9777C6.76753 33.0975 8.722 32.3811 10.8139 31.8284C12.9058 31.2754 15.1515 30.9989 17.5507 30.9989C19.95 30.9989 22.1923 31.2754 24.2776 31.8284C26.3629 32.3811 28.3207 33.0975 30.151 33.9777C31.0821 34.4397 31.8068 35.0195 32.3249 35.7173C32.8426 36.4151 33.1015 37.2899 33.1015 38.3418V42.2301H2ZM4.37487 39.8553H30.7266V38.3418C30.7266 37.7647 30.5583 37.297 30.2216 36.9387C29.8846 36.5804 29.4799 36.294 29.0075 36.0794C27.5477 35.4165 25.8766 34.7999 23.994 34.2295C22.111 33.6594 19.9633 33.3743 17.5507 33.3743C15.1382 33.3743 12.9871 33.6594 11.0976 34.2295C9.20834 34.7999 7.54049 35.4165 6.09401 36.0794C5.62162 36.294 5.21708 36.5804 4.88041 36.9387C4.54338 37.297 4.37487 37.7647 4.37487 38.3418V39.8553ZM17.5507 26.8526C15.5031 26.8526 13.8339 26.1963 12.543 24.8838C11.2521 23.5717 10.6067 21.8729 10.6067 19.7876H10.1236C9.8714 19.7876 9.65405 19.6964 9.47158 19.5139C9.28911 19.3315 9.19788 19.1141 9.19788 18.8619C9.19788 18.6229 9.28911 18.4088 9.47158 18.2197C9.65405 18.0307 9.8714 17.9361 10.1236 17.9361H10.6067C10.6203 16.7551 10.8954 15.6835 11.432 14.7213C11.9686 13.7594 12.7147 12.9162 13.6703 12.1915V14.2121C13.6703 14.4082 13.7454 14.5779 13.8958 14.7213C14.0458 14.865 14.2189 14.9369 14.415 14.9369C14.6323 14.9369 14.8074 14.865 14.9404 14.7213C15.073 14.5779 15.1392 14.4082 15.1392 14.2121V11.5112C15.4184 11.4278 15.7889 11.3533 16.2508 11.2877C16.7124 11.2218 17.1565 11.1888 17.5832 11.1888C18.0099 11.1888 18.454 11.2218 18.9156 11.2877C19.3772 11.3533 19.7475 11.4278 20.0266 11.5112V14.2121C20.0266 14.4082 20.0931 14.5779 20.226 14.7213C20.3586 14.865 20.5336 14.9369 20.7509 14.9369C20.947 14.9369 21.1202 14.865 21.2706 14.7213C21.4209 14.5779 21.4961 14.4082 21.4961 14.2121V12.1915C22.4646 12.9162 23.1999 13.7594 23.702 14.7213C24.2037 15.6835 24.4679 16.7551 24.4948 17.9361H24.9778C25.2301 17.9361 25.4474 18.0307 25.6299 18.2197C25.8127 18.4088 25.9041 18.6229 25.9041 18.8619C25.9041 19.1141 25.8127 19.3315 25.6299 19.5139C25.4474 19.6964 25.2301 19.7876 24.9778 19.7876H24.4948C24.4948 21.8729 23.8461 23.5717 22.5485 24.8838C21.251 26.1963 19.5851 26.8526 17.5507 26.8526ZM17.5507 24.4777C18.9491 24.4777 20.0601 24.0551 20.8838 23.2097C21.7079 22.364 22.1199 21.2636 22.1199 19.9085H12.9816C12.9816 21.2636 13.3936 22.364 14.2177 23.2097C15.0414 24.0551 16.1524 24.4777 17.5507 24.4777ZM33.3553 30.3228L33.2909 28.825C33.0335 28.7123 32.757 28.5621 32.4615 28.3744C32.1663 28.1864 31.9141 27.9985 31.7047 27.8108L30.3441 28.5231L29.3539 27.0295L30.6947 26.1158C30.6249 25.9629 30.5865 25.8154 30.5796 25.673C30.5729 25.5307 30.5696 25.3897 30.5696 25.2502C30.5696 25.0974 30.5729 24.9566 30.5796 24.8278C30.5865 24.6991 30.6249 24.5515 30.6947 24.3851L29.3539 23.451L30.3441 21.9574L31.7047 22.6701C31.9489 22.4821 32.2099 22.2975 32.4876 22.1165C32.7657 21.9354 33.0335 21.7817 33.2909 21.6554L33.3553 20.1781H35.2074L35.2916 21.6554C35.5495 21.7817 35.8172 21.9354 36.0949 22.1165C36.3727 22.2975 36.6336 22.4821 36.8778 22.6701L38.2181 21.9574L39.2286 23.451L37.8884 24.3851C37.9582 24.5515 37.9931 24.6991 37.9931 24.8278V25.673C37.9931 25.8154 37.9582 25.9629 37.8884 26.1158L39.2286 27.0295L38.2181 28.5231L36.8778 27.8108C36.6685 27.9985 36.4163 28.1864 36.1211 28.3744C35.8259 28.5621 35.5495 28.7123 35.2916 28.825L35.2074 30.3228H33.3553ZM34.2811 27.2791C34.8529 27.2791 35.3373 27.0839 35.7344 26.6935C36.1317 26.3031 36.3304 25.822 36.3304 25.2502C36.3304 24.6787 36.1317 24.1944 35.7344 23.7974C35.3373 23.4 34.8529 23.2013 34.2811 23.2013C33.7096 23.2013 33.2287 23.4 32.8383 23.7974C32.4475 24.1944 32.2521 24.6787 32.2521 25.2502C32.2521 25.822 32.4475 26.3031 32.8383 26.6935C33.2287 27.0839 33.7096 27.2791 34.2811 27.2791ZM38.9068 18.7651L38.5766 17.1145C38.2008 17.0018 37.7963 16.8099 37.363 16.5388C36.9293 16.2677 36.5904 15.9726 36.3461 15.6533L34.3857 16.4305L33.5003 14.9008L35.1304 13.6767C35.0607 13.489 34.9996 13.2804 34.9473 13.0508C34.8949 12.8213 34.8688 12.5952 34.8688 12.3726C34.8688 12.1633 34.8949 11.9405 34.9473 11.7043C34.9996 11.4681 35.0607 11.256 35.1304 11.0679L33.5003 9.86479L34.3857 8.33458L36.3461 9.09183C36.5904 8.77225 36.9293 8.47169 37.363 8.19014C37.7963 7.90824 38.2008 7.72839 38.5766 7.65058L38.9068 6H40.5935L40.9237 7.65058C41.2994 7.72839 41.704 7.90824 42.1373 8.19014C42.5706 8.47169 42.9162 8.77225 43.174 9.09183L45.114 8.33458L46 9.86479L44.3693 11.0679C44.4391 11.256 44.5001 11.4681 44.5525 11.7043C44.6048 11.9405 44.631 12.1633 44.631 12.3726C44.631 12.5952 44.6048 12.8213 44.5525 13.0508C44.5001 13.2804 44.4391 13.489 44.3693 13.6767L46 14.9008L45.114 16.4305L43.174 15.6533C42.9162 15.9726 42.5706 16.2677 42.1373 16.5388C41.704 16.8099 41.2994 17.0018 40.9237 17.1145L40.5935 18.7651H38.9068ZM39.7603 15.4278C40.6326 15.4278 41.3565 15.14 41.9322 14.5643C42.5078 13.9886 42.7957 13.2581 42.7957 12.3726C42.7957 11.5004 42.5078 10.7764 41.9322 10.2008C41.3565 9.62511 40.6326 9.33727 39.7603 9.33727C38.8745 9.33727 38.1438 9.62511 37.5681 10.2008C36.9924 10.7764 36.7046 11.5004 36.7046 12.3726C36.7046 13.2581 36.9924 13.9886 37.5681 14.5643C38.1438 15.14 38.8745 15.4278 39.7603 15.4278Z" fill="#FF9C00"/>
</svg>
