<svg width="325" height="206" viewBox="0 0 325 206" fill="none" xmlns="http://www.w3.org/2000/svg">
<path d="M238.817 93.9801L242.326 80.6962L245.494 80.7508L251.235 94.1939L248.571 94.148L247.378 91.2616L242.194 91.1724L241.462 94.0256L238.817 93.9801ZM242.717 89.0319L246.496 89.097L243.709 82.4037L244.393 82.4155L242.717 89.0319Z" fill="#FF9C00"/>
<path d="M248.565 128.758L250.99 123.518L245.24 124.038L248.565 128.758ZM245.746 97.5786L245.248 97.6236L247.662 124.321L248.16 124.276L248.658 124.231L246.244 97.5336L245.746 97.5786Z" fill="#FF9C00"/>
<path d="M240.665 47.4963L243.991 52.216L238.241 52.7359L240.665 47.4963ZM243.484 78.6754L242.986 78.7204L240.573 52.023L241.071 51.978L241.568 51.933L243.982 78.6304L243.484 78.6754Z" fill="#FF9C00"/>
<path d="M169.089 164.61L169.113 151.2L174.765 151.233C175.653 151.238 176.409 151.399 177.032 151.714C177.668 152.018 178.153 152.453 178.488 153.019C178.835 153.573 179.008 154.246 179.006 155.038C179.005 155.65 178.836 156.225 178.499 156.763C178.174 157.289 177.651 157.724 176.931 158.068L176.933 156.934C177.592 157.19 178.114 157.505 178.497 157.879C178.88 158.253 179.15 158.669 179.305 159.126C179.46 159.583 179.537 160.063 179.536 160.567C179.534 161.851 179.106 162.857 178.253 163.584C177.411 164.299 176.241 164.652 174.741 164.643L169.089 164.61ZM171.541 162.464L174.997 162.485C175.633 162.488 176.137 162.317 176.51 161.971C176.894 161.614 177.087 161.141 177.088 160.553C177.089 159.965 176.898 159.49 176.515 159.127C176.143 158.765 175.64 158.582 175.004 158.579L171.548 158.558L171.541 162.464ZM171.552 156.416L174.882 156.436C175.386 156.439 175.788 156.297 176.088 156.011C176.389 155.713 176.54 155.33 176.541 154.862C176.541 154.394 176.392 154.021 176.093 153.743C175.793 153.465 175.391 153.325 174.887 153.322L171.557 153.302L171.552 156.416Z" fill="#FF9C00"/>
<path d="M114.86 158.246L119.857 155.37L119.863 161.144L114.86 158.246ZM162.027 158.349L162.028 158.849L119.36 158.756L119.36 158.256L119.359 157.756L162.027 157.849L162.027 158.349Z" fill="#FF9C00"/>
<path d="M229.283 157.58L224.28 154.774L224.287 160.547L229.283 157.58ZM182.117 158.339L182.118 158.839L224.784 158.153L224.784 157.653L224.783 157.153L182.117 157.839L182.117 158.339Z" fill="#FF9C00"/>
<path d="M93.8335 19V1.12H97.0975V8.92H104.705V1.12H107.993V19H104.705V11.8H97.0975V19H93.8335ZM117.363 19.288C116.019 19.288 114.843 18.984 113.835 18.376C112.827 17.768 112.043 16.944 111.483 15.904C110.923 14.864 110.643 13.712 110.643 12.448C110.643 11.136 110.923 9.976 111.483 8.968C112.059 7.944 112.835 7.136 113.811 6.544C114.803 5.952 115.907 5.656 117.123 5.656C118.147 5.656 119.043 5.824 119.811 6.16C120.595 6.496 121.259 6.96 121.803 7.552C122.347 8.144 122.763 8.824 123.051 9.592C123.339 10.344 123.483 11.16 123.483 12.04C123.483 12.264 123.467 12.496 123.435 12.736C123.419 12.976 123.379 13.184 123.315 13.36H113.235V10.96H121.539L120.051 12.088C120.195 11.352 120.155 10.696 119.931 10.12C119.723 9.544 119.371 9.088 118.875 8.752C118.395 8.416 117.811 8.248 117.123 8.248C116.467 8.248 115.883 8.416 115.371 8.752C114.859 9.072 114.467 9.552 114.195 10.192C113.939 10.816 113.843 11.576 113.907 12.472C113.843 13.272 113.947 13.984 114.219 14.608C114.507 15.216 114.923 15.688 115.467 16.024C116.027 16.36 116.667 16.528 117.387 16.528C118.107 16.528 118.715 16.376 119.211 16.072C119.723 15.768 120.123 15.36 120.411 14.848L122.955 16.096C122.699 16.72 122.299 17.272 121.755 17.752C121.211 18.232 120.563 18.608 119.811 18.88C119.075 19.152 118.259 19.288 117.363 19.288ZM125.866 19V5.944H128.818V8.968L128.482 8.464C128.722 7.52 129.202 6.816 129.922 6.352C130.642 5.888 131.49 5.656 132.466 5.656C133.538 5.656 134.482 5.936 135.298 6.496C136.114 7.056 136.642 7.792 136.882 8.704L135.994 8.776C136.394 7.736 136.994 6.96 137.794 6.448C138.594 5.92 139.514 5.656 140.554 5.656C141.482 5.656 142.306 5.864 143.026 6.28C143.762 6.696 144.338 7.28 144.754 8.032C145.17 8.768 145.378 9.624 145.378 10.6V19H142.234V11.344C142.234 10.768 142.13 10.272 141.922 9.856C141.714 9.44 141.426 9.12 141.058 8.896C140.69 8.656 140.242 8.536 139.714 8.536C139.218 8.536 138.778 8.656 138.394 8.896C138.01 9.12 137.714 9.44 137.506 9.856C137.298 10.272 137.194 10.768 137.194 11.344V19H134.05V11.344C134.05 10.768 133.946 10.272 133.738 9.856C133.53 9.44 133.234 9.12 132.85 8.896C132.482 8.656 132.042 8.536 131.53 8.536C131.034 8.536 130.594 8.656 130.21 8.896C129.826 9.12 129.53 9.44 129.322 9.856C129.114 10.272 129.01 10.768 129.01 11.344V19H125.866ZM148.038 19V5.944H151.182V19H148.038ZM148.038 4.48V1.12H151.182V4.48H148.038ZM159.053 19.288C157.661 19.288 156.445 18.96 155.405 18.304C154.381 17.632 153.677 16.728 153.293 15.592L155.645 14.464C155.981 15.2 156.445 15.776 157.037 16.192C157.645 16.608 158.317 16.816 159.053 16.816C159.629 16.816 160.085 16.688 160.421 16.432C160.757 16.176 160.925 15.84 160.925 15.424C160.925 15.168 160.853 14.96 160.709 14.8C160.581 14.624 160.397 14.48 160.157 14.368C159.933 14.24 159.685 14.136 159.413 14.056L157.277 13.456C156.173 13.136 155.333 12.648 154.757 11.992C154.197 11.336 153.917 10.56 153.917 9.664C153.917 8.864 154.117 8.168 154.517 7.576C154.933 6.968 155.501 6.496 156.221 6.16C156.957 5.824 157.797 5.656 158.741 5.656C159.973 5.656 161.061 5.952 162.005 6.544C162.949 7.136 163.621 7.968 164.021 9.04L161.621 10.168C161.397 9.576 161.021 9.104 160.493 8.752C159.965 8.4 159.373 8.224 158.717 8.224C158.189 8.224 157.773 8.344 157.469 8.584C157.165 8.824 157.013 9.136 157.013 9.52C157.013 9.76 157.077 9.968 157.205 10.144C157.333 10.32 157.509 10.464 157.733 10.576C157.973 10.688 158.245 10.792 158.549 10.888L160.637 11.512C161.709 11.832 162.533 12.312 163.109 12.952C163.701 13.592 163.997 14.376 163.997 15.304C163.997 16.088 163.789 16.784 163.373 17.392C162.957 17.984 162.381 18.448 161.645 18.784C160.909 19.12 160.045 19.288 159.053 19.288ZM166.413 23.8V5.944H169.365V8.536L169.077 7.888C169.525 7.184 170.133 6.64 170.901 6.256C171.669 5.856 172.557 5.656 173.565 5.656C174.797 5.656 175.909 5.96 176.901 6.568C177.893 7.176 178.677 7.992 179.253 9.016C179.845 10.04 180.141 11.192 180.141 12.472C180.141 13.736 179.853 14.888 179.277 15.928C178.701 16.968 177.917 17.792 176.925 18.4C175.933 18.992 174.805 19.288 173.541 19.288C172.597 19.288 171.725 19.104 170.925 18.736C170.141 18.352 169.517 17.808 169.053 17.104L169.557 16.48V23.8H166.413ZM173.181 16.408C173.901 16.408 174.541 16.24 175.101 15.904C175.661 15.568 176.093 15.104 176.397 14.512C176.717 13.92 176.877 13.24 176.877 12.472C176.877 11.704 176.717 11.032 176.397 10.456C176.093 9.864 175.661 9.4 175.101 9.064C174.541 8.712 173.901 8.536 173.181 8.536C172.493 8.536 171.869 8.704 171.309 9.04C170.765 9.376 170.333 9.848 170.013 10.456C169.709 11.048 169.557 11.72 169.557 12.472C169.557 13.24 169.709 13.92 170.013 14.512C170.333 15.104 170.765 15.568 171.309 15.904C171.869 16.24 172.493 16.408 173.181 16.408ZM182.538 19V0.832003H185.682V8.512L185.25 8.056C185.554 7.272 186.05 6.68 186.738 6.28C187.442 5.864 188.258 5.656 189.186 5.656C190.146 5.656 190.994 5.864 191.73 6.28C192.482 6.696 193.066 7.28 193.482 8.032C193.898 8.768 194.106 9.624 194.106 10.6V19H190.962V11.344C190.962 10.768 190.85 10.272 190.626 9.856C190.402 9.44 190.09 9.12 189.69 8.896C189.306 8.656 188.85 8.536 188.322 8.536C187.81 8.536 187.354 8.656 186.954 8.896C186.554 9.12 186.242 9.44 186.018 9.856C185.794 10.272 185.682 10.768 185.682 11.344V19H182.538ZM200.725 19.288C199.813 19.288 199.021 19.136 198.349 18.832C197.677 18.528 197.157 18.096 196.789 17.536C196.421 16.96 196.237 16.296 196.237 15.544C196.237 14.824 196.397 14.184 196.717 13.624C197.037 13.048 197.533 12.568 198.205 12.184C198.877 11.8 199.725 11.528 200.749 11.368L205.021 10.672V13.072L201.349 13.696C200.725 13.808 200.261 14.008 199.957 14.296C199.653 14.584 199.501 14.96 199.501 15.424C199.501 15.872 199.669 16.232 200.005 16.504C200.357 16.76 200.789 16.888 201.301 16.888C201.957 16.888 202.533 16.752 203.029 16.48C203.541 16.192 203.933 15.8 204.205 15.304C204.493 14.808 204.637 14.264 204.637 13.672V10.312C204.637 9.752 204.413 9.288 203.965 8.92C203.533 8.536 202.957 8.344 202.237 8.344C201.565 8.344 200.965 8.528 200.437 8.896C199.925 9.248 199.549 9.72 199.309 10.312L196.741 9.064C196.997 8.376 197.397 7.784 197.941 7.288C198.501 6.776 199.157 6.376 199.909 6.088C200.661 5.8 201.477 5.656 202.357 5.656C203.429 5.656 204.373 5.856 205.189 6.256C206.005 6.64 206.637 7.184 207.085 7.888C207.549 8.576 207.781 9.384 207.781 10.312V19H204.805V16.768L205.477 16.72C205.141 17.28 204.741 17.752 204.277 18.136C203.813 18.504 203.285 18.792 202.693 19C202.101 19.192 201.445 19.288 200.725 19.288ZM210.687 19V5.944H213.639V8.848L213.399 8.416C213.703 7.44 214.175 6.76 214.815 6.376C215.471 5.992 216.255 5.8 217.167 5.8H217.935V8.584H216.807C215.911 8.584 215.191 8.864 214.647 9.424C214.103 9.968 213.831 10.736 213.831 11.728V19H210.687ZM225.855 19.288C224.511 19.288 223.335 18.984 222.327 18.376C221.319 17.768 220.535 16.944 219.975 15.904C219.415 14.864 219.135 13.712 219.135 12.448C219.135 11.136 219.415 9.976 219.975 8.968C220.551 7.944 221.327 7.136 222.303 6.544C223.295 5.952 224.399 5.656 225.615 5.656C226.639 5.656 227.535 5.824 228.303 6.16C229.087 6.496 229.751 6.96 230.295 7.552C230.839 8.144 231.255 8.824 231.543 9.592C231.831 10.344 231.975 11.16 231.975 12.04C231.975 12.264 231.959 12.496 231.927 12.736C231.911 12.976 231.871 13.184 231.807 13.36H221.727V10.96H230.031L228.543 12.088C228.687 11.352 228.647 10.696 228.423 10.12C228.215 9.544 227.863 9.088 227.367 8.752C226.887 8.416 226.303 8.248 225.615 8.248C224.959 8.248 224.375 8.416 223.863 8.752C223.351 9.072 222.959 9.552 222.687 10.192C222.431 10.816 222.335 11.576 222.399 12.472C222.335 13.272 222.439 13.984 222.711 14.608C222.999 15.216 223.415 15.688 223.959 16.024C224.519 16.36 225.159 16.528 225.879 16.528C226.599 16.528 227.207 16.376 227.703 16.072C228.215 15.768 228.615 15.36 228.903 14.848L231.447 16.096C231.191 16.72 230.791 17.272 230.247 17.752C229.703 18.232 229.055 18.608 228.303 18.88C227.567 19.152 226.751 19.288 225.855 19.288Z" fill="#FF9C00"/>
<path d="M173.5 48.5996C210.432 48.5996 240.4 82.301 240.4 123.629C240.4 123.659 240.398 123.689 240.397 123.706C240.396 123.726 240.396 123.739 240.396 123.749C240.397 123.757 240.396 123.768 240.397 123.788C240.398 123.805 240.4 123.835 240.4 123.863C240.4 123.917 240.394 123.965 240.391 123.997C240.386 124.036 240.385 124.047 240.384 124.062C240.212 127.797 237.866 131.049 234.051 133.811C230.231 136.576 224.885 138.892 218.589 140.752C205.992 144.473 189.492 146.4 173.5 146.4C157.508 146.4 141.008 144.473 128.411 140.752C122.115 138.892 116.769 136.576 112.949 133.811C109.131 131.046 106.783 127.791 106.615 124.052L106.616 124.051C106.615 124.039 106.613 124.025 106.609 123.996C106.606 123.965 106.6 123.918 106.6 123.863C106.6 123.833 106.602 123.804 106.603 123.786C106.604 123.766 106.604 123.755 106.604 123.744C106.604 123.736 106.604 123.727 106.603 123.705C106.602 123.686 106.6 123.657 106.6 123.625C106.6 82.2969 136.568 48.5996 173.5 48.5996ZM173.5 106.152C156.443 106.152 140.442 108.23 128.452 111.987C123.037 113.684 118.727 115.654 115.766 117.707C112.788 119.771 111.268 121.85 111.207 123.748C111.268 125.646 112.788 127.726 115.766 129.79C118.542 131.715 122.503 133.567 127.449 135.188L128.452 135.51L129.588 135.857C141.443 139.399 156.976 141.345 173.5 141.345C190.557 141.345 206.558 139.267 218.548 135.51C223.965 133.811 228.275 131.841 231.236 129.788C234.213 127.725 235.731 125.646 235.792 123.748C235.731 121.85 234.212 119.771 231.234 117.707C228.273 115.654 223.963 113.684 218.548 111.987C206.558 108.225 190.557 106.152 173.5 106.152ZM173.5 53.6592C141.896 53.6592 115.661 80.2505 111.716 114.634C116.983 110.281 125.914 106.961 136.514 104.697C147.672 102.315 160.746 101.089 173.5 101.089C186.254 101.089 199.328 102.315 210.486 104.697C221.086 106.961 230.016 110.281 235.283 114.634C231.338 80.2506 205.104 53.6592 173.5 53.6592Z" fill="#FF9C00" stroke="#FF9C00" stroke-width="0.8"/>
</svg>
