<svg width="48" height="48" viewBox="0 0 48 48" fill="none" xmlns="http://www.w3.org/2000/svg">
<path d="M23.5 8.59961C36.1278 8.59961 46.4004 18.8722 46.4004 31.5C46.4004 31.5102 46.3997 31.519 46.3994 31.5254C46.3993 31.5278 46.3985 31.5301 46.3984 31.5322L46.3994 31.5459C46.3997 31.5516 46.4004 31.5603 46.4004 31.5703C46.4004 31.6065 46.3962 31.6369 46.3945 31.6494C46.3941 31.6525 46.3938 31.6555 46.3936 31.6572L46.373 31.877C46.218 33.039 45.3594 34.0112 44.125 34.8076C42.7995 35.6627 40.9611 36.3697 38.8193 36.9336C34.5306 38.0627 28.925 38.6445 23.5 38.6445C18.075 38.6445 12.4694 38.0627 8.18066 36.9336C6.03892 36.3697 4.20052 35.6627 2.875 34.8076C1.56122 33.96 0.673774 32.9132 0.606445 31.6504C0.606573 31.6522 0.606324 31.654 0.606445 31.6553C0.606231 31.6537 0.605718 31.6513 0.605469 31.6494L0.599609 31.5703L0.600586 31.5459C0.600833 31.5399 0.601442 31.5335 0.601562 31.5312C0.601192 31.5236 0.599617 31.5119 0.599609 31.499C0.599609 18.8712 10.8722 8.59961 23.5 8.59961ZM23.5 26.5098C18.1035 26.5098 13.0291 27.0601 9.09668 28.0557L8.3252 28.2607C6.50502 28.7689 5.07196 29.3549 4.09863 29.9561C3.61199 30.2567 3.25433 30.5523 3.02051 30.8311C2.79228 31.1033 2.6987 31.3386 2.68848 31.5352C2.69826 31.7321 2.79153 31.9682 3.02051 32.2412C3.25435 32.52 3.61192 32.8156 4.09863 33.1162C5.07197 33.7174 6.50498 34.3034 8.3252 34.8115L9.09668 35.0166C13.029 36.0131 18.1034 36.5615 23.5 36.5615C29.2564 36.5615 34.6465 35.9365 38.6748 34.8115C40.4954 34.3028 41.9282 33.7172 42.9014 33.1162C43.3881 32.8156 43.7457 32.5199 43.9795 32.2412C44.2085 31.9682 44.3017 31.7322 44.3115 31.5352C44.3013 31.3386 44.2077 31.1033 43.9795 30.8311C43.7457 30.5523 43.388 30.2567 42.9014 29.9561C42.0496 29.43 40.846 28.9149 39.3389 28.4541L38.6748 28.2607C34.6466 27.1345 29.2565 26.5098 23.5 26.5098ZM23.5 10.6846C13.1401 10.6846 4.52458 18.2941 2.94629 28.2168C4.8123 27.0368 7.65957 26.1407 10.9395 25.5166C14.7327 24.7948 19.1721 24.4248 23.5 24.4248C27.8279 24.4248 32.2673 24.7948 36.0605 25.5166C39.34 26.1406 42.1867 27.037 44.0527 28.2168C42.4744 18.2941 33.8599 10.6846 23.5 10.6846Z" fill="#FF9C00" stroke="#FF9C00" stroke-width="0.8"/>
</svg>
