<svg width="25" height="20" viewBox="0 0 25 20" fill="none" xmlns="http://www.w3.org/2000/svg">
<path d="M2.63158 19.7368V9.51415H0V7.54046H4.94704C4.3102 7.54046 3.76513 7.3125 3.31184 6.85658C2.85833 6.40066 2.63158 5.85263 2.63158 5.2125V0H9.94441V5.2125C9.94441 5.85263 9.71645 6.40066 9.26053 6.85658C8.80461 7.3125 8.25658 7.54046 7.61645 7.54046H18.4211V3.68158C18.4211 3.20768 18.2601 2.8045 17.9382 2.47204C17.6162 2.1398 17.2172 1.97368 16.7411 1.97368C16.2652 1.97368 15.8633 2.1398 15.5352 2.47204C15.2071 2.8045 15.0431 3.20768 15.0431 3.68158H13.0566C13.0735 2.65263 13.4362 1.7818 14.1447 1.06908C14.8533 0.35636 15.7179 0 16.7385 0C17.7591 0 18.6236 0.358005 19.3319 1.07401C20.0405 1.7898 20.3947 2.65899 20.3947 3.68158V7.54046H25V9.51415H22.3684V19.7368H2.63158ZM4.60526 5.56678H7.97072V1.97368H4.60526V5.56678ZM4.60526 17.7632H11.5132V9.51415H4.60526V17.7632ZM13.4868 17.7632H20.3947V9.51415H13.4868V17.7632Z" fill="#1E1E1E"/>
</svg>
