<svg width="48" height="48" viewBox="0 0 48 48" fill="none" xmlns="http://www.w3.org/2000/svg">
<path d="M13.5407 6.44499H2.44499V14.9614H13.5444L13.5407 6.44499ZM14.8883 5H45.5513C45.7272 5 45.8957 5.03369 46.0492 5.10107C46.2064 5.16846 46.3524 5.26579 46.4722 5.38558L46.4797 5.39307C46.5994 5.51286 46.6968 5.65885 46.7604 5.81608C46.8241 5.96956 46.8615 6.13802 46.8615 6.31396V15.0999C46.8615 15.2759 46.8278 15.4443 46.7604 15.6016C46.693 15.7625 46.5957 15.9048 46.4759 16.0283L46.4609 16.0396C46.3411 16.1556 46.2026 16.2492 46.0492 16.3128C45.8957 16.3765 45.7272 16.4139 45.5513 16.4139H33.2127C33.1566 16.4139 33.1154 16.369 33.1154 16.3166V6.44499H26.8488V9.028L31.4533 14.2651C31.5843 14.4149 31.6442 14.6021 31.633 14.7892C31.6217 14.9727 31.5394 15.1523 31.3896 15.2871L31.3822 15.2909C31.3148 15.347 31.2437 15.3919 31.165 15.4181C31.0864 15.4481 31.0003 15.4631 30.918 15.4631H17.0858C16.8874 15.4631 16.7039 15.3807 16.5767 15.2497C16.4456 15.1187 16.3633 14.939 16.3633 14.7406C16.3633 14.6357 16.3857 14.5384 16.4269 14.4486C16.4681 14.355 16.528 14.2726 16.6029 14.2052L21.3421 9.02425V6.44499H14.9894V16.3053C14.9894 16.3615 14.9445 16.4027 14.8921 16.4027H2.31022C2.13428 16.4027 1.96582 16.369 1.81234 16.3016C1.65137 16.2342 1.50911 16.1369 1.38558 16.0171C1.26579 15.8973 1.16846 15.7513 1.10107 15.5903C1.03369 15.4406 1 15.2721 1 15.0962V6.31022C1 6.13428 1.03369 5.96582 1.10107 5.80859C1.16471 5.64762 1.26204 5.50537 1.38558 5.38558C1.38932 5.37809 1.39307 5.37435 1.39681 5.37435C1.5166 5.2583 1.65511 5.16471 1.80859 5.10107C1.96582 5.03369 2.13428 5 2.31022 5H14.8883ZM2.31022 24.5897H45.6898C45.8657 24.5897 46.0342 24.6271 46.1877 24.6908C46.3486 24.7581 46.4909 24.8555 46.6144 24.9753L46.6182 24.979C46.738 25.0988 46.8315 25.2411 46.8989 25.3983C46.9626 25.5518 47 25.7202 47 25.8999V41.8696C47 42.0456 46.9626 42.214 46.8989 42.3675C46.8353 42.521 46.7417 42.6595 46.6294 42.7793C46.6257 42.783 46.6219 42.7905 46.6182 42.7943L46.6144 42.798C46.4946 42.9178 46.3524 43.0151 46.1914 43.0788C46.0379 43.1424 45.8695 43.1799 45.6935 43.1799H33.939C33.909 43.1873 33.8791 43.1948 33.8454 43.2023C33.8079 43.2098 33.7705 43.2098 33.7331 43.2098C33.6956 43.2098 33.6582 43.2061 33.6208 43.2023C33.5871 43.1986 33.5571 43.1911 33.5272 43.1799H14.4728C14.4429 43.1873 14.4129 43.1948 14.3792 43.2023C14.3418 43.2098 14.3044 43.2098 14.2669 43.2098C14.2295 43.2098 14.1921 43.2061 14.1546 43.2023C14.1209 43.1986 14.091 43.1911 14.061 43.1799H2.31022C2.13428 43.1799 1.96582 43.1462 1.81234 43.0788C1.65885 43.0151 1.5166 42.9216 1.40055 42.8055C1.39307 42.8018 1.38932 42.798 1.38558 42.7905C1.26579 42.6707 1.16846 42.5247 1.10107 42.3675C1.03369 42.214 1 42.0456 1 41.8696V25.8999C1 25.724 1.03369 25.5555 1.10107 25.3983C1.16846 25.2373 1.26579 25.0951 1.38558 24.9715C1.38932 24.9678 1.39307 24.964 1.40055 24.9603C1.52035 24.8442 1.65885 24.7507 1.81234 24.687C1.96582 24.6234 2.13428 24.5897 2.31022 24.5897ZM45.555 26.0347H34.4556V41.7349H45.555V26.0347ZM33.0106 26.0347H14.9894V29.5311H33.0106V26.0347ZM13.5444 26.0347H2.44499V41.7349H13.5444V26.0347ZM14.9894 41.7311H33.0106V30.9798H14.9894V41.7311ZM25.4038 6.44499H22.7871V9.29753C22.7871 9.30501 22.7871 9.3125 22.7834 9.32373C22.7796 9.40234 22.7647 9.4847 22.7347 9.55957C22.7048 9.64193 22.6561 9.7168 22.5962 9.78418L18.7217 14.0181H29.3158L25.5985 9.79167C25.5386 9.72803 25.4862 9.64941 25.4525 9.56706C25.4188 9.4847 25.4001 9.39111 25.4001 9.29753V6.44499H25.4038ZM36.1813 26.8433C36.2861 26.8433 36.3872 26.8657 36.4771 26.9032L36.4808 26.9069C36.5744 26.9443 36.6567 27.0042 36.7279 27.0716C36.799 27.1427 36.8551 27.2288 36.8963 27.3224C36.9338 27.4123 36.9562 27.5133 36.9562 27.6182C36.9562 27.723 36.9338 27.8203 36.8963 27.9139C36.8551 28.0075 36.799 28.0936 36.7279 28.1647L36.7204 28.1685C36.6493 28.2358 36.5669 28.292 36.4733 28.3294C36.3835 28.3669 36.2824 28.3893 36.1776 28.3893C36.0728 28.3893 35.9717 28.3669 35.8818 28.3294C35.792 28.292 35.7096 28.2358 35.6385 28.1685L35.6273 28.161C35.5562 28.0898 35.5 28.0037 35.4626 27.9102L35.4588 27.9064C35.4214 27.8166 35.4027 27.7192 35.4027 27.6144C35.4027 27.5096 35.4251 27.4085 35.4626 27.3187C35.5 27.2251 35.5599 27.139 35.631 27.0679C35.7021 26.9967 35.7882 26.9406 35.8818 26.8994L35.8856 26.8957C35.9829 26.862 36.0802 26.8433 36.1813 26.8433ZM9.26937 7.17122C9.37419 7.17122 9.47526 7.19369 9.5651 7.23112C9.65869 7.26855 9.74479 7.32845 9.81592 7.39958C9.88704 7.4707 9.94694 7.5568 9.98438 7.65039C10.0218 7.74023 10.0443 7.84131 10.0443 7.94613C10.0443 8.05094 10.0218 8.15202 9.98438 8.24186C9.94694 8.33545 9.89079 8.41781 9.82341 8.48519L9.81217 8.49642C9.74105 8.5638 9.65869 8.61996 9.5651 8.65739C9.47526 8.69482 9.37419 8.71729 9.26937 8.71729C9.16455 8.71729 9.06722 8.69482 8.97363 8.65739C8.88005 8.61996 8.79395 8.56006 8.72282 8.48893L8.71533 8.48145C8.64795 8.41032 8.5918 8.32796 8.55436 8.23812C8.51693 8.14827 8.49447 8.0472 8.49447 7.94238C8.49447 7.83757 8.51693 7.73649 8.55436 7.64665L8.55811 7.6429C8.59554 7.54932 8.65544 7.46696 8.72282 7.39583C8.79395 7.32471 8.88005 7.26855 8.97363 7.22738L8.97738 7.22363C9.07096 7.19369 9.16829 7.17122 9.26937 7.17122ZM34.6091 6.44499H34.5604V14.9614H45.4202V6.44499H34.6091ZM38.0531 7.39209C38.1242 7.32471 38.2065 7.26855 38.3001 7.23112C38.39 7.19369 38.4911 7.17122 38.5959 7.17122C38.7007 7.17122 38.8018 7.19369 38.8916 7.23112L38.8953 7.23486C38.9889 7.2723 39.0713 7.33219 39.1424 7.39958C39.2135 7.4707 39.2697 7.5568 39.3109 7.65039C39.3483 7.74023 39.3708 7.84131 39.3708 7.94613C39.3708 8.05094 39.3483 8.15202 39.3109 8.24186L39.3071 8.24561C39.2697 8.33545 39.2135 8.41781 39.1462 8.48519L39.1349 8.49642C39.0638 8.5638 38.9814 8.61996 38.8916 8.65739C38.8018 8.69482 38.7007 8.71729 38.5959 8.71729C38.4911 8.71729 38.39 8.69482 38.3001 8.65739C38.2065 8.61996 38.1204 8.56006 38.0493 8.48893C37.9782 8.41781 37.922 8.33171 37.8809 8.23812C37.8434 8.14827 37.821 8.0472 37.821 7.94238C37.821 7.83757 37.8434 7.74023 37.8809 7.64665C37.922 7.55306 37.9782 7.46696 38.0493 7.39583L38.0531 7.39209ZM11.6502 26.8433C11.755 26.8433 11.8561 26.8657 11.946 26.9032L11.9497 26.9069C12.0433 26.9481 12.1257 27.0042 12.1968 27.0716L12.2005 27.0791C12.2679 27.1502 12.3241 27.2326 12.3615 27.3224L12.3652 27.3262C12.4027 27.416 12.4214 27.5133 12.4214 27.6182C12.4214 27.723 12.3989 27.8203 12.3615 27.9139C12.3203 28.0075 12.2642 28.0936 12.193 28.1647L12.1855 28.1685C12.1144 28.2358 12.0321 28.292 11.9385 28.3294C11.8486 28.3669 11.7476 28.3893 11.6427 28.3893C11.5379 28.3893 11.4368 28.3669 11.347 28.3294C11.2534 28.292 11.1673 28.2321 11.0962 28.161C11.0251 28.0898 10.9689 28.0037 10.9277 27.9102L10.924 27.9064C10.8866 27.8166 10.8678 27.7192 10.8678 27.6144C10.8678 27.5096 10.8903 27.4085 10.9277 27.3187C10.9652 27.2251 11.0251 27.139 11.0962 27.0679C11.1673 26.9967 11.2534 26.9406 11.347 26.8994C11.4481 26.8657 11.5454 26.8433 11.6502 26.8433Z" fill="#FF9C00" stroke="#FF9C00" stroke-width="0.7"/>
</svg>
