<svg width="48" height="48" viewBox="0 0 48 48" fill="none" xmlns="http://www.w3.org/2000/svg">
<g clip-path="url(#clip0_441_731)">
<path d="M17.9902 -0.238281C17.9936 -0.238546 17.9971 -0.240073 18.001 -0.240234C18.0134 -0.240751 18.0287 -0.240278 18.0459 -0.238281L18.1016 -0.225586L18.1084 -0.223633L18.1152 -0.220703L30.3018 4.65332L30.3037 4.6543C30.3915 4.69047 30.4391 4.75554 30.4541 4.77539C30.4558 4.77765 30.4569 4.77974 30.458 4.78125C30.5334 4.83477 30.6012 4.89489 30.6611 4.98535C30.7222 5.07212 30.7585 5.15762 30.7803 5.25488C30.7813 5.25651 30.782 5.25886 30.7832 5.26074C30.7981 5.28468 30.8417 5.35387 30.8418 5.45117V17.0898L42.7549 22.6416C42.8402 22.6817 42.8851 22.7482 42.9004 22.7705C42.9015 22.7721 42.9024 22.774 42.9033 22.7754C42.9054 22.7768 42.9076 22.7785 42.9102 22.7803C42.9173 22.7851 42.9361 22.7967 42.9502 22.8066C42.9737 22.8232 43.0014 22.848 43.0312 22.8799C43.0535 22.8942 43.0844 22.9188 43.1113 22.957H43.1133C43.1154 22.96 43.1162 22.9638 43.1182 22.9668C43.1207 22.9707 43.1246 22.9743 43.127 22.9785L43.125 22.9795C43.147 23.0172 43.1581 23.0526 43.1621 23.0801C43.1632 23.0878 43.1626 23.0957 43.1631 23.1025C43.1891 23.1742 43.1981 23.2447 43.2021 23.2822C43.2031 23.284 43.205 23.286 43.2061 23.2881C43.2181 23.3118 43.2549 23.3829 43.25 23.4766L43.249 23.4795L42.4258 35.6367L42.4238 35.6357C42.4229 35.6517 42.4221 35.6671 42.4189 35.6807C42.4164 35.6915 42.4113 35.7005 42.4082 35.709C42.3939 35.7725 42.3683 35.8206 42.3516 35.8486C42.3464 35.8572 42.3417 35.866 42.3379 35.8721C42.3339 35.8785 42.3307 35.8825 42.3281 35.8867C42.3241 35.8934 42.3227 35.8967 42.3223 35.8975L42.3213 35.8994C42.3117 35.9209 42.2828 35.9942 42.2598 36.04C42.2362 36.0867 42.2025 36.141 42.1523 36.1924C42.1398 36.2118 42.1195 36.2353 42.0898 36.2578L42.0918 36.2598L30.5049 45.1318L30.5029 45.1328C30.4861 45.1454 30.4687 45.1556 30.4521 45.1631C30.4419 45.1677 30.4318 45.17 30.4229 45.1729C30.2995 45.2479 30.1501 45.3076 29.9824 45.3076C29.8542 45.3076 29.7227 45.2803 29.5977 45.2178L5.22461 33.0312L5.22363 33.0303C4.89733 32.8653 4.79206 32.5453 4.79785 32.2588C4.77988 32.2264 4.75008 32.1669 4.75 32.0889V7.88867C4.75 7.83875 4.76285 7.79805 4.77539 7.76953C4.77785 7.76395 4.78165 7.75888 4.78418 7.75391C4.78462 7.74812 4.78454 7.74167 4.78516 7.73535C4.78677 7.71892 4.79008 7.69911 4.79492 7.67676C4.79489 7.67554 4.79396 7.67409 4.79395 7.67285C4.79367 7.64387 4.79975 7.60896 4.81445 7.57129H4.8125C4.81406 7.56716 4.81667 7.56353 4.81836 7.55957C4.82 7.55588 4.82041 7.55157 4.82227 7.54785H4.82422C4.86153 7.46953 4.92014 7.4262 4.93652 7.41406C4.93788 7.41305 4.93919 7.41204 4.94043 7.41113C4.96823 7.3676 5.00488 7.31509 5.05957 7.26465C5.07434 7.23884 5.10794 7.18915 5.16895 7.15332V7.15234L17.3555 -0.15918L17.3564 -0.15625C17.3916 -0.177883 17.4247 -0.191621 17.4531 -0.196289C17.4596 -0.197339 17.4661 -0.196723 17.4717 -0.197266C17.5246 -0.216092 17.5722 -0.226304 17.6104 -0.229492C17.6356 -0.231597 17.6608 -0.231809 17.6777 -0.232422C17.6969 -0.233116 17.7101 -0.23427 17.7217 -0.235352L17.7295 -0.236328V-0.235352C17.742 -0.236088 17.7561 -0.23792 17.7754 -0.240234C17.7926 -0.242294 17.8183 -0.246027 17.8438 -0.248047C17.8834 -0.251185 17.9333 -0.248147 17.9902 -0.238281ZM30.3701 45.1855C30.3683 45.1858 30.3665 45.1865 30.3662 45.1865H30.3672C30.3682 45.1864 30.3704 45.186 30.373 45.1855L30.375 45.1846C30.3731 45.1848 30.3714 45.1854 30.3701 45.1855ZM6.46875 31.7295L29.123 43.0566V31.5752L17.8008 25.9141L17.7646 25.8965L17.7441 25.876C17.7182 25.8573 17.6975 25.8393 17.6836 25.8262C17.6548 25.799 17.6543 25.7981 17.6426 25.7881V25.7871L17.5586 25.709C17.56 25.7103 17.5581 25.7083 17.5479 25.7002C17.5358 25.6906 17.4983 25.6622 17.4668 25.6172C17.4218 25.5529 17.4144 25.4869 17.4131 25.4541C17.3923 25.3998 17.3792 25.3508 17.3711 25.3057C17.3565 25.2797 17.3262 25.221 17.3262 25.1445L17.3193 13.5654L6.46875 9.16309V31.7295ZM30.8418 31.5244V42.708L40.7363 35.1318L41.4209 25.0234L30.8418 31.5244ZM19.9277 25.0547L29.9404 30.0596L40.5781 23.5244L30.0469 18.6162L19.9277 25.0547ZM19.0381 13.458L19.0439 23.5811L29.123 17.166V6.98535L19.0381 13.458ZM43.165 23.1387C43.165 23.1358 43.1653 23.1318 43.165 23.1279C43.165 23.127 43.1642 23.1261 43.1641 23.125C43.1641 23.1319 43.1651 23.1367 43.165 23.1387ZM43.0586 22.9111L43.0605 22.9102C43.0573 22.9063 43.053 22.9037 43.0498 22.9004C43.0527 22.9039 43.0557 22.9074 43.0586 22.9111ZM43.0137 22.8682L43.0117 22.8672C43.0091 22.8655 43.0066 22.8643 43.0049 22.8633C43.0066 22.8642 43.0098 22.8661 43.0137 22.8682ZM7.52734 7.7373L18.0889 12.0244L28.0762 5.6123L17.8721 1.53223L7.52734 7.7373ZM4.79883 7.71582C4.7991 7.7187 4.79949 7.72131 4.7998 7.72363H4.80078C4.80023 7.72064 4.79945 7.71708 4.79883 7.71289V7.71582Z" fill="#FF9C00" stroke="#FF9C00" stroke-width="0.5"/>
</g>
<defs>
<clipPath id="clip0_441_731">
<rect width="48" height="48" fill="white"/>
</clipPath>
</defs>
</svg>
