<svg width="26" height="13" viewBox="0 0 26 13" fill="none" xmlns="http://www.w3.org/2000/svg">
<path d="M19.7827 12.4346C18.2395 12.4346 16.8984 11.9473 15.7594 10.9727C14.6203 9.99814 13.9164 8.747 13.6476 7.21932H5.9758C5.7685 7.8205 5.4059 8.3176 4.88798 8.71059C4.36985 9.10382 3.76822 9.30043 3.08309 9.30043C2.22495 9.30043 1.49651 9.00106 0.897773 8.40232C0.299258 7.8038 0 7.07548 0 6.21734C0 5.3592 0.299258 4.63087 0.897773 4.03236C1.49651 3.43362 2.22495 3.13425 3.08309 3.13425C3.76822 3.13425 4.36985 3.33086 4.88798 3.72408C5.4059 4.11708 5.7685 4.61417 5.9758 5.21536H13.6476C13.9164 3.68768 14.6203 2.43654 15.7594 1.46195C16.8984 0.487357 18.2395 6.10352e-05 19.7827 6.10352e-05C21.5023 6.10352e-05 22.9685 0.610601 24.1811 1.83168C25.3937 3.05298 26 4.52344 26 6.24305C26 7.94553 25.3937 9.40307 24.1811 10.6157C22.9685 11.8283 21.5023 12.4346 19.7827 12.4346ZM19.7827 10.4307C20.9475 10.4307 21.9409 10.0196 22.7629 9.19756C23.585 8.37549 23.996 7.38208 23.996 6.21734C23.996 5.05259 23.585 4.05919 22.7629 3.23712C21.9409 2.41505 20.9475 2.00402 19.7827 2.00402C18.618 2.00402 17.6246 2.41505 16.8025 3.23712C15.9802 4.05919 15.5691 5.05259 15.5691 6.21734C15.5691 7.38208 15.9802 8.37549 16.8025 9.19756C17.6246 10.0196 18.618 10.4307 19.7827 10.4307Z" fill="#1E1E1E"/>
</svg>
