<svg width="24" height="16" viewBox="0 0 24 16" fill="none" xmlns="http://www.w3.org/2000/svg">
<path d="M0 15.7895V8.8421C0 8.37095 0.11179 7.91389 0.335369 7.47095C0.558737 7.028 0.868 6.664 1.26316 6.37895V3.15789C1.26316 2.27537 1.56884 1.52842 2.18021 0.917052C2.79158 0.305683 3.53853 0 4.42105 0H9.78947C10.2495 0 10.6616 0.0894737 11.0258 0.268421C11.3902 0.447368 11.7149 0.694737 12 1.01053C12.2851 0.694737 12.6098 0.447368 12.9742 0.268421C13.3384 0.0894737 13.7505 0 14.2105 0H19.5789C20.4615 0 21.2084 0.305683 21.8198 0.917052C22.4312 1.52842 22.7368 2.27537 22.7368 3.15789V6.37895C23.132 6.664 23.4413 7.028 23.6646 7.47095C23.8882 7.91389 24 8.37095 24 8.8421V15.7895H22.1053V13.2632H1.89474V15.7895H0ZM12.9474 5.68421H20.8421V3.15789C20.8421 2.8 20.7211 2.5 20.4789 2.25789C20.2368 2.01579 19.9368 1.89474 19.5789 1.89474H14.2105C13.8526 1.89474 13.5526 2.01579 13.3105 2.25789C13.0684 2.5 12.9474 2.8 12.9474 3.15789V5.68421ZM3.15789 5.68421H11.0526V3.15789C11.0526 2.8 10.9316 2.5 10.6895 2.25789C10.4474 2.01579 10.1474 1.89474 9.78947 1.89474H4.42105C4.06316 1.89474 3.76316 2.01579 3.52105 2.25789C3.27895 2.5 3.15789 2.8 3.15789 3.15789V5.68421ZM1.89474 11.3684H22.1053V8.8421C22.1053 8.48421 21.9842 8.18421 21.7421 7.94211C21.5 7.7 21.2 7.57895 20.8421 7.57895H3.15789C2.8 7.57895 2.5 7.7 2.25789 7.94211C2.01579 8.18421 1.89474 8.48421 1.89474 8.8421V11.3684Z" fill="#1E1E1E"/>
</svg>
