<svg width="325" height="200" viewBox="0 0 325 200" fill="none" xmlns="http://www.w3.org/2000/svg">
<path d="M155.754 36.7539C155.843 36.7477 155.946 36.7486 156.057 36.7734C156.066 36.7722 156.08 36.77 156.094 36.7695C156.107 36.7691 156.122 36.7688 156.14 36.7705L156.197 36.7822L156.21 36.7861L183.469 46.3066L183.471 46.3076C183.581 46.3473 183.645 46.4194 183.678 46.457L183.709 46.4932L183.71 46.4941C183.877 46.5932 184.014 46.6975 184.137 46.8613C184.263 47.0178 184.333 47.1703 184.374 47.3584H184.375C184.371 47.345 184.367 47.3395 184.371 47.3457C184.378 47.3559 184.381 47.3604 184.399 47.3867C184.427 47.425 184.492 47.5167 184.492 47.6465V70.5215L211.307 81.4316H211.308C211.416 81.4763 211.478 81.5525 211.511 81.5938C211.55 81.6444 211.547 81.639 211.545 81.6377L211.547 81.6387C211.595 81.6726 211.623 81.685 211.695 81.7295C211.746 81.7609 211.805 81.8034 211.862 81.8633C211.886 81.8739 211.941 81.9032 211.987 81.9619H211.989C211.991 81.9645 211.992 81.9681 211.994 81.9707C211.997 81.9751 212.002 81.9787 212.005 81.9834L212.002 81.9844C212.032 82.0277 212.049 82.07 212.055 82.1064C212.058 82.1289 212.057 82.1499 212.057 82.165C212.124 82.3086 212.137 82.4537 212.149 82.5332L212.176 82.5781C212.199 82.6181 212.255 82.7137 212.247 82.8398V82.8438L210.404 106.588L210.402 106.587C210.399 106.631 210.388 106.666 210.377 106.688C210.376 106.69 210.375 106.691 210.374 106.692C210.351 106.786 210.307 106.858 210.274 106.906C210.227 106.976 210.21 106.993 210.193 107.027L210.192 107.029C210.131 107.15 210.044 107.381 209.851 107.546C209.848 107.55 209.847 107.556 209.844 107.561C209.828 107.584 209.802 107.611 209.765 107.636L209.766 107.638L183.847 124.965L183.845 124.967C183.808 124.991 183.772 125.002 183.746 125.008C183.742 125.009 183.737 125.009 183.733 125.01C183.484 125.149 183.193 125.25 182.88 125.25C182.642 125.25 182.4 125.206 182.169 125.105L127.65 101.305L127.649 101.304C127.04 101.035 126.825 100.486 126.855 99.9541C126.852 99.9485 126.845 99.9417 126.838 99.9307C126.811 99.892 126.748 99.799 126.748 99.6709V52.4072L126.76 52.3223C126.767 52.2973 126.775 52.2754 126.784 52.2578C126.796 52.235 126.81 52.216 126.819 52.2031C126.82 52.1991 126.82 52.1949 126.82 52.1904C126.822 52.1742 126.824 52.15 126.826 52.127C126.83 52.0933 126.838 52.0547 126.851 52.0117C126.85 52.0032 126.847 51.9941 126.847 51.9844C126.846 51.9476 126.855 51.9053 126.875 51.8613H126.872C126.874 51.8566 126.878 51.8522 126.88 51.8477C126.882 51.8438 126.883 51.8388 126.885 51.835L126.887 51.8359C126.938 51.7379 127.021 51.6839 127.053 51.6631C127.079 51.6461 127.087 51.6411 127.099 51.6328C127.1 51.6318 127.101 51.6305 127.102 51.6299C127.173 51.5298 127.254 51.4233 127.386 51.3262L127.387 51.3252C127.388 51.3225 127.391 51.3192 127.394 51.3154C127.41 51.2883 127.455 51.2143 127.547 51.168V51.167L154.807 36.8867V36.8887C154.845 36.8676 154.88 36.8557 154.909 36.8516C154.926 36.8492 154.941 36.8508 154.953 36.8506C155.054 36.811 155.151 36.7952 155.234 36.7891C155.281 36.7857 155.329 36.7845 155.369 36.7832C155.412 36.7819 155.449 36.7803 155.485 36.7773H155.493C155.532 36.7753 155.572 36.7712 155.615 36.7666C155.657 36.7622 155.706 36.7573 155.754 36.7539ZM129.974 99.1064L181.267 121.5V98.5303L155.782 87.4043L155.747 87.3896L155.719 87.3652C155.669 87.336 155.626 87.3053 155.594 87.2783C155.547 87.2394 155.527 87.221 155.497 87.1982L155.405 87.1299C155.376 87.1062 155.347 87.08 155.315 87.0498C155.309 87.0441 155.302 87.0402 155.27 87.0176C155.244 87 155.192 86.9636 155.147 86.9082C155.072 86.8145 155.071 86.714 155.071 86.6797C155.015 86.5657 154.989 86.4614 154.969 86.3574C154.966 86.3533 154.964 86.3488 154.959 86.3408C154.942 86.3158 154.88 86.2294 154.88 86.1094L154.863 63.3408L129.974 54.5264V99.1064ZM184.492 98.4443V120.933L207.237 105.729L208.812 85.3984L184.492 98.4443ZM159.82 85.958L182.803 95.9893L207.174 82.917L183 73.0811L159.82 85.958ZM158.089 63.1631L158.104 83.5186L181.267 70.6484V50.1768L158.089 63.1631ZM132.026 52.1533L156.311 60.7588L179.226 47.9131L155.76 39.7207L132.026 52.1533Z" fill="#FF9C00" stroke="#FF9C00" stroke-width="0.5"/>
<path d="M201.695 129.901L205.538 116.544L208.706 116.565L214.114 129.982L211.45 129.965L210.328 127.083L205.145 127.05L204.341 129.918L201.695 129.901ZM205.721 124.898L209.5 124.923L206.879 118.241L207.563 118.246L205.721 124.898Z" fill="#FF9C00"/>
<path d="M185.163 141.863L190.832 140.772L187.053 136.408L185.163 141.863ZM201.605 127.624L201.278 127.246L188.237 138.539L188.564 138.917L188.892 139.295L201.933 128.002L201.605 127.624Z" fill="#FF9C00"/>
<path d="M227.683 104.312L225.793 109.768L222.014 105.403L227.683 104.312ZM211.24 118.552L210.913 118.174L223.954 106.88L224.281 107.258L224.609 107.636L211.568 118.93L211.24 118.552Z" fill="#FF9C00"/>
<path d="M141.197 125.771L146.873 113.622L152.004 115.992C152.81 116.365 153.43 116.823 153.865 117.368C154.315 117.906 154.573 118.501 154.64 119.153C154.722 119.799 154.596 120.481 154.26 121.199C154.001 121.753 153.605 122.205 153.071 122.553C152.554 122.895 151.895 123.073 151.094 123.087L151.574 122.059C152.066 122.564 152.408 123.066 152.599 123.564C152.79 124.062 152.86 124.55 152.809 125.029C152.757 125.508 152.625 125.975 152.412 126.432C151.868 127.595 151.055 128.33 149.972 128.636C148.904 128.936 147.69 128.771 146.328 128.142L141.197 125.771ZM144.334 124.841L147.471 126.291C148.048 126.557 148.58 126.611 149.065 126.452C149.566 126.287 149.941 125.938 150.189 125.405C150.438 124.872 150.465 124.362 150.268 123.875C150.083 123.393 149.702 123.018 149.124 122.752L145.987 121.302L144.334 124.841ZM146.894 119.362L149.917 120.758C150.374 120.97 150.8 121.008 151.194 120.873C151.593 120.727 151.892 120.442 152.09 120.018C152.288 119.594 152.31 119.194 152.154 118.818C151.999 118.442 151.692 118.148 151.235 117.937L148.212 116.54L146.894 119.362Z" fill="#FF9C00"/>
<path d="M118.191 107.328L123.956 106.782L121.523 112.018L118.191 107.328ZM142.918 118.592L142.707 119.045L122.074 109.646L122.285 109.193L122.495 108.739L143.129 118.138L142.918 118.592Z" fill="#FF9C00"/>
<path d="M178.505 133.951L175.116 129.383L172.683 134.619L178.505 133.951ZM153.471 123.349L153.26 123.802L174.15 132.649L174.36 132.196L174.571 131.743L153.681 122.895L153.471 123.349Z" fill="#FF9C00"/>
<path d="M118.326 20V2.12H121.59V17.12H129.246V20H118.326ZM142.007 20.288C140.871 20.288 139.815 20.08 138.839 19.664C137.879 19.248 137.047 18.672 136.343 17.936C135.655 17.184 135.151 16.312 134.831 15.32L137.543 14.144C137.975 15.168 138.599 15.976 139.415 16.568C140.231 17.144 141.151 17.432 142.175 17.432C142.751 17.432 143.247 17.344 143.663 17.168C144.095 16.976 144.423 16.72 144.647 16.4C144.887 16.08 145.007 15.696 145.007 15.248C145.007 14.72 144.847 14.288 144.527 13.952C144.223 13.6 143.759 13.328 143.135 13.136L139.703 12.032C138.311 11.6 137.263 10.952 136.559 10.088C135.855 9.224 135.503 8.208 135.503 7.04C135.503 6.016 135.751 5.112 136.247 4.328C136.759 3.544 137.463 2.936 138.359 2.504C139.271 2.056 140.311 1.832 141.479 1.832C142.551 1.832 143.535 2.024 144.431 2.408C145.327 2.776 146.095 3.296 146.735 3.968C147.391 4.624 147.879 5.4 148.199 6.296L145.511 7.496C145.159 6.6 144.631 5.912 143.927 5.432C143.223 4.936 142.407 4.688 141.479 4.688C140.935 4.688 140.455 4.784 140.039 4.976C139.623 5.152 139.295 5.408 139.055 5.744C138.831 6.064 138.719 6.448 138.719 6.896C138.719 7.392 138.879 7.832 139.199 8.216C139.519 8.584 140.007 8.872 140.663 9.08L143.951 10.112C145.375 10.576 146.439 11.216 147.143 12.032C147.863 12.848 148.223 13.856 148.223 15.056C148.223 16.08 147.959 16.984 147.431 17.768C146.903 18.552 146.175 19.168 145.247 19.616C144.319 20.064 143.239 20.288 142.007 20.288ZM150.898 20V1.832H154.042V9.512L153.61 9.056C153.914 8.272 154.41 7.68 155.098 7.28C155.802 6.864 156.618 6.656 157.546 6.656C158.506 6.656 159.354 6.864 160.09 7.28C160.842 7.696 161.426 8.28 161.842 9.032C162.258 9.768 162.466 10.624 162.466 11.6V20H159.322V12.344C159.322 11.768 159.21 11.272 158.986 10.856C158.762 10.44 158.45 10.12 158.05 9.896C157.666 9.656 157.21 9.536 156.682 9.536C156.17 9.536 155.714 9.656 155.314 9.896C154.914 10.12 154.602 10.44 154.378 10.856C154.154 11.272 154.042 11.768 154.042 12.344V20H150.898ZM169.084 20.288C168.172 20.288 167.38 20.136 166.708 19.832C166.036 19.528 165.516 19.096 165.148 18.536C164.78 17.96 164.596 17.296 164.596 16.544C164.596 15.824 164.756 15.184 165.076 14.624C165.396 14.048 165.892 13.568 166.564 13.184C167.236 12.8 168.084 12.528 169.108 12.368L173.38 11.672V14.072L169.708 14.696C169.084 14.808 168.62 15.008 168.316 15.296C168.012 15.584 167.86 15.96 167.86 16.424C167.86 16.872 168.028 17.232 168.364 17.504C168.716 17.76 169.148 17.888 169.66 17.888C170.316 17.888 170.892 17.752 171.388 17.48C171.9 17.192 172.292 16.8 172.564 16.304C172.852 15.808 172.996 15.264 172.996 14.672V11.312C172.996 10.752 172.772 10.288 172.324 9.92C171.892 9.536 171.316 9.344 170.596 9.344C169.924 9.344 169.324 9.528 168.796 9.896C168.284 10.248 167.908 10.72 167.668 11.312L165.1 10.064C165.356 9.376 165.756 8.784 166.3 8.288C166.86 7.776 167.516 7.376 168.268 7.088C169.02 6.8 169.836 6.656 170.716 6.656C171.788 6.656 172.732 6.856 173.548 7.256C174.364 7.64 174.996 8.184 175.444 8.888C175.908 9.576 176.14 10.384 176.14 11.312V20H173.164V17.768L173.836 17.72C173.5 18.28 173.1 18.752 172.636 19.136C172.172 19.504 171.644 19.792 171.052 20C170.46 20.192 169.804 20.288 169.084 20.288ZM179.046 24.8V6.944H181.998V9.536L181.71 8.888C182.158 8.184 182.766 7.64 183.534 7.256C184.302 6.856 185.19 6.656 186.198 6.656C187.43 6.656 188.542 6.96 189.534 7.568C190.526 8.176 191.31 8.992 191.886 10.016C192.478 11.04 192.774 12.192 192.774 13.472C192.774 14.736 192.486 15.888 191.91 16.928C191.334 17.968 190.55 18.792 189.558 19.4C188.566 19.992 187.438 20.288 186.174 20.288C185.23 20.288 184.358 20.104 183.558 19.736C182.774 19.352 182.15 18.808 181.686 18.104L182.19 17.48V24.8H179.046ZM185.814 17.408C186.534 17.408 187.174 17.24 187.734 16.904C188.294 16.568 188.726 16.104 189.03 15.512C189.35 14.92 189.51 14.24 189.51 13.472C189.51 12.704 189.35 12.032 189.03 11.456C188.726 10.864 188.294 10.4 187.734 10.064C187.174 9.712 186.534 9.536 185.814 9.536C185.126 9.536 184.502 9.704 183.942 10.04C183.398 10.376 182.966 10.848 182.646 11.456C182.342 12.048 182.19 12.72 182.19 13.472C182.19 14.24 182.342 14.92 182.646 15.512C182.966 16.104 183.398 16.568 183.942 16.904C184.502 17.24 185.126 17.408 185.814 17.408ZM201.363 20.288C200.019 20.288 198.843 19.984 197.835 19.376C196.827 18.768 196.043 17.944 195.483 16.904C194.923 15.864 194.643 14.712 194.643 13.448C194.643 12.136 194.923 10.976 195.483 9.968C196.059 8.944 196.835 8.136 197.811 7.544C198.803 6.952 199.907 6.656 201.123 6.656C202.147 6.656 203.043 6.824 203.811 7.16C204.595 7.496 205.259 7.96 205.803 8.552C206.347 9.144 206.763 9.824 207.051 10.592C207.339 11.344 207.483 12.16 207.483 13.04C207.483 13.264 207.467 13.496 207.435 13.736C207.419 13.976 207.379 14.184 207.315 14.36H197.235V11.96H205.539L204.051 13.088C204.195 12.352 204.155 11.696 203.931 11.12C203.723 10.544 203.371 10.088 202.875 9.752C202.395 9.416 201.811 9.248 201.123 9.248C200.467 9.248 199.883 9.416 199.371 9.752C198.859 10.072 198.467 10.552 198.195 11.192C197.939 11.816 197.843 12.576 197.907 13.472C197.843 14.272 197.947 14.984 198.219 15.608C198.507 16.216 198.923 16.688 199.467 17.024C200.027 17.36 200.667 17.528 201.387 17.528C202.107 17.528 202.715 17.376 203.211 17.072C203.723 16.768 204.123 16.36 204.411 15.848L206.955 17.096C206.699 17.72 206.299 18.272 205.755 18.752C205.211 19.232 204.563 19.608 203.811 19.88C203.075 20.152 202.259 20.288 201.363 20.288Z" fill="#FF9C00"/>
</svg>
