<svg width="30" height="30" viewBox="0 0 30 30" fill="none" xmlns="http://www.w3.org/2000/svg">
<path d="M23.6189 17.6705V9.62463L17.361 5.24617L11.1031 9.62463V12.123H9.31513V8.74196L17.361 2.99988L25.4069 8.74196V17.6705H23.6189ZM18.0142 10.3237H19.0918V9.24617H18.0142V10.3237ZM15.6303 10.3237H16.7078V9.24617H15.6303V10.3237ZM18.0142 12.7077H19.0918V11.6301H18.0142V12.7077ZM15.6303 12.7077H16.7078V11.6301H15.6303V12.7077ZM8.95992 22.6676L17.6107 25.1156L24.726 22.9105C24.665 22.6401 24.539 22.4327 24.3478 22.2883C24.1567 22.1438 23.9405 22.0716 23.6991 22.0716H17.8617C17.3416 22.0716 16.8996 22.0518 16.5359 22.012C16.1721 21.9723 15.7984 21.8852 15.4148 21.7507L12.7239 20.8612L13.2531 19.1098L15.6669 19.949C16.0277 20.0712 16.4442 20.1544 16.9164 20.1987C17.3886 20.243 18.0602 20.2713 18.9312 20.2836C18.9312 19.9886 18.8647 19.7341 18.7318 19.5202C18.5989 19.3062 18.4239 19.1618 18.2067 19.0869L11.2911 16.5471C11.2681 16.5395 11.247 16.5339 11.228 16.5301C11.2089 16.5261 11.1879 16.5241 11.1651 16.5241H8.95992V22.6676ZM3 26.1518V14.7364H11.1514C11.2765 14.7364 11.4033 14.7502 11.5316 14.7776C11.6602 14.8052 11.7794 14.8373 11.8892 14.8738L18.8349 17.4321C19.3759 17.6322 19.8252 17.9863 20.1827 18.4945C20.5403 19.0027 20.7191 19.599 20.7191 20.2836H23.6991C24.5549 20.2836 25.2522 20.5599 25.7907 21.1124C26.3295 21.6647 26.5989 22.3817 26.5989 23.2636V24.2261L17.6703 26.9999L8.95992 24.5152V26.1518H3ZM4.78798 24.3638H7.17194V16.5241H4.78798V24.3638Z" fill="#1E1E1E"/>
</svg>
