<svg width="48" height="48" viewBox="0 0 48 48" fill="none" xmlns="http://www.w3.org/2000/svg">
<path d="M21.7313 30.1735L13.5122 12.6413L23.4044 10.7939V33.1815C12.7564 33.6953 8.65932 40.8939 8.48491 41.2131L7.52266 42.9704H41.9571L40.6222 41.0957C40.3992 40.7836 35.2544 33.7475 25.7775 33.1874V10.3513L34.6101 8.70205L26.2687 26.4941H43L34.6551 8.69368L41.9417 7.3339L41.5062 5L7.24014 11.3978L7.67559 13.7317L13.1906 12.7017L5 30.1735H21.7313ZM11.8973 40.5973C13.7602 38.5648 17.7066 35.5059 24.5909 35.5059C30.5461 35.5059 34.7761 38.5339 36.9688 40.5973H11.8973ZM30.0027 24.1211L34.6349 14.2396L39.2659 24.1211H30.0027ZM8.734 27.8005L13.365 17.919L17.9972 27.8005H8.734Z" fill="#FF9C00"/>
</svg>
