<svg width="24" height="25" viewBox="0 0 24 25" fill="none" xmlns="http://www.w3.org/2000/svg">
<path d="M12 21.6487C11.8358 21.6487 11.6801 21.6268 11.5328 21.5832C11.3853 21.5397 11.2462 21.4794 11.1155 21.4024L4.38475 17.5122C4.10008 17.348 3.8815 17.1294 3.729 16.8564C3.57633 16.5833 3.5 16.2858 3.5 15.9639V8.33343C3.5 8.0116 3.57633 7.7141 3.729 7.44093C3.8815 7.16793 4.10008 6.94935 4.38475 6.78518L11.1155 2.89493C11.2462 2.81793 11.3853 2.75768 11.5328 2.71418C11.6801 2.67051 11.8358 2.64868 12 2.64868C12.1577 2.64868 12.3103 2.67051 12.4578 2.71418C12.6051 2.75768 12.7473 2.81793 12.8845 2.89493L19.6152 6.78518C19.8936 6.94935 20.1106 7.16793 20.2663 7.44093C20.4221 7.7141 20.5 8.0116 20.5 8.33343V15.9639C20.5 16.2858 20.4221 16.5833 20.2663 16.8564C20.1106 17.1294 19.8936 17.348 19.6152 17.5122L12.8845 21.4024C12.7473 21.4794 12.6051 21.5397 12.4578 21.5832C12.3103 21.6268 12.1577 21.6487 12 21.6487ZM8.3365 15.8217V12.8987H5V15.9449C5 15.9961 5.01283 16.0442 5.0385 16.0892C5.06417 16.134 5.10258 16.1724 5.15375 16.2044L11.25 19.7564V15.8217H8.3365ZM8.3365 8.47568H11.25V4.54093L5.15375 8.09293C5.10258 8.12493 5.06417 8.16335 5.0385 8.20818C5.01283 8.25318 5 8.30127 5 8.35243V11.3987H8.3365V8.47568ZM9.8365 14.3217H14.1538V9.98518H9.8365V14.3217ZM15.6538 15.8217H12.75V19.7564L18.8462 16.2044C18.8974 16.1724 18.9358 16.134 18.9615 16.0892C18.9872 16.0442 19 15.9961 19 15.9449V12.8987H15.6538V15.8217ZM15.6538 8.47568V11.3987H19V8.35243C19 8.30127 18.9872 8.25318 18.9615 8.20818C18.9358 8.16335 18.8974 8.12493 18.8462 8.09293L12.75 4.54093V8.47568H15.6538Z" fill="#1E1E1E"/>
</svg>
