<svg width="90" height="90" viewBox="0 0 90 90" fill="none" xmlns="http://www.w3.org/2000/svg">
<path opacity="0.5" d="M7.41729 90C5.40043 90 3.66 89.268 2.196 87.804C0.732 86.34 0 84.5996 0 82.5827V9.98872C0 7.97186 0.732 6.23143 2.196 4.76743C3.66 3.30343 5.40043 2.57143 7.41729 2.57143H57.6797V8.40729H7.41729C7.02214 8.40729 6.65957 8.57186 6.32957 8.901C5.99957 9.231 5.83457 9.59357 5.83457 9.98872V82.5827C5.83457 82.9779 5.99957 83.3404 6.32957 83.6704C6.65957 83.9996 7.02214 84.1641 7.41729 84.1641H80.0113C80.4064 84.1641 80.769 83.9996 81.099 83.6704C81.4281 83.3404 81.5927 82.9779 81.5927 82.5827V32.3203H87.4286V82.5827C87.4286 84.5996 86.6966 86.34 85.2326 87.804C83.7677 89.268 82.0273 90 80.0113 90H7.41729ZM24.5083 71.001V65.1664H63V71.001H24.5083ZM24.5083 54.9193V49.0847H63V54.9193H24.5083ZM24.5083 38.8389V33.003H63V38.8389H24.5083ZM73.1469 27.9193V16.8531H62.0807V11.0173H73.1469V0H78.9827V11.0173H90V16.8531H78.9827V27.9193H73.1469Z" fill="#717E95"/>
</svg>
