<svg width="48" height="48" viewBox="0 0 48 48" fill="none" xmlns="http://www.w3.org/2000/svg">
<path d="M37.1964 18.1873C37.0374 17.9234 36.8755 17.6583 36.6976 17.3921C35.834 16.0964 34.76 14.783 33.4928 13.5164C31.8117 11.8353 30.0314 10.4752 28.3327 9.52312C27.4805 9.05064 26.6459 8.67094 25.8462 8.40872C25.0464 8.15155 24.27 8 23.5289 8C23.0443 8 22.5713 8.06383 22.1163 8.22169C21.6665 8.37332 21.2344 8.63042 20.8844 8.98043L19.0454 10.8194L18.0741 11.7908C15.5231 11.1962 13.1118 10.8024 11.0419 10.8001C9.82714 10.8012 8.72357 10.9339 7.76021 11.2771C6.80086 11.6163 5.96397 12.1966 5.43494 13.0585C5.15164 13.5145 4.99831 14.0333 5.00001 14.5486C5.00001 15.0976 5.1653 15.6249 5.42982 16.106C5.89725 16.9486 6.65769 17.6908 7.62796 18.405C9.08554 19.4704 11.0391 20.4628 13.3011 21.3538C15.5619 22.2431 18.1277 23.0252 20.7899 23.6335L21.1797 21.9268V21.9262C17.2463 21.0289 13.5229 19.7309 10.8401 18.3235C9.49998 17.6223 8.42195 16.8893 7.72251 16.2086C7.37249 15.8694 7.11941 15.545 6.96488 15.2623C6.80873 14.9778 6.75173 14.7452 6.75113 14.5486C6.75343 14.3622 6.79611 14.1911 6.92555 13.9774C7.21114 13.5185 7.65579 13.177 8.34959 12.9262C9.03871 12.6776 9.9588 12.55 11.0419 12.5511C12.6215 12.5494 14.538 12.8196 16.6073 13.258L15.6194 14.2459L12.1808 17.6839C12.8871 18.0281 13.6635 18.3611 14.4867 18.682L20.3302 12.8384C20.5446 13.917 21.0132 15.0742 21.6858 16.2832C22.6229 17.9563 23.9632 19.716 25.6294 21.3828C27.2962 23.0491 29.0559 24.3887 30.729 25.3265C31.9467 26.0042 33.1113 26.4757 34.1967 26.6877L22.8865 37.9685L22.9509 37.8985C22.7702 38.0854 22.5307 38.2313 22.2097 38.3419C21.8945 38.4531 21.4972 38.5175 21.0303 38.5175C19.9855 38.5233 18.6139 38.1789 17.1717 37.4727C15.73 36.7664 14.2125 35.6981 12.817 34.309C11.4107 32.9021 10.3248 31.3493 9.60077 29.8722C8.87112 28.3952 8.51547 26.9889 8.52111 25.9263C8.52111 25.4651 8.58493 25.0798 8.69047 24.7702C8.79534 24.4613 8.93554 24.2332 9.11055 24.0582L11.3639 21.8049C10.5641 21.4548 9.81682 21.0928 9.13957 20.7252L7.45851 22.4063C7.00303 22.8617 6.68211 23.4164 6.47801 24.0172C6.27331 24.6187 6.18618 25.2548 6.18618 25.9264C6.18618 27.4729 6.65873 29.1717 7.50527 30.8995C8.35181 32.6273 9.5831 34.3728 11.1712 35.9605C12.7411 37.5309 14.4519 38.7395 16.1443 39.5683C17.8374 40.3971 19.5065 40.8463 21.0302 40.8525C21.7074 40.8525 22.3613 40.7591 22.9683 40.5487C23.5754 40.3446 24.1415 40.0117 24.6026 39.5506L35.0656 29.1168C35.061 29.3643 35.0587 29.5706 35.0587 29.7399C35.0587 31.0636 34.9116 33.4897 36.8236 33.4897C37.3451 33.4897 38.1472 33.122 38.1472 31.2842C38.1472 30.1537 39.3238 30.5392 39.3238 31.2101C39.3238 32.2402 39.3238 32.5594 39.3238 33.195C39.3238 35.254 39.9856 35.9899 41.0886 35.9899C42.1917 35.9899 43 35.181 43 33.2691C43 31.3571 43 27.3132 43 24.6658C43.0001 22.3344 40.5095 19.2624 37.1964 18.1873ZM28.1138 21.3089C27.6954 20.9435 27.2781 20.5558 26.8677 20.1448C25.3064 18.5834 24.0579 16.9365 23.2143 15.4277C22.366 13.9233 21.9414 12.5449 21.9483 11.6225C21.9483 11.4601 21.9625 11.3165 21.9842 11.1848L22.5366 10.6324C22.6244 10.5509 22.7236 10.4808 22.8808 10.4283C23.0388 10.3696 23.2548 10.3349 23.5291 10.3349C23.9491 10.3349 24.4981 10.4221 25.1223 10.6324C26.0623 10.9362 27.1716 11.4903 28.3271 12.2553C29.4832 13.0254 30.6855 14.0122 31.8414 15.1683C32.7165 16.0405 33.4872 16.94 34.1444 17.8259C32.1447 17.9986 30.044 19.0093 28.1138 21.3089Z" fill="#FF9C00"/>
<path d="M23.1693 24.5915C23.8676 24.5915 24.4337 24.0255 24.4337 23.3271C24.4337 22.6282 23.8676 22.0622 23.1693 22.0622C22.4704 22.0622 21.9043 22.6282 21.9043 23.3271C21.9043 24.0255 22.4704 24.5915 23.1693 24.5915Z" fill="#FF9C00"/>
</svg>
