<svg width="325" height="200" viewBox="0 0 325 200" fill="none" xmlns="http://www.w3.org/2000/svg">
<path d="M220.8 53H115.052C111.467 53 108.299 54.4213 107.23 56.5086L71.3787 126.509C69.7298 129.728 73.6719 133 79.2003 133H184.948C188.533 133 191.701 131.579 192.77 129.491L228.621 59.4913C230.27 56.2717 226.328 53 220.8 53Z" stroke="#FF9C00" stroke-width="3.2"/>
<path d="M216.927 106.65L222.114 93.4466L225.279 93.5799L229.336 107.173L226.675 107.061L225.843 104.143L220.664 103.925L219.571 106.761L216.927 106.65ZM221.456 101.796L225.232 101.955L223.284 95.1893L223.967 95.2181L221.456 101.796Z" fill="#FF9C00"/>
<path d="M208.702 145.742L213.043 141.935L207.576 140.079L208.702 145.742ZM221.426 108.27L220.952 108.109L209.676 141.32L210.149 141.48L210.623 141.641L221.899 108.431L221.426 108.27Z" fill="#FF9C00"/>
<path d="M239.569 54.839L240.695 60.5017L235.228 58.6453L239.569 54.839ZM226.846 92.3103L226.372 92.1495L237.649 58.9393L238.122 59.1001L238.596 59.2608L227.319 92.471L226.846 92.3103Z" fill="#FF9C00"/>
<path d="M76.6125 93.7824C75.6973 94.0722 74.7766 94.1829 73.8506 94.1144C72.9359 94.0422 72.0541 93.8162 71.205 93.4364C70.3674 93.0529 69.6096 92.5319 68.9317 91.8732C68.2538 91.2146 67.7028 90.4346 67.2788 89.5334C66.8548 88.6322 66.6185 87.7526 66.5698 86.8947C66.5274 86.0223 66.6619 85.2186 66.9734 84.4837C67.2912 83.7343 67.7675 83.0844 68.4024 82.5339C69.0322 81.9727 69.8047 81.5471 70.7199 81.2573C71.6351 80.9674 72.522 80.8549 73.3806 80.9199C74.2507 80.9812 75.0524 81.1764 75.7856 81.5056C76.5138 81.824 77.1219 82.2365 77.61 82.7431L75.9532 84.3345C75.4269 83.8026 74.7858 83.4317 74.0299 83.222C73.2689 83.0014 72.4823 83.0197 71.67 83.2769C70.8693 83.5305 70.2443 83.9343 69.7951 84.4883C69.3573 85.0387 69.115 85.6831 69.0681 86.4216C69.0326 87.1564 69.2141 87.9473 69.6126 88.7943C70.011 89.6412 70.5269 90.3325 71.16 90.8681C71.7995 91.3892 72.5067 91.7328 73.2816 91.8991C74.0679 92.0618 74.8615 92.0163 75.6623 91.7627C76.4745 91.5055 77.0747 91.0908 77.4628 90.5188C77.8458 89.9359 78.0143 89.3023 77.9685 88.6182L80.4988 88.8835C80.5522 89.5279 80.4421 90.174 80.1687 90.8221C79.8901 91.4593 79.4537 92.0404 78.8594 92.5655C78.2766 93.0869 77.5277 93.4925 76.6125 93.7824Z" fill="#FF9C00"/>
<path d="M53.9234 126.162L53.8071 120.379L58.854 123.183L53.9234 126.162ZM70.9863 95.1071L71.4234 95.3499L56.5269 122.462L56.0898 122.219L55.6528 121.976L70.5493 94.8643L70.9863 95.1071Z" fill="#FF9C00"/>
<path d="M94.5166 50.3792L89.6922 53.4175L94.7391 56.2215L94.5166 50.3792ZM78.207 81.8531L78.6441 82.0959L92.8828 54.6183L92.4457 54.3755L92.0087 54.1327L77.77 81.6103L78.207 81.8531Z" fill="#FF9C00"/>
<path d="M127.807 155.412L128.469 142.019L134.113 142.321C135 142.368 135.747 142.564 136.355 142.909C136.975 143.243 137.439 143.7 137.747 144.282C138.067 144.852 138.207 145.532 138.168 146.323C138.138 146.934 137.942 147.501 137.58 148.022C137.23 148.532 136.687 148.942 135.951 149.251L136.007 148.118C136.654 148.405 137.159 148.745 137.524 149.137C137.89 149.529 138.139 149.957 138.272 150.42C138.405 150.884 138.459 151.368 138.434 151.871C138.371 153.154 137.896 154.138 137.009 154.823C136.134 155.497 134.948 155.794 133.45 155.714L127.807 155.412ZM130.358 153.386L133.809 153.57C134.444 153.604 134.956 153.458 135.344 153.13C135.746 152.791 135.961 152.328 135.99 151.74C136.019 151.153 135.851 150.669 135.485 150.289C135.131 149.91 134.637 149.703 134.002 149.669L130.551 149.485L130.358 153.386ZM130.657 147.345L133.982 147.523C134.485 147.55 134.894 147.428 135.208 147.156C135.522 146.872 135.691 146.497 135.714 146.029C135.737 145.562 135.606 145.183 135.32 144.891C135.034 144.599 134.639 144.44 134.136 144.413L130.811 144.235L130.657 147.345Z" fill="#FF9C00"/>
<path d="M74.94 146.522L80.0676 143.887L79.7994 149.655L74.94 146.522ZM122.049 148.87L122.026 149.369L79.4109 147.245L79.4342 146.746L79.4574 146.247L122.072 148.37L122.049 148.87Z" fill="#FF9C00"/>
<path d="M189.266 151.303L184.402 148.262L184.134 154.029L189.266 151.303ZM142.117 149.816L142.094 150.316L184.745 151.661L184.768 151.161L184.791 150.662L142.14 149.317L142.117 149.816Z" fill="#FF9C00"/>
<path d="M83.8139 33V15.12H90.4859C91.7019 15.12 92.7739 15.344 93.7019 15.792C94.6459 16.224 95.3819 16.864 95.9099 17.712C96.4379 18.544 96.7019 19.56 96.7019 20.76C96.7019 21.944 96.4299 22.96 95.8859 23.808C95.3579 24.64 94.6299 25.28 93.7019 25.728C92.7739 26.176 91.7019 26.4 90.4859 26.4H87.0779V33H83.8139ZM87.0779 23.52H90.5339C91.1259 23.52 91.6379 23.408 92.0699 23.184C92.5019 22.944 92.8379 22.616 93.0779 22.2C93.3179 21.784 93.4379 21.304 93.4379 20.76C93.4379 20.2 93.3179 19.72 93.0779 19.32C92.8379 18.904 92.5019 18.584 92.0699 18.36C91.6379 18.12 91.1259 18 90.5339 18H87.0779V23.52ZM102.299 33.288C101.387 33.288 100.595 33.136 99.923 32.832C99.251 32.528 98.731 32.096 98.363 31.536C97.995 30.96 97.811 30.296 97.811 29.544C97.811 28.824 97.971 28.184 98.291 27.624C98.611 27.048 99.107 26.568 99.779 26.184C100.451 25.8 101.299 25.528 102.323 25.368L106.595 24.672V27.072L102.923 27.696C102.299 27.808 101.835 28.008 101.531 28.296C101.227 28.584 101.075 28.96 101.075 29.424C101.075 29.872 101.243 30.232 101.579 30.504C101.931 30.76 102.363 30.888 102.875 30.888C103.531 30.888 104.107 30.752 104.603 30.48C105.115 30.192 105.507 29.8 105.779 29.304C106.067 28.808 106.211 28.264 106.211 27.672V24.312C106.211 23.752 105.987 23.288 105.539 22.92C105.107 22.536 104.531 22.344 103.811 22.344C103.139 22.344 102.539 22.528 102.011 22.896C101.499 23.248 101.123 23.72 100.883 24.312L98.315 23.064C98.571 22.376 98.971 21.784 99.515 21.288C100.075 20.776 100.731 20.376 101.483 20.088C102.235 19.8 103.051 19.656 103.931 19.656C105.003 19.656 105.947 19.856 106.763 20.256C107.579 20.64 108.211 21.184 108.659 21.888C109.123 22.576 109.355 23.384 109.355 24.312V33H106.379V30.768L107.051 30.72C106.715 31.28 106.315 31.752 105.851 32.136C105.387 32.504 104.859 32.792 104.267 33C103.675 33.192 103.019 33.288 102.299 33.288ZM112.261 33V19.944H115.213V22.848L114.973 22.416C115.277 21.44 115.749 20.76 116.389 20.376C117.045 19.992 117.829 19.8 118.741 19.8H119.509V22.584H118.381C117.485 22.584 116.765 22.864 116.221 23.424C115.677 23.968 115.405 24.736 115.405 25.728V33H112.261ZM125.197 33.288C124.285 33.288 123.493 33.136 122.821 32.832C122.149 32.528 121.629 32.096 121.261 31.536C120.893 30.96 120.709 30.296 120.709 29.544C120.709 28.824 120.869 28.184 121.189 27.624C121.509 27.048 122.005 26.568 122.677 26.184C123.349 25.8 124.197 25.528 125.221 25.368L129.493 24.672V27.072L125.821 27.696C125.197 27.808 124.733 28.008 124.429 28.296C124.125 28.584 123.973 28.96 123.973 29.424C123.973 29.872 124.141 30.232 124.477 30.504C124.829 30.76 125.261 30.888 125.773 30.888C126.429 30.888 127.005 30.752 127.501 30.48C128.013 30.192 128.405 29.8 128.677 29.304C128.965 28.808 129.109 28.264 129.109 27.672V24.312C129.109 23.752 128.885 23.288 128.437 22.92C128.005 22.536 127.429 22.344 126.709 22.344C126.037 22.344 125.437 22.528 124.909 22.896C124.397 23.248 124.021 23.72 123.781 24.312L121.213 23.064C121.469 22.376 121.869 21.784 122.413 21.288C122.973 20.776 123.629 20.376 124.381 20.088C125.133 19.8 125.949 19.656 126.829 19.656C127.901 19.656 128.845 19.856 129.661 20.256C130.477 20.64 131.109 21.184 131.557 21.888C132.021 22.576 132.253 23.384 132.253 24.312V33H129.277V30.768L129.949 30.72C129.613 31.28 129.213 31.752 128.749 32.136C128.285 32.504 127.757 32.792 127.165 33C126.573 33.192 125.917 33.288 125.197 33.288ZM135.159 33V14.832H138.303V33H135.159ZM141.206 33V14.832H144.35V33H141.206ZM153.445 33.288C152.101 33.288 150.925 32.984 149.917 32.376C148.909 31.768 148.125 30.944 147.565 29.904C147.005 28.864 146.725 27.712 146.725 26.448C146.725 25.136 147.005 23.976 147.565 22.968C148.141 21.944 148.917 21.136 149.893 20.544C150.885 19.952 151.989 19.656 153.205 19.656C154.229 19.656 155.125 19.824 155.893 20.16C156.677 20.496 157.341 20.96 157.885 21.552C158.429 22.144 158.845 22.824 159.133 23.592C159.421 24.344 159.565 25.16 159.565 26.04C159.565 26.264 159.549 26.496 159.517 26.736C159.501 26.976 159.461 27.184 159.397 27.36H149.317V24.96H157.621L156.133 26.088C156.277 25.352 156.237 24.696 156.013 24.12C155.805 23.544 155.453 23.088 154.957 22.752C154.477 22.416 153.893 22.248 153.205 22.248C152.549 22.248 151.965 22.416 151.453 22.752C150.941 23.072 150.549 23.552 150.277 24.192C150.021 24.816 149.925 25.576 149.989 26.472C149.925 27.272 150.029 27.984 150.301 28.608C150.589 29.216 151.005 29.688 151.549 30.024C152.109 30.36 152.749 30.528 153.469 30.528C154.189 30.528 154.797 30.376 155.293 30.072C155.805 29.768 156.205 29.36 156.493 28.848L159.037 30.096C158.781 30.72 158.381 31.272 157.837 31.752C157.293 32.232 156.645 32.608 155.893 32.88C155.157 33.152 154.341 33.288 153.445 33.288ZM161.948 33V14.832H165.092V33H161.948ZM174.379 33.288C173.099 33.288 171.931 32.992 170.875 32.4C169.835 31.808 169.003 31 168.379 29.976C167.771 28.952 167.467 27.784 167.467 26.472C167.467 25.16 167.771 23.992 168.379 22.968C169.003 21.944 169.835 21.136 170.875 20.544C171.915 19.952 173.083 19.656 174.379 19.656C175.659 19.656 176.819 19.952 177.859 20.544C178.899 21.136 179.723 21.944 180.331 22.968C180.955 23.976 181.267 25.144 181.267 26.472C181.267 27.784 180.955 28.952 180.331 29.976C179.707 31 178.875 31.808 177.835 32.4C176.795 32.992 175.643 33.288 174.379 33.288ZM174.379 30.408C175.083 30.408 175.699 30.24 176.227 29.904C176.771 29.568 177.195 29.104 177.499 28.512C177.819 27.904 177.979 27.224 177.979 26.472C177.979 25.704 177.819 25.032 177.499 24.456C177.195 23.864 176.771 23.4 176.227 23.064C175.699 22.712 175.083 22.536 174.379 22.536C173.659 22.536 173.027 22.712 172.483 23.064C171.939 23.4 171.507 23.864 171.187 24.456C170.883 25.032 170.731 25.704 170.731 26.472C170.731 27.224 170.883 27.904 171.187 28.512C171.507 29.104 171.939 29.568 172.483 29.904C173.027 30.24 173.659 30.408 174.379 30.408ZM189.988 38.28C189.012 38.28 188.108 38.12 187.276 37.8C186.444 37.48 185.724 37.032 185.116 36.456C184.524 35.896 184.092 35.232 183.82 34.464L186.748 33.36C186.94 33.968 187.316 34.456 187.876 34.824C188.452 35.208 189.156 35.4 189.988 35.4C190.628 35.4 191.188 35.28 191.668 35.04C192.164 34.8 192.548 34.448 192.82 33.984C193.092 33.536 193.228 32.992 193.228 32.352V29.376L193.828 30.096C193.38 30.88 192.78 31.472 192.028 31.872C191.276 32.272 190.42 32.472 189.46 32.472C188.244 32.472 187.156 32.192 186.196 31.632C185.236 31.072 184.484 30.304 183.94 29.328C183.396 28.352 183.124 27.256 183.124 26.04C183.124 24.808 183.396 23.712 183.94 22.752C184.484 21.792 185.228 21.04 186.172 20.496C187.116 19.936 188.188 19.656 189.388 19.656C190.364 19.656 191.22 19.864 191.956 20.28C192.708 20.68 193.332 21.264 193.828 22.032L193.396 22.824V19.944H196.372V32.352C196.372 33.488 196.092 34.504 195.532 35.4C194.988 36.296 194.236 37 193.276 37.512C192.332 38.024 191.236 38.28 189.988 38.28ZM189.844 29.568C190.516 29.568 191.1 29.424 191.596 29.136C192.108 28.832 192.508 28.416 192.796 27.888C193.084 27.36 193.228 26.752 193.228 26.064C193.228 25.392 193.076 24.792 192.772 24.264C192.484 23.72 192.084 23.296 191.572 22.992C191.076 22.688 190.5 22.536 189.844 22.536C189.188 22.536 188.596 22.688 188.068 22.992C187.54 23.296 187.124 23.72 186.82 24.264C186.532 24.792 186.388 25.392 186.388 26.064C186.388 26.736 186.532 27.336 186.82 27.864C187.124 28.392 187.532 28.808 188.044 29.112C188.572 29.416 189.172 29.568 189.844 29.568ZM199.308 33V19.944H202.26V22.848L202.02 22.416C202.324 21.44 202.796 20.76 203.436 20.376C204.092 19.992 204.876 19.8 205.788 19.8H206.556V22.584H205.428C204.532 22.584 203.812 22.864 203.268 23.424C202.724 23.968 202.452 24.736 202.452 25.728V33H199.308ZM212.244 33.288C211.332 33.288 210.54 33.136 209.868 32.832C209.196 32.528 208.676 32.096 208.308 31.536C207.94 30.96 207.756 30.296 207.756 29.544C207.756 28.824 207.916 28.184 208.236 27.624C208.556 27.048 209.052 26.568 209.724 26.184C210.396 25.8 211.244 25.528 212.268 25.368L216.54 24.672V27.072L212.868 27.696C212.244 27.808 211.78 28.008 211.476 28.296C211.172 28.584 211.02 28.96 211.02 29.424C211.02 29.872 211.188 30.232 211.524 30.504C211.876 30.76 212.308 30.888 212.82 30.888C213.476 30.888 214.052 30.752 214.548 30.48C215.06 30.192 215.452 29.8 215.724 29.304C216.012 28.808 216.156 28.264 216.156 27.672V24.312C216.156 23.752 215.932 23.288 215.484 22.92C215.052 22.536 214.476 22.344 213.756 22.344C213.084 22.344 212.484 22.528 211.956 22.896C211.444 23.248 211.068 23.72 210.828 24.312L208.26 23.064C208.516 22.376 208.916 21.784 209.46 21.288C210.02 20.776 210.676 20.376 211.428 20.088C212.18 19.8 212.996 19.656 213.876 19.656C214.948 19.656 215.892 19.856 216.708 20.256C217.524 20.64 218.156 21.184 218.604 21.888C219.068 22.576 219.3 23.384 219.3 24.312V33H216.324V30.768L216.996 30.72C216.66 31.28 216.26 31.752 215.796 32.136C215.332 32.504 214.804 32.792 214.212 33C213.62 33.192 212.964 33.288 212.244 33.288ZM222.206 33V19.944H225.158V22.968L224.822 22.464C225.062 21.52 225.542 20.816 226.262 20.352C226.982 19.888 227.83 19.656 228.806 19.656C229.878 19.656 230.822 19.936 231.638 20.496C232.454 21.056 232.982 21.792 233.222 22.704L232.334 22.776C232.734 21.736 233.334 20.96 234.134 20.448C234.934 19.92 235.854 19.656 236.894 19.656C237.822 19.656 238.646 19.864 239.366 20.28C240.102 20.696 240.678 21.28 241.094 22.032C241.51 22.768 241.718 23.624 241.718 24.6V33H238.574V25.344C238.574 24.768 238.47 24.272 238.262 23.856C238.054 23.44 237.766 23.12 237.398 22.896C237.03 22.656 236.582 22.536 236.054 22.536C235.558 22.536 235.118 22.656 234.734 22.896C234.35 23.12 234.054 23.44 233.846 23.856C233.638 24.272 233.534 24.768 233.534 25.344V33H230.39V25.344C230.39 24.768 230.286 24.272 230.078 23.856C229.87 23.44 229.574 23.12 229.19 22.896C228.822 22.656 228.382 22.536 227.87 22.536C227.374 22.536 226.934 22.656 226.55 22.896C226.166 23.12 225.87 23.44 225.662 23.856C225.454 24.272 225.35 24.768 225.35 25.344V33H222.206Z" fill="#FF9C00"/>
</svg>
