<svg width="48" height="48" viewBox="0 0 48 48" fill="none" xmlns="http://www.w3.org/2000/svg">
<path d="M40.6154 10H7.38462C7.01739 10 6.66521 10.1459 6.40554 10.4055C6.14588 10.6652 6 11.0174 6 11.3846V36.3077C6 36.6749 6.14588 37.0271 6.40554 37.2868C6.66521 37.5464 7.01739 37.6923 7.38462 37.6923H40.6154C40.9826 37.6923 41.3348 37.5464 41.5945 37.2868C41.8541 37.0271 42 36.6749 42 36.3077V11.3846C42 11.0174 41.8541 10.6652 41.5945 10.4055C41.3348 10.1459 40.9826 10 40.6154 10ZM17.0769 26.6154V21.0769H30.9231V26.6154H17.0769ZM8.76923 26.6154V21.0769H14.3077V26.6154H8.76923ZM33.6923 21.0769H39.2308V26.6154H33.6923V21.0769ZM39.2308 18.3077H25.3846V12.7692H39.2308V18.3077ZM22.6154 12.7692V18.3077H8.76923V12.7692H22.6154ZM8.76923 29.3846H22.6154V34.9231H8.76923V29.3846ZM25.3846 34.9231V29.3846H39.2308V34.9231H25.3846Z" fill="#FF9C00"/>
</svg>
