<svg width="48" height="48" viewBox="0 0 48 48" fill="none" xmlns="http://www.w3.org/2000/svg">
<path d="M34 6H14C12.8954 6 12 6.89543 12 8V40C12 41.1046 12.8954 42 14 42H34C35.1046 42 36 41.1046 36 40V8C36 6.89543 35.1046 6 34 6Z" stroke="#FF9C00" stroke-width="3" stroke-linecap="round" stroke-linejoin="round"/>
<path d="M28.4397 6C28.0714 8.38286 27.4822 10.7263 26.6797 13C24.8597 18.34 26.2797 24.06 35.9997 25" stroke="#FF9C00" stroke-width="3" stroke-linecap="round" stroke-linejoin="round"/>
<path d="M19.04 22C18.5334 19.5085 17.4966 17.1553 16 15.1C14.9464 13.7489 13.5713 12.6831 12 12" stroke="#FF9C00" stroke-width="3" stroke-linecap="round" stroke-linejoin="round"/>
<path d="M24 42.0001C24 38.0001 22.9 32.7801 17.34 31.8601C15.5071 31.5323 13.7162 31.0024 12 30.2801" stroke="#FF9C00" stroke-width="3" stroke-linecap="round" stroke-linejoin="round"/>
<path d="M30 31.9999C31.7294 33.7003 33.7653 35.0575 36 35.9999" stroke="#FF9C00" stroke-width="3" stroke-linecap="round" stroke-linejoin="round"/>
</svg>
