<svg width="48" height="48" viewBox="0 0 48 48" fill="none" xmlns="http://www.w3.org/2000/svg">
<path d="M24 5C13.4988 5 5 13.4978 5 24C5 34.5013 13.4978 43 24 43C34.5012 43 43 34.5022 43 24C43 13.4987 34.5022 5 24 5ZM24 40.5218C14.8899 40.5218 7.47824 33.1101 7.47824 24C7.47824 14.8899 14.8899 7.47824 24 7.47824C33.1101 7.47824 40.5218 14.8899 40.5218 24C40.5218 33.1101 33.1101 40.5218 24 40.5218Z" fill="#FF9C00"/>
<path d="M24.0002 9.95642C16.2287 9.95642 9.95673 16.2617 9.95673 23.9999C9.95673 27.6083 11.3574 31.2175 14.07 33.9301C14.5539 34.414 15.3385 34.414 15.8224 33.9301L17.5748 32.1777C18.0587 31.6939 18.0587 30.9093 17.5748 30.4254C17.0909 29.9415 16.3064 29.9415 15.8224 30.4254L14.9928 31.2549C13.5648 29.4847 12.736 27.3881 12.5064 25.239H13.6742C14.3585 25.239 14.9134 24.6842 14.9134 23.9999C14.9134 23.3156 14.3586 22.7607 13.6742 22.7607H12.5071C12.7367 20.6117 13.5655 18.5155 14.9934 16.7453L15.8225 17.5742C16.3064 18.0581 17.0909 18.0581 17.5748 17.5742C18.0587 17.0904 18.0587 16.3058 17.5748 15.8219L16.7454 14.9925C18.473 13.5969 20.5474 12.7395 22.7612 12.5061V13.6737C22.7612 14.358 23.316 14.9129 24.0003 14.9129C24.6846 14.9129 25.2395 14.3581 25.2395 13.6737V12.5062C27.4532 12.7396 29.5276 13.5971 31.2552 14.9925L25.9091 20.3387C25.3377 20.0396 24.6886 19.8694 24.0003 19.8694C21.7227 19.8694 19.8698 21.7223 19.8698 23.9998C19.8698 26.2773 21.7228 28.1302 24.0003 28.1302C26.2778 28.1302 28.1307 26.2773 28.1307 23.9998C28.1307 23.3114 27.9605 22.6624 27.6614 22.091L33.0071 16.7454C34.435 18.5155 35.2638 20.6117 35.4934 22.7608H34.3262C33.6419 22.7608 33.0871 23.3156 33.0871 23.9999C33.0871 24.6842 33.6419 25.2391 34.3262 25.2391H35.494C35.2644 27.3882 34.4356 29.4849 33.0076 31.255L32.178 30.4254C31.6942 29.9416 30.9096 29.9416 30.4257 30.4254C29.9418 30.9093 29.9418 31.6939 30.4257 32.1778L32.178 33.9302C32.6619 34.4141 33.4465 34.4141 33.9304 33.9302C36.6381 31.2225 38.0437 27.6154 38.0437 23.9999C38.0436 16.2574 31.7691 9.95642 24.0002 9.95642ZM24.0002 25.6521C23.0891 25.6521 22.348 24.9109 22.348 23.9999C22.348 23.0888 23.0891 22.3477 24.0002 22.3477C24.9112 22.3477 25.6524 23.0888 25.6524 23.9999C25.6524 24.9109 24.9112 25.6521 24.0002 25.6521Z" fill="#FF9C00"/>
<path d="M25.2392 30.6086H22.7609C20.7111 30.6086 19.0435 32.2763 19.0435 34.326C19.0435 36.3758 20.7111 38.0434 22.7609 38.0434H25.2392C27.2889 38.0434 28.9565 36.3758 28.9565 34.326C28.9565 32.2763 27.2889 30.6086 25.2392 30.6086ZM25.2392 35.5652H22.7609C22.0777 35.5652 21.5218 35.0093 21.5218 34.326C21.5218 33.6428 22.0777 33.0869 22.7609 33.0869H25.2392C25.9224 33.0869 26.4783 33.6428 26.4783 34.326C26.4783 35.0093 25.9224 35.5652 25.2392 35.5652Z" fill="#FF9C00"/>
</svg>
