<svg width="325" height="200" viewBox="0 0 325 200" fill="none" xmlns="http://www.w3.org/2000/svg">
<path d="M241.08 93.23L242.574 79.9624L245.738 79.8068L253.485 92.6199L250.825 92.7508L249.2 89.997L244.022 90.2517L243.723 93.1L241.08 93.23ZM244.22 88.1167L247.995 87.931L244.209 81.5467L244.892 81.5131L244.22 88.1167Z" fill="#FF9C00"/>
<path d="M272.216 131.307L272.288 125.534L267.252 128.359L272.216 131.307ZM252.889 96.8541L252.453 97.0988L269.578 127.627L270.015 127.383L270.451 127.138L253.325 96.6095L252.889 96.8541Z" fill="#FF9C00"/>
<path d="M221.331 41.7265L226.295 44.6749L221.259 47.4996L221.331 41.7265ZM240.658 76.1797L240.222 76.4243L223.096 45.8958L223.532 45.6512L223.968 45.4065L241.094 75.9351L240.658 76.1797Z" fill="#FF9C00"/>
<path d="M92.2007 98.5392C91.2413 98.5739 90.3246 98.4345 89.4506 98.1209C88.5885 97.8069 87.7992 97.3534 87.0825 96.7604C86.3779 96.167 85.787 95.4623 85.3098 94.6464C84.8326 93.8306 84.5102 92.9317 84.3425 91.9499C84.1748 90.9682 84.1822 90.0574 84.3646 89.2177C84.5569 88.3657 84.9014 87.6273 85.398 87.0023C85.9046 86.3651 86.5373 85.8662 87.2962 85.5055C88.0531 85.133 88.9112 84.9294 89.8706 84.8948C90.83 84.8601 91.7147 84.9888 92.5247 85.2809C93.3468 85.5725 94.0671 85.975 94.6856 86.4882C95.3022 86.9896 95.7779 87.5496 96.1128 88.1683L94.0909 89.259C93.726 88.6057 93.2073 88.0769 92.535 87.6728C91.8607 87.2568 91.0978 87.0642 90.2463 87.0949C89.4069 87.1253 88.6967 87.3473 88.1158 87.7611C87.5468 88.1744 87.1411 88.7306 86.8985 89.4296C86.6679 90.1283 86.6313 90.9389 86.7889 91.8615C86.9465 92.7842 87.2587 93.5882 87.7257 94.2735C88.2026 94.9466 88.7922 95.4668 89.4944 95.8342C90.2087 96.2011 90.9855 96.3694 91.825 96.3391C92.6764 96.3083 93.3656 96.0692 93.8925 95.6217C94.4173 95.1624 94.7491 94.5969 94.8878 93.9254L97.2551 94.8575C97.1343 95.4926 96.8556 96.0859 96.4188 96.6373C95.98 97.1768 95.4042 97.6201 94.6912 97.9672C93.9903 98.3139 93.1601 98.5046 92.2007 98.5392Z" fill="#FF9C00"/>
<path d="M93.4088 135.219L90.4702 130.237L96.2436 130.204L93.4088 135.219ZM93.041 99.7871L93.541 99.7843L93.8621 130.718L93.3621 130.72L92.8621 130.723L92.541 99.79L93.041 99.7871Z" fill="#FF9C00"/>
<path d="M91.6004 49.2682L88.8872 54.2826L94.6606 54.2499L91.6004 49.2682ZM92.8301 84.6955L93.3301 84.6927L92.2565 53.7636L91.7565 53.7664L91.2565 53.7693L92.3301 84.6984L92.8301 84.6955Z" fill="#FF9C00"/>
<path d="M168.122 153.61L168.146 140.2L173.798 140.233C174.686 140.238 175.442 140.399 176.065 140.714C176.701 141.018 177.186 141.453 177.521 142.019C177.868 142.573 178.041 143.246 178.039 144.038C178.038 144.65 177.869 145.225 177.532 145.763C177.207 146.289 176.685 146.724 175.964 147.068L175.966 145.934C176.625 146.19 177.147 146.505 177.53 146.879C177.914 147.253 178.183 147.669 178.338 148.126C178.493 148.583 178.57 149.063 178.569 149.567C178.567 150.851 178.139 151.857 177.286 152.584C176.445 153.299 175.274 153.652 173.774 153.643L168.122 153.61ZM170.574 151.464L174.03 151.485C174.666 151.488 175.17 151.317 175.543 150.971C175.927 150.614 176.12 150.141 176.121 149.553C176.122 148.965 175.931 148.49 175.548 148.127C175.177 147.765 174.673 147.582 174.037 147.579L170.581 147.558L170.574 151.464ZM170.585 145.416L173.915 145.436C174.419 145.439 174.821 145.297 175.122 145.011C175.422 144.713 175.573 144.33 175.574 143.862C175.575 143.394 175.425 143.021 175.126 142.743C174.826 142.465 174.425 142.325 173.921 142.322L170.591 142.302L170.585 145.416Z" fill="#FF9C00"/>
<path d="M113.891 147.246L118.888 144.37L118.894 150.144L113.891 147.246ZM161.059 147.349L161.059 147.849L118.392 147.756L118.391 147.256L118.391 146.756L161.058 146.849L161.059 147.349Z" fill="#FF9C00"/>
<path d="M228.315 146.58L223.312 143.774L223.318 149.547L228.315 146.58ZM181.148 147.339L181.149 147.839L223.816 147.152L223.815 146.652L223.814 146.152L181.148 146.839L181.148 147.339Z" fill="#FF9C00"/>
<path d="M193.227 45H116.011C109.93 45 105 48.8616 105 53.625V128.375C105 133.139 109.93 137 116.011 137H234.977C242.917 137 248.247 130.616 245.065 124.918L203.315 50.1679C201.561 47.0285 197.601 45 193.227 45Z" stroke="#FF9C00" stroke-width="3"/>
<path d="M83.8139 33V15.12H90.4859C91.7019 15.12 92.7739 15.344 93.7019 15.792C94.6459 16.224 95.3819 16.864 95.9099 17.712C96.4379 18.544 96.7019 19.56 96.7019 20.76C96.7019 21.944 96.4299 22.96 95.8859 23.808C95.3579 24.64 94.6299 25.28 93.7019 25.728C92.7739 26.176 91.7019 26.4 90.4859 26.4H87.0779V33H83.8139ZM87.0779 23.52H90.5339C91.1259 23.52 91.6379 23.408 92.0699 23.184C92.5019 22.944 92.8379 22.616 93.0779 22.2C93.3179 21.784 93.4379 21.304 93.4379 20.76C93.4379 20.2 93.3179 19.72 93.0779 19.32C92.8379 18.904 92.5019 18.584 92.0699 18.36C91.6379 18.12 91.1259 18 90.5339 18H87.0779V23.52ZM102.299 33.288C101.387 33.288 100.595 33.136 99.923 32.832C99.251 32.528 98.731 32.096 98.363 31.536C97.995 30.96 97.811 30.296 97.811 29.544C97.811 28.824 97.971 28.184 98.291 27.624C98.611 27.048 99.107 26.568 99.779 26.184C100.451 25.8 101.299 25.528 102.323 25.368L106.595 24.672V27.072L102.923 27.696C102.299 27.808 101.835 28.008 101.531 28.296C101.227 28.584 101.075 28.96 101.075 29.424C101.075 29.872 101.243 30.232 101.579 30.504C101.931 30.76 102.363 30.888 102.875 30.888C103.531 30.888 104.107 30.752 104.603 30.48C105.115 30.192 105.507 29.8 105.779 29.304C106.067 28.808 106.211 28.264 106.211 27.672V24.312C106.211 23.752 105.987 23.288 105.539 22.92C105.107 22.536 104.531 22.344 103.811 22.344C103.139 22.344 102.539 22.528 102.011 22.896C101.499 23.248 101.123 23.72 100.883 24.312L98.315 23.064C98.571 22.376 98.971 21.784 99.515 21.288C100.075 20.776 100.731 20.376 101.483 20.088C102.235 19.8 103.051 19.656 103.931 19.656C105.003 19.656 105.947 19.856 106.763 20.256C107.579 20.64 108.211 21.184 108.659 21.888C109.123 22.576 109.355 23.384 109.355 24.312V33H106.379V30.768L107.051 30.72C106.715 31.28 106.315 31.752 105.851 32.136C105.387 32.504 104.859 32.792 104.267 33C103.675 33.192 103.019 33.288 102.299 33.288ZM112.261 33V19.944H115.213V22.848L114.973 22.416C115.277 21.44 115.749 20.76 116.389 20.376C117.045 19.992 117.829 19.8 118.741 19.8H119.509V22.584H118.381C117.485 22.584 116.765 22.864 116.221 23.424C115.677 23.968 115.405 24.736 115.405 25.728V33H112.261ZM125.197 33.288C124.285 33.288 123.493 33.136 122.821 32.832C122.149 32.528 121.629 32.096 121.261 31.536C120.893 30.96 120.709 30.296 120.709 29.544C120.709 28.824 120.869 28.184 121.189 27.624C121.509 27.048 122.005 26.568 122.677 26.184C123.349 25.8 124.197 25.528 125.221 25.368L129.493 24.672V27.072L125.821 27.696C125.197 27.808 124.733 28.008 124.429 28.296C124.125 28.584 123.973 28.96 123.973 29.424C123.973 29.872 124.141 30.232 124.477 30.504C124.829 30.76 125.261 30.888 125.773 30.888C126.429 30.888 127.005 30.752 127.501 30.48C128.013 30.192 128.405 29.8 128.677 29.304C128.965 28.808 129.109 28.264 129.109 27.672V24.312C129.109 23.752 128.885 23.288 128.437 22.92C128.005 22.536 127.429 22.344 126.709 22.344C126.037 22.344 125.437 22.528 124.909 22.896C124.397 23.248 124.021 23.72 123.781 24.312L121.213 23.064C121.469 22.376 121.869 21.784 122.413 21.288C122.973 20.776 123.629 20.376 124.381 20.088C125.133 19.8 125.949 19.656 126.829 19.656C127.901 19.656 128.845 19.856 129.661 20.256C130.477 20.64 131.109 21.184 131.557 21.888C132.021 22.576 132.253 23.384 132.253 24.312V33H129.277V30.768L129.949 30.72C129.613 31.28 129.213 31.752 128.749 32.136C128.285 32.504 127.757 32.792 127.165 33C126.573 33.192 125.917 33.288 125.197 33.288ZM135.159 33V14.832H138.303V33H135.159ZM141.206 33V14.832H144.35V33H141.206ZM153.445 33.288C152.101 33.288 150.925 32.984 149.917 32.376C148.909 31.768 148.125 30.944 147.565 29.904C147.005 28.864 146.725 27.712 146.725 26.448C146.725 25.136 147.005 23.976 147.565 22.968C148.141 21.944 148.917 21.136 149.893 20.544C150.885 19.952 151.989 19.656 153.205 19.656C154.229 19.656 155.125 19.824 155.893 20.16C156.677 20.496 157.341 20.96 157.885 21.552C158.429 22.144 158.845 22.824 159.133 23.592C159.421 24.344 159.565 25.16 159.565 26.04C159.565 26.264 159.549 26.496 159.517 26.736C159.501 26.976 159.461 27.184 159.397 27.36H149.317V24.96H157.621L156.133 26.088C156.277 25.352 156.237 24.696 156.013 24.12C155.805 23.544 155.453 23.088 154.957 22.752C154.477 22.416 153.893 22.248 153.205 22.248C152.549 22.248 151.965 22.416 151.453 22.752C150.941 23.072 150.549 23.552 150.277 24.192C150.021 24.816 149.925 25.576 149.989 26.472C149.925 27.272 150.029 27.984 150.301 28.608C150.589 29.216 151.005 29.688 151.549 30.024C152.109 30.36 152.749 30.528 153.469 30.528C154.189 30.528 154.797 30.376 155.293 30.072C155.805 29.768 156.205 29.36 156.493 28.848L159.037 30.096C158.781 30.72 158.381 31.272 157.837 31.752C157.293 32.232 156.645 32.608 155.893 32.88C155.157 33.152 154.341 33.288 153.445 33.288ZM161.948 33V14.832H165.092V33H161.948ZM174.379 33.288C173.099 33.288 171.931 32.992 170.875 32.4C169.835 31.808 169.003 31 168.379 29.976C167.771 28.952 167.467 27.784 167.467 26.472C167.467 25.16 167.771 23.992 168.379 22.968C169.003 21.944 169.835 21.136 170.875 20.544C171.915 19.952 173.083 19.656 174.379 19.656C175.659 19.656 176.819 19.952 177.859 20.544C178.899 21.136 179.723 21.944 180.331 22.968C180.955 23.976 181.267 25.144 181.267 26.472C181.267 27.784 180.955 28.952 180.331 29.976C179.707 31 178.875 31.808 177.835 32.4C176.795 32.992 175.643 33.288 174.379 33.288ZM174.379 30.408C175.083 30.408 175.699 30.24 176.227 29.904C176.771 29.568 177.195 29.104 177.499 28.512C177.819 27.904 177.979 27.224 177.979 26.472C177.979 25.704 177.819 25.032 177.499 24.456C177.195 23.864 176.771 23.4 176.227 23.064C175.699 22.712 175.083 22.536 174.379 22.536C173.659 22.536 173.027 22.712 172.483 23.064C171.939 23.4 171.507 23.864 171.187 24.456C170.883 25.032 170.731 25.704 170.731 26.472C170.731 27.224 170.883 27.904 171.187 28.512C171.507 29.104 171.939 29.568 172.483 29.904C173.027 30.24 173.659 30.408 174.379 30.408ZM189.988 38.28C189.012 38.28 188.108 38.12 187.276 37.8C186.444 37.48 185.724 37.032 185.116 36.456C184.524 35.896 184.092 35.232 183.82 34.464L186.748 33.36C186.94 33.968 187.316 34.456 187.876 34.824C188.452 35.208 189.156 35.4 189.988 35.4C190.628 35.4 191.188 35.28 191.668 35.04C192.164 34.8 192.548 34.448 192.82 33.984C193.092 33.536 193.228 32.992 193.228 32.352V29.376L193.828 30.096C193.38 30.88 192.78 31.472 192.028 31.872C191.276 32.272 190.42 32.472 189.46 32.472C188.244 32.472 187.156 32.192 186.196 31.632C185.236 31.072 184.484 30.304 183.94 29.328C183.396 28.352 183.124 27.256 183.124 26.04C183.124 24.808 183.396 23.712 183.94 22.752C184.484 21.792 185.228 21.04 186.172 20.496C187.116 19.936 188.188 19.656 189.388 19.656C190.364 19.656 191.22 19.864 191.956 20.28C192.708 20.68 193.332 21.264 193.828 22.032L193.396 22.824V19.944H196.372V32.352C196.372 33.488 196.092 34.504 195.532 35.4C194.988 36.296 194.236 37 193.276 37.512C192.332 38.024 191.236 38.28 189.988 38.28ZM189.844 29.568C190.516 29.568 191.1 29.424 191.596 29.136C192.108 28.832 192.508 28.416 192.796 27.888C193.084 27.36 193.228 26.752 193.228 26.064C193.228 25.392 193.076 24.792 192.772 24.264C192.484 23.72 192.084 23.296 191.572 22.992C191.076 22.688 190.5 22.536 189.844 22.536C189.188 22.536 188.596 22.688 188.068 22.992C187.54 23.296 187.124 23.72 186.82 24.264C186.532 24.792 186.388 25.392 186.388 26.064C186.388 26.736 186.532 27.336 186.82 27.864C187.124 28.392 187.532 28.808 188.044 29.112C188.572 29.416 189.172 29.568 189.844 29.568ZM199.308 33V19.944H202.26V22.848L202.02 22.416C202.324 21.44 202.796 20.76 203.436 20.376C204.092 19.992 204.876 19.8 205.788 19.8H206.556V22.584H205.428C204.532 22.584 203.812 22.864 203.268 23.424C202.724 23.968 202.452 24.736 202.452 25.728V33H199.308ZM212.244 33.288C211.332 33.288 210.54 33.136 209.868 32.832C209.196 32.528 208.676 32.096 208.308 31.536C207.94 30.96 207.756 30.296 207.756 29.544C207.756 28.824 207.916 28.184 208.236 27.624C208.556 27.048 209.052 26.568 209.724 26.184C210.396 25.8 211.244 25.528 212.268 25.368L216.54 24.672V27.072L212.868 27.696C212.244 27.808 211.78 28.008 211.476 28.296C211.172 28.584 211.02 28.96 211.02 29.424C211.02 29.872 211.188 30.232 211.524 30.504C211.876 30.76 212.308 30.888 212.82 30.888C213.476 30.888 214.052 30.752 214.548 30.48C215.06 30.192 215.452 29.8 215.724 29.304C216.012 28.808 216.156 28.264 216.156 27.672V24.312C216.156 23.752 215.932 23.288 215.484 22.92C215.052 22.536 214.476 22.344 213.756 22.344C213.084 22.344 212.484 22.528 211.956 22.896C211.444 23.248 211.068 23.72 210.828 24.312L208.26 23.064C208.516 22.376 208.916 21.784 209.46 21.288C210.02 20.776 210.676 20.376 211.428 20.088C212.18 19.8 212.996 19.656 213.876 19.656C214.948 19.656 215.892 19.856 216.708 20.256C217.524 20.64 218.156 21.184 218.604 21.888C219.068 22.576 219.3 23.384 219.3 24.312V33H216.324V30.768L216.996 30.72C216.66 31.28 216.26 31.752 215.796 32.136C215.332 32.504 214.804 32.792 214.212 33C213.62 33.192 212.964 33.288 212.244 33.288ZM222.206 33V19.944H225.158V22.968L224.822 22.464C225.062 21.52 225.542 20.816 226.262 20.352C226.982 19.888 227.83 19.656 228.806 19.656C229.878 19.656 230.822 19.936 231.638 20.496C232.454 21.056 232.982 21.792 233.222 22.704L232.334 22.776C232.734 21.736 233.334 20.96 234.134 20.448C234.934 19.92 235.854 19.656 236.894 19.656C237.822 19.656 238.646 19.864 239.366 20.28C240.102 20.696 240.678 21.28 241.094 22.032C241.51 22.768 241.718 23.624 241.718 24.6V33H238.574V25.344C238.574 24.768 238.47 24.272 238.262 23.856C238.054 23.44 237.766 23.12 237.398 22.896C237.03 22.656 236.582 22.536 236.054 22.536C235.558 22.536 235.118 22.656 234.734 22.896C234.35 23.12 234.054 23.44 233.846 23.856C233.638 24.272 233.534 24.768 233.534 25.344V33H230.39V25.344C230.39 24.768 230.286 24.272 230.078 23.856C229.87 23.44 229.574 23.12 229.19 22.896C228.822 22.656 228.382 22.536 227.87 22.536C227.374 22.536 226.934 22.656 226.55 22.896C226.166 23.12 225.87 23.44 225.662 23.856C225.454 24.272 225.35 24.768 225.35 25.344V33H222.206Z" fill="#FF9C00"/>
</svg>
