<svg width="48" height="48" viewBox="0 0 48 48" fill="none" xmlns="http://www.w3.org/2000/svg">
<path fill-rule="evenodd" clip-rule="evenodd" d="M3 12.7188C3 10.6649 4.56701 9 6.5 9H41.5C43.433 9 45 10.6649 45 12.7188V35.0312C45 37.085 43.433 38.75 41.5 38.75H6.5C4.56701 38.75 3 37.085 3 35.0312V12.7188ZM6.5 11.975C6.1134 11.975 5.8 12.308 5.8 12.7188V35.0312C5.8 35.4419 6.1134 35.775 6.5 35.775H41.5C41.8865 35.775 42.2 35.4419 42.2 35.0312V12.7188C42.2 12.308 41.8865 11.975 41.5 11.975H6.5Z" fill="#FF9C00"/>
</svg>
