<svg width="325" height="204" viewBox="0 0 325 204" fill="none" xmlns="http://www.w3.org/2000/svg">
<path d="M78.5 155L78.5 40" stroke="#FF9C00"/>
<path d="M258.822 111.038L255.222 97.6282H257.85L260.676 109.058H259.992L262.944 97.6282H265.482L268.416 109.058H267.732L270.558 97.6282H273.186L269.586 111.038H266.778L263.808 99.9142H264.6L261.63 111.038H258.822Z" fill="#FF9C00"/>
<path d="M264.199 151L267.086 146L261.312 146L264.199 151ZM264.199 111.427L263.699 111.427L263.699 146.5L264.199 146.5L264.699 146.5L264.699 111.427L264.199 111.427Z" fill="#FF9C00"/>
<path d="M264.199 55L267.086 60L261.312 60L264.199 55ZM264.199 94.5725L263.699 94.5725L263.699 59.5L264.199 59.5L264.699 59.5L264.699 94.5725L264.199 94.5725Z" fill="#FF9C00"/>
<path d="M160.035 45.4414L160.227 32.0328L162.674 32.0678L162.513 43.3167L168.255 43.3988L168.224 45.5586L160.035 45.4414Z" fill="#FF9C00"/>
<path d="M95.8746 41.0637L100.859 38.1888L100.89 43.9622L95.8746 41.0637ZM150.992 41.1942L150.995 41.6942L100.377 41.5743L100.375 41.0743L100.372 40.5743L150.989 40.6942L150.992 41.1942Z" fill="#FF9C00"/>
<path d="M229.582 40.4642L224.566 37.6439L224.598 43.4173L229.582 40.4642ZM174.469 41.1957L174.471 41.6957L225.085 41.0239L225.082 40.5239L225.079 40.0239L174.466 40.6957L174.469 41.1957Z" fill="#FF9C00"/>
<path d="M79 154.5L268.567 154.5" stroke="#FF9C00"/>
<path fill-rule="evenodd" clip-rule="evenodd" d="M81 63C81 55.8203 86.9695 50 94.3333 50H227.667C235.03 50 241 55.8203 241 63V141C241 148.18 235.03 154 227.667 154H94.3333C86.9695 154 81 148.18 81 141V63ZM94.3333 60.4C92.8606 60.4 91.6667 61.5641 91.6667 63V141C91.6667 142.436 92.8606 143.6 94.3333 143.6H227.667C229.139 143.6 230.333 142.436 230.333 141V63C230.333 61.5641 229.139 60.4 227.667 60.4H94.3333Z" fill="#FF9C00"/>
<path d="M104.802 19V1.12H111.45C112.666 1.12 113.738 1.344 114.666 1.792C115.61 2.224 116.346 2.864 116.874 3.712C117.402 4.544 117.666 5.56 117.666 6.76C117.666 7.992 117.37 9.04 116.778 9.904C116.202 10.768 115.418 11.408 114.426 11.824L118.53 19H114.834L110.442 11.152L112.554 12.4H108.066V19H104.802ZM108.066 9.52H111.498C112.09 9.52 112.602 9.408 113.034 9.184C113.466 8.944 113.802 8.616 114.042 8.2C114.282 7.784 114.402 7.304 114.402 6.76C114.402 6.2 114.282 5.72 114.042 5.32C113.802 4.904 113.466 4.584 113.034 4.36C112.602 4.12 112.09 4 111.498 4H108.066V9.52ZM125.871 19.288C124.527 19.288 123.351 18.984 122.343 18.376C121.335 17.768 120.551 16.944 119.991 15.904C119.431 14.864 119.151 13.712 119.151 12.448C119.151 11.136 119.431 9.976 119.991 8.968C120.567 7.944 121.343 7.136 122.319 6.544C123.311 5.952 124.415 5.656 125.631 5.656C126.655 5.656 127.551 5.824 128.319 6.16C129.103 6.496 129.767 6.96 130.311 7.552C130.855 8.144 131.271 8.824 131.559 9.592C131.847 10.344 131.991 11.16 131.991 12.04C131.991 12.264 131.975 12.496 131.943 12.736C131.927 12.976 131.887 13.184 131.823 13.36H121.743V10.96H130.047L128.559 12.088C128.703 11.352 128.663 10.696 128.439 10.12C128.231 9.544 127.879 9.088 127.383 8.752C126.903 8.416 126.319 8.248 125.631 8.248C124.975 8.248 124.391 8.416 123.879 8.752C123.367 9.072 122.975 9.552 122.703 10.192C122.447 10.816 122.351 11.576 122.415 12.472C122.351 13.272 122.455 13.984 122.727 14.608C123.015 15.216 123.431 15.688 123.975 16.024C124.535 16.36 125.175 16.528 125.895 16.528C126.615 16.528 127.223 16.376 127.719 16.072C128.231 15.768 128.631 15.36 128.919 14.848L131.463 16.096C131.207 16.72 130.807 17.272 130.263 17.752C129.719 18.232 129.071 18.608 128.319 18.88C127.583 19.152 126.767 19.288 125.871 19.288ZM140.662 19.288C139.366 19.288 138.198 18.992 137.158 18.4C136.134 17.792 135.326 16.976 134.734 15.952C134.142 14.912 133.846 13.744 133.846 12.448C133.846 11.152 134.142 9.992 134.734 8.968C135.326 7.944 136.134 7.136 137.158 6.544C138.198 5.952 139.366 5.656 140.662 5.656C141.59 5.656 142.454 5.824 143.254 6.16C144.054 6.48 144.742 6.928 145.318 7.504C145.91 8.064 146.334 8.736 146.59 9.52L143.83 10.72C143.59 10.064 143.182 9.536 142.606 9.136C142.046 8.736 141.398 8.536 140.662 8.536C139.974 8.536 139.358 8.704 138.814 9.04C138.286 9.376 137.87 9.84 137.566 10.432C137.262 11.024 137.11 11.704 137.11 12.472C137.11 13.24 137.262 13.92 137.566 14.512C137.87 15.104 138.286 15.568 138.814 15.904C139.358 16.24 139.974 16.408 140.662 16.408C141.414 16.408 142.07 16.208 142.63 15.808C143.19 15.408 143.59 14.872 143.83 14.2L146.59 15.448C146.334 16.184 145.918 16.848 145.342 17.44C144.766 18.016 144.078 18.472 143.278 18.808C142.478 19.128 141.606 19.288 140.662 19.288ZM154.928 19.144C153.456 19.144 152.312 18.744 151.496 17.944C150.696 17.128 150.296 15.984 150.296 14.512V8.752H148.04V5.944H148.28C148.92 5.944 149.416 5.776 149.768 5.44C150.12 5.104 150.296 4.616 150.296 3.976V2.968H153.44V5.944H156.44V8.752H153.44V14.344C153.44 14.776 153.512 15.144 153.656 15.448C153.816 15.752 154.056 15.984 154.376 16.144C154.712 16.304 155.136 16.384 155.648 16.384C155.76 16.384 155.888 16.376 156.032 16.36C156.192 16.344 156.344 16.328 156.488 16.312V19C156.264 19.032 156.008 19.064 155.72 19.096C155.432 19.128 155.168 19.144 154.928 19.144ZM162.803 19.288C161.891 19.288 161.099 19.136 160.427 18.832C159.755 18.528 159.235 18.096 158.867 17.536C158.499 16.96 158.315 16.296 158.315 15.544C158.315 14.824 158.475 14.184 158.795 13.624C159.115 13.048 159.611 12.568 160.283 12.184C160.955 11.8 161.803 11.528 162.827 11.368L167.099 10.672V13.072L163.427 13.696C162.803 13.808 162.339 14.008 162.035 14.296C161.731 14.584 161.579 14.96 161.579 15.424C161.579 15.872 161.747 16.232 162.083 16.504C162.435 16.76 162.867 16.888 163.379 16.888C164.035 16.888 164.611 16.752 165.107 16.48C165.619 16.192 166.011 15.8 166.283 15.304C166.571 14.808 166.715 14.264 166.715 13.672V10.312C166.715 9.752 166.491 9.288 166.043 8.92C165.611 8.536 165.035 8.344 164.315 8.344C163.643 8.344 163.043 8.528 162.515 8.896C162.003 9.248 161.627 9.72 161.387 10.312L158.819 9.064C159.075 8.376 159.475 7.784 160.019 7.288C160.579 6.776 161.235 6.376 161.987 6.088C162.739 5.8 163.555 5.656 164.435 5.656C165.507 5.656 166.451 5.856 167.267 6.256C168.083 6.64 168.715 7.184 169.163 7.888C169.627 8.576 169.859 9.384 169.859 10.312V19H166.883V16.768L167.555 16.72C167.219 17.28 166.819 17.752 166.355 18.136C165.891 18.504 165.363 18.792 164.771 19C164.179 19.192 163.523 19.288 162.803 19.288ZM172.765 19V5.944H175.717V8.512L175.477 8.056C175.781 7.272 176.277 6.68 176.965 6.28C177.669 5.864 178.485 5.656 179.413 5.656C180.373 5.656 181.221 5.864 181.957 6.28C182.709 6.696 183.293 7.28 183.709 8.032C184.125 8.768 184.333 9.624 184.333 10.6V19H181.189V11.344C181.189 10.768 181.077 10.272 180.853 9.856C180.629 9.44 180.317 9.12 179.917 8.896C179.533 8.656 179.077 8.536 178.549 8.536C178.037 8.536 177.581 8.656 177.181 8.896C176.781 9.12 176.469 9.44 176.245 9.856C176.021 10.272 175.909 10.768 175.909 11.344V19H172.765ZM193.327 24.28C192.351 24.28 191.447 24.12 190.615 23.8C189.783 23.48 189.063 23.032 188.455 22.456C187.863 21.896 187.431 21.232 187.159 20.464L190.087 19.36C190.279 19.968 190.655 20.456 191.215 20.824C191.791 21.208 192.495 21.4 193.327 21.4C193.967 21.4 194.527 21.28 195.007 21.04C195.503 20.8 195.887 20.448 196.159 19.984C196.431 19.536 196.567 18.992 196.567 18.352V15.376L197.167 16.096C196.719 16.88 196.119 17.472 195.367 17.872C194.615 18.272 193.759 18.472 192.799 18.472C191.583 18.472 190.495 18.192 189.535 17.632C188.575 17.072 187.823 16.304 187.279 15.328C186.735 14.352 186.463 13.256 186.463 12.04C186.463 10.808 186.735 9.712 187.279 8.752C187.823 7.792 188.567 7.04 189.511 6.496C190.455 5.936 191.527 5.656 192.727 5.656C193.703 5.656 194.559 5.864 195.295 6.28C196.047 6.68 196.671 7.264 197.167 8.032L196.735 8.824V5.944H199.711V18.352C199.711 19.488 199.431 20.504 198.871 21.4C198.327 22.296 197.575 23 196.615 23.512C195.671 24.024 194.575 24.28 193.327 24.28ZM193.183 15.568C193.855 15.568 194.439 15.424 194.935 15.136C195.447 14.832 195.847 14.416 196.135 13.888C196.423 13.36 196.567 12.752 196.567 12.064C196.567 11.392 196.415 10.792 196.111 10.264C195.823 9.72 195.423 9.296 194.911 8.992C194.415 8.688 193.839 8.536 193.183 8.536C192.527 8.536 191.935 8.688 191.407 8.992C190.879 9.296 190.463 9.72 190.159 10.264C189.871 10.792 189.727 11.392 189.727 12.064C189.727 12.736 189.871 13.336 190.159 13.864C190.463 14.392 190.871 14.808 191.383 15.112C191.911 15.416 192.511 15.568 193.183 15.568ZM202.648 19V0.831999H205.792V19H202.648ZM214.886 19.288C213.542 19.288 212.366 18.984 211.358 18.376C210.35 17.768 209.566 16.944 209.006 15.904C208.446 14.864 208.166 13.712 208.166 12.448C208.166 11.136 208.446 9.976 209.006 8.968C209.582 7.944 210.358 7.136 211.334 6.544C212.326 5.952 213.43 5.656 214.646 5.656C215.67 5.656 216.566 5.824 217.334 6.16C218.118 6.496 218.782 6.96 219.326 7.552C219.87 8.144 220.286 8.824 220.574 9.592C220.862 10.344 221.006 11.16 221.006 12.04C221.006 12.264 220.99 12.496 220.958 12.736C220.942 12.976 220.902 13.184 220.838 13.36H210.758V10.96H219.062L217.574 12.088C217.718 11.352 217.678 10.696 217.454 10.12C217.246 9.544 216.894 9.088 216.398 8.752C215.918 8.416 215.334 8.248 214.646 8.248C213.99 8.248 213.406 8.416 212.894 8.752C212.382 9.072 211.99 9.552 211.718 10.192C211.462 10.816 211.366 11.576 211.43 12.472C211.366 13.272 211.47 13.984 211.742 14.608C212.03 15.216 212.446 15.688 212.99 16.024C213.55 16.36 214.19 16.528 214.91 16.528C215.63 16.528 216.238 16.376 216.734 16.072C217.246 15.768 217.646 15.36 217.934 14.848L220.478 16.096C220.222 16.72 219.822 17.272 219.278 17.752C218.734 18.232 218.086 18.608 217.334 18.88C216.598 19.152 215.782 19.288 214.886 19.288Z" fill="#FF9C00"/>
</svg>
