<svg width="48" height="48" viewBox="0 0 48 48" fill="none" xmlns="http://www.w3.org/2000/svg">
<path d="M41.1429 32.1044V35.1429L24 8.00006L6.85714 35.1429V32.1044H4V39.2472H19.0943L21.0057 36.0629C22.2857 33.9272 23.2886 31.6658 24 29.3072C24.7129 31.6672 25.7143 33.9286 26.9943 36.0629L28.9057 39.2472H44V32.1044H41.1429ZM18.5557 34.5929L17.4771 36.3901H9.44857L22.5714 15.6129V21.9872L22.0543 25.0901C21.4929 28.4629 20.3143 31.6601 18.5557 34.5929ZM30.5229 36.3901L29.4443 34.5929C27.6857 31.6601 26.5071 28.4629 25.9457 25.0915L25.4286 21.9872V15.6129L38.5514 36.3901H30.5229Z" fill="#FF9C00"/>
</svg>
