<svg width="48" height="48" viewBox="0 0 48 48" fill="none" xmlns="http://www.w3.org/2000/svg">
<path d="M41.0369 12.7321V4H7V12.7321H9.44914V15.9946C8.86445 16.6498 8.50828 17.513 8.50828 18.4581C8.50828 20.5008 10.1701 22.1627 12.2129 22.1627C12.6534 22.1627 13.0762 22.085 13.4686 21.9433V44H17.3247H23.5287H24.5628H30.7669H34.5685V21.9433C34.9609 22.0851 35.3835 22.1627 35.8242 22.1627C37.8669 22.1627 39.5288 20.5009 39.5288 18.4581C39.5288 17.513 39.1726 16.6498 38.588 15.9946V12.7321H41.0369ZM12.2128 19.7138C11.5205 19.7138 10.9572 19.1505 10.9572 18.4582C10.9572 17.7659 11.5204 17.2026 12.2128 17.2026C12.9052 17.2026 13.4685 17.7659 13.4685 18.4582C13.4684 19.1505 12.9052 19.7138 12.2128 19.7138ZM21.0797 41.551H19.7736V23.4873C19.7736 23.1273 20.0666 22.8343 20.4266 22.8343C20.7867 22.8343 21.0797 23.1273 21.0797 23.4873V41.551ZM28.3178 41.551H27.0117V23.4873C27.0117 23.1273 27.3047 22.8343 27.6648 22.8343C28.0248 22.8343 28.3178 23.1273 28.3178 23.4873V41.551ZM32.1195 41.551H32.1194H30.7668V23.4873C30.7668 21.7769 29.3752 20.3853 27.6648 20.3853C25.9543 20.3853 24.5627 21.7769 24.5627 23.4873V41.551H23.5287V23.4873C23.5287 21.7769 22.1371 20.3853 20.4266 20.3853C18.7162 20.3853 17.3246 21.7769 17.3246 23.4873V41.551H15.9175V17.2025H32.1195V41.551ZM13.4684 14.7535H11.8981V12.732H36.1387V14.7535H34.5684H13.4684ZM35.8241 19.7138C35.1317 19.7138 34.5684 19.1505 34.5684 18.4582C34.5684 17.7659 35.1316 17.2026 35.8241 17.2026C36.5164 17.2026 37.0797 17.7659 37.0797 18.4582C37.0797 19.1505 36.5165 19.7138 35.8241 19.7138ZM38.5877 10.2831H9.44914H9.44898V6.44898H38.5878V10.2831H38.5877Z" fill="#FF9C00"/>
</svg>
