<svg width="48" height="48" viewBox="0 0 48 48" fill="none" xmlns="http://www.w3.org/2000/svg">
<g clip-path="url(#clip0_376_513)">
<path d="M12.165 11H34.1579C35.0256 10.997 35.8855 11.1653 36.6881 11.4953C37.4906 11.8253 38.2202 12.3104 38.8349 12.923C39.4496 13.5355 39.9373 14.2634 40.2701 15.0648C40.6028 15.8662 40.7741 16.7255 40.7741 17.5933C40.7682 19.2074 40.1598 20.7613 39.0682 21.9503H18.7583" stroke="#FF9C00" stroke-width="2.2" stroke-miterlimit="10"/>
<path d="M18.7578 22.0717H40.7737C42.4579 22.1713 44.0405 22.9105 45.1978 24.1382C46.355 25.3659 46.9996 26.9893 46.9996 28.6765C46.9996 30.3637 46.355 31.9871 45.1978 33.2148C44.0405 34.4425 42.4579 35.1817 40.7737 35.2813H18.7578" stroke="#FF9C00" stroke-width="2.2" stroke-miterlimit="10"/>
<path d="M19.8022 35.3274C23.4436 35.3274 26.3954 32.3756 26.3954 28.7342C26.3954 25.0929 23.4436 22.141 19.8022 22.141C16.1609 22.141 13.209 25.0929 13.209 28.7342C13.209 32.3756 16.1609 35.3274 19.8022 35.3274Z" stroke="#FF9C00" stroke-width="2.2" stroke-miterlimit="10"/>
<path d="M6.59277 24.4946C9.62645 24.4946 12.0867 26.9541 12.0869 29.9877C12.0869 33.0215 9.6266 35.4819 6.59277 35.4819C3.55916 35.4816 1.09961 33.0214 1.09961 29.9877C1.09986 26.9543 3.55931 24.4948 6.59277 24.4946Z" stroke="#FF9C00" stroke-width="2.2" stroke-miterlimit="10"/>
<path d="M12.1655 24.1865C15.8068 24.1865 18.7587 21.2346 18.7587 17.5932C18.7587 13.9519 15.8068 11 12.1655 11C8.52416 11 5.57227 13.9519 5.57227 17.5932C5.57227 21.2346 8.52416 24.1865 12.1655 24.1865Z" stroke="#FF9C00" stroke-width="2.2" stroke-miterlimit="10"/>
</g>
<defs>
<clipPath id="clip0_376_513">
<rect width="48" height="48" fill="white"/>
</clipPath>
</defs>
</svg>
