<svg width="48" height="48" viewBox="0 0 48 48" fill="none" xmlns="http://www.w3.org/2000/svg">
<path d="M16.002 23.8496C18.3442 23.8496 20.6873 24.7422 22.4707 26.5264C24.6207 28.6826 25.5622 31.7556 24.9814 34.7461V34.7471C24.9038 35.1409 24.56 35.4209 24.1689 35.4209C24.1164 35.4209 24.0634 35.4155 24.0107 35.4053H24.0098C23.5624 35.3154 23.2671 34.8841 23.3555 34.4316C23.8322 31.9765 23.0635 29.4631 21.2988 27.6973C19.8378 26.2369 17.9184 25.5059 15.999 25.5059C14.0797 25.5059 12.1614 26.2365 10.7012 27.6973C9.28318 29.1142 8.50498 30.997 8.50488 33.001C8.50488 34.8787 9.18866 36.6514 10.4424 38.0312L10.7012 38.3018V38.3027C12.1299 39.7322 14.0656 40.4922 16.0225 40.4922C17.0497 40.4921 18.0826 40.2833 19.0508 39.8516C19.1596 39.803 19.2744 39.7793 19.3867 39.7793C19.7053 39.7794 20.0071 39.9661 20.1445 40.2754C20.3288 40.69 20.1423 41.1781 19.7246 41.3623L19.7256 41.3633C18.5407 41.8952 17.2799 42.1504 16.0264 42.1504C13.6398 42.1503 11.2757 41.2205 9.5293 39.4746C7.8021 37.7463 6.84966 35.4474 6.84961 33.002C6.84961 30.5588 7.80149 28.2552 9.5293 26.5283C11.3145 24.7433 13.6591 23.8497 16.002 23.8496Z" fill="#FF9C00" stroke="#FF9C00" stroke-width="0.3"/>
<path d="M31.8867 1.84961C35.1527 1.84964 38.2928 3.05066 40.7275 5.22949C43.3691 7.59117 44.9321 10.8412 45.1289 14.3799C45.3252 17.9172 44.1326 21.3203 41.7705 23.9609L30.0342 37.085L26.9658 40.5176C24.5369 43.8388 20.6128 46.0029 16.1914 46.0029C8.83467 46.0027 2.84961 40.0147 2.84961 32.6553C2.84975 28.7375 4.54855 25.2092 7.24609 22.7666L10.2549 19.4014L21.9961 6.27148C24.5087 3.46141 28.1134 1.84961 31.8867 1.84961ZM16.1914 21.0186C14.7355 21.0186 13.3069 21.292 11.9463 21.8291L11.0107 22.1982C7.16446 24.1076 4.52069 28.0729 4.52051 32.6553C4.52051 39.1041 9.74551 44.3318 16.1914 44.332C21.2887 44.332 25.6202 41.0646 27.2119 36.5098L27.4316 35.6807C27.6974 34.6817 27.832 33.6642 27.832 32.6562C27.832 26.2393 22.6098 21.0186 16.1914 21.0186ZM31.8867 3.52051C28.7013 3.52051 25.5307 4.82439 23.2412 7.38477L11.9531 20.0068C13.2852 19.5584 14.7102 19.3145 16.1914 19.3145C23.549 19.3145 29.5359 25.299 29.5361 32.6553C29.5361 33.6228 29.43 34.5654 29.2334 35.4746L40.5254 22.8467C44.728 18.1491 44.4007 10.9712 39.835 6.67676L39.6143 6.47461C37.4027 4.49532 34.6395 3.52054 31.8867 3.52051Z" fill="#FF9C00" stroke="#FF9C00" stroke-width="0.3"/>
</svg>
