<svg width="48" height="48" viewBox="0 0 48 48" fill="none" xmlns="http://www.w3.org/2000/svg">
<path d="M18.8446 22.9831L22.983 18.8447L19.2271 15.0887L17.0571 17.2764L15.6104 15.8297L17.7981 13.6597L14.0245 9.91418L9.88657 14.0526L18.8446 22.9831ZM33.9303 38.1243L38.0687 33.9583L34.2956 30.1848L32.1256 32.3724L30.6789 30.9258L32.8489 28.7557L29.1558 25.045L25.0174 29.1834L33.9303 38.1243ZM15.0435 39.2197H8.80834V32.9846L17.3704 24.4225L7 14.0526L13.9793 7.00003L24.4401 17.4152L32.7829 9.07284C32.996 8.85946 33.2277 8.70695 33.4782 8.61533C33.7287 8.52371 33.9848 8.4779 34.2467 8.4779C34.4972 8.4779 34.7477 8.52371 34.9981 8.61533C35.2483 8.70695 35.48 8.85946 35.6934 9.07284L38.9552 12.3866C39.1686 12.6 39.3182 12.8319 39.4041 13.0824C39.4897 13.3325 39.5325 13.5828 39.5325 13.8333C39.5325 14.0952 39.4897 14.3485 39.4041 14.5933C39.3182 14.8377 39.1686 15.0666 38.9552 15.28L30.6477 23.588L41.028 34.0036L34.0207 41L23.6331 30.6301L15.0435 39.2197ZM10.8604 37.1677H14.1466L31.9307 19.3555L28.6445 16.0693L10.8604 33.8815V37.1677ZM30.2788 17.7041L28.6445 16.0693L31.9307 19.3555L30.2788 17.7041Z" fill="#FF9C00"/>
</svg>
