<svg width="48" height="48" viewBox="0 0 48 48" fill="none" xmlns="http://www.w3.org/2000/svg">
<path d="M25.1261 31.6162L28.8421 28.9843L32.53 31.6162L31.1341 27.1247L34.822 24.0286H30.3379L28.8421 19.6107L27.3261 24.0286H22.8161L26.522 27.1247L25.1261 31.6162ZM8.65678 37.6316C7.93436 37.6316 7.31096 37.3652 6.78658 36.8326C6.26219 36.3002 6 35.6809 6 34.9748V12.6568C6 11.9506 6.26219 11.3314 6.78658 10.799C7.31096 10.2663 7.93436 10 8.65678 10H20.1451L23.1564 13.0114H38.3432C39.0494 13.0114 39.6686 13.2776 40.201 13.8099C40.7337 14.3426 41 14.962 41 15.6682V34.9748C41 35.6809 40.7337 36.3002 40.201 36.8326C39.6686 37.3652 39.0494 37.6316 38.3432 37.6316H8.65678ZM8.65678 35.5412H38.3432C38.5084 35.5412 38.6441 35.4881 38.7503 35.3819C38.8566 35.2757 38.9097 35.14 38.9097 34.9748V15.6682C38.9097 15.5027 38.8566 15.3668 38.7503 15.2606C38.6441 15.1544 38.5084 15.1013 38.3432 15.1013H22.3063L19.2949 12.0903H8.65678C8.4916 12.0903 8.3559 12.1434 8.24967 12.2497C8.14344 12.3559 8.09033 12.4916 8.09033 12.6568V34.9748C8.09033 35.14 8.14344 35.2757 8.24967 35.3819C8.3559 35.4881 8.4916 35.5412 8.65678 35.5412Z" fill="#FF9C00"/>
</svg>
