<svg width="325" height="187" viewBox="0 0 325 187" fill="none" xmlns="http://www.w3.org/2000/svg">
<path d="M129.208 38.4268C128.281 39.1763 127.517 40.1255 126.967 41.2108C126.417 42.2961 126.094 43.4925 126.018 44.72C125.941 45.9456 126.109 47.1748 126.513 48.3272C126.917 49.4796 127.548 50.5294 128.363 51.408L156.034 80.4799C157.576 82.094 159.663 83 161.838 83C164.012 83 166.099 82.094 167.641 80.4799L194.655 52.0497C196.167 50.4106 197.009 48.2136 197 45.9293L197 45.485C196.936 44.2705 196.632 43.0834 196.107 41.9997C195.582 40.9161 194.848 39.9597 193.952 39.1919C184.642 31.3205 173.064 27.0206 161.122 27.0004C149.57 26.9519 138.335 30.9744 129.208 38.4268ZM189.637 44.9421C189.774 45.0468 189.886 45.184 189.963 45.3426C190.041 45.5013 190.081 45.6769 190.082 45.8552C190.095 46.033 190.07 46.2115 190.009 46.3779C189.948 46.5443 189.853 46.6945 189.731 46.8177L162.67 75.0999C162.453 75.3324 162.158 75.4655 161.849 75.4701C161.537 75.4708 161.235 75.3474 161.005 75.1246L133.358 46.1761C133.231 46.0513 133.133 45.8972 133.072 45.7259C133.011 45.5547 132.989 45.3708 133.006 45.1889C133.016 45.0123 133.06 44.8397 133.137 44.6824C133.213 44.525 133.321 44.3865 133.452 44.2758C141.522 37.7164 151.458 34.2139 161.654 34.3348C171.85 34.4557 181.709 38.193 189.637 44.9421Z" fill="#FF9C00" stroke="#FFFCF7" stroke-width="0.8"/>
<path d="M183.455 78.7998L187.422 65.8829L190.693 65.9029L196.277 78.8783L193.527 78.8614L192.368 76.075L187.017 76.0423L186.187 78.8165L183.455 78.7998ZM187.611 73.9614L191.513 73.9853L188.806 67.5242L189.512 67.5285L187.611 73.9614Z" fill="#FF9C00"/>
<path d="M167.163 90.5672L173.01 89.5386L169.087 85.3028L167.163 90.5672ZM183.605 77.2532L183.266 76.8864L170.32 87.3685L170.66 87.7354L171 88.1022L183.945 77.62L183.605 77.2532Z" fill="#FF9C00"/>
<path d="M209.683 55.457L207.759 60.7213L203.836 56.4855L209.683 55.457ZM193.24 68.7709L192.9 68.4041L205.846 57.9219L206.186 58.2888L206.525 58.6556L193.58 69.1378L193.24 68.7709Z" fill="#FF9C00"/>
<path d="M130.979 23.028C129.843 23.028 128.787 22.82 127.811 22.404C126.851 21.988 126.019 21.412 125.315 20.676C124.627 19.924 124.123 19.052 123.803 18.06L126.515 16.884C126.947 17.908 127.571 18.716 128.387 19.308C129.203 19.884 130.123 20.172 131.147 20.172C131.723 20.172 132.219 20.084 132.635 19.908C133.067 19.716 133.395 19.46 133.619 19.14C133.859 18.82 133.979 18.436 133.979 17.988C133.979 17.46 133.819 17.028 133.499 16.692C133.195 16.34 132.731 16.068 132.107 15.876L128.675 14.772C127.283 14.34 126.235 13.692 125.531 12.828C124.827 11.964 124.475 10.948 124.475 9.78C124.475 8.756 124.723 7.852 125.219 7.068C125.731 6.284 126.435 5.676 127.331 5.244C128.243 4.796 129.283 4.572 130.451 4.572C131.523 4.572 132.507 4.764 133.403 5.148C134.299 5.516 135.067 6.036 135.707 6.708C136.363 7.364 136.851 8.14 137.171 9.036L134.483 10.236C134.131 9.34 133.603 8.652 132.899 8.172C132.195 7.676 131.379 7.42801 130.451 7.42801C129.907 7.42801 129.427 7.524 129.011 7.716C128.595 7.892 128.267 8.14801 128.027 8.484C127.803 8.80401 127.691 9.18801 127.691 9.63601C127.691 10.132 127.851 10.572 128.171 10.956C128.491 11.324 128.979 11.612 129.635 11.82L132.923 12.852C134.347 13.316 135.411 13.956 136.115 14.772C136.835 15.588 137.195 16.596 137.195 17.796C137.195 18.82 136.931 19.724 136.403 20.508C135.875 21.292 135.147 21.908 134.219 22.356C133.291 22.804 132.211 23.028 130.979 23.028ZM146.062 23.028C144.718 23.028 143.542 22.724 142.534 22.116C141.526 21.508 140.742 20.684 140.182 19.644C139.622 18.604 139.342 17.452 139.342 16.188C139.342 14.876 139.622 13.716 140.182 12.708C140.758 11.684 141.534 10.876 142.51 10.284C143.502 9.692 144.606 9.396 145.822 9.396C146.846 9.396 147.742 9.564 148.51 9.9C149.294 10.236 149.958 10.7 150.502 11.292C151.046 11.884 151.462 12.564 151.75 13.332C152.038 14.084 152.182 14.9 152.182 15.78C152.182 16.004 152.166 16.236 152.134 16.476C152.118 16.716 152.078 16.924 152.014 17.1H141.934V14.7H150.238L148.75 15.828C148.894 15.092 148.854 14.436 148.63 13.86C148.422 13.284 148.07 12.828 147.574 12.492C147.094 12.156 146.51 11.988 145.822 11.988C145.166 11.988 144.582 12.156 144.07 12.492C143.558 12.812 143.166 13.292 142.894 13.932C142.638 14.556 142.542 15.316 142.606 16.212C142.542 17.012 142.646 17.724 142.918 18.348C143.206 18.956 143.622 19.428 144.166 19.764C144.726 20.1 145.366 20.268 146.086 20.268C146.806 20.268 147.414 20.116 147.91 19.812C148.422 19.508 148.822 19.1 149.11 18.588L151.654 19.836C151.398 20.46 150.998 21.012 150.454 21.492C149.91 21.972 149.262 22.348 148.51 22.62C147.774 22.892 146.958 23.028 146.062 23.028ZM160.854 23.028C159.558 23.028 158.39 22.732 157.35 22.14C156.326 21.532 155.518 20.716 154.926 19.692C154.334 18.652 154.038 17.484 154.038 16.188C154.038 14.892 154.334 13.732 154.926 12.708C155.518 11.684 156.326 10.876 157.35 10.284C158.39 9.692 159.558 9.396 160.854 9.396C161.782 9.396 162.646 9.564 163.446 9.9C164.246 10.22 164.934 10.668 165.51 11.244C166.102 11.804 166.526 12.476 166.782 13.26L164.022 14.46C163.782 13.804 163.374 13.276 162.798 12.876C162.238 12.476 161.59 12.276 160.854 12.276C160.166 12.276 159.55 12.444 159.006 12.78C158.478 13.116 158.062 13.58 157.758 14.172C157.454 14.764 157.302 15.444 157.302 16.212C157.302 16.98 157.454 17.66 157.758 18.252C158.062 18.844 158.478 19.308 159.006 19.644C159.55 19.98 160.166 20.148 160.854 20.148C161.606 20.148 162.262 19.948 162.822 19.548C163.382 19.148 163.782 18.612 164.022 17.94L166.782 19.188C166.526 19.924 166.11 20.588 165.534 21.18C164.958 21.756 164.27 22.212 163.47 22.548C162.67 22.868 161.798 23.028 160.854 23.028ZM175.119 22.884C173.647 22.884 172.503 22.484 171.687 21.684C170.887 20.868 170.487 19.724 170.487 18.252V12.492H168.231V9.684H168.471C169.111 9.684 169.607 9.51601 169.959 9.18001C170.311 8.84401 170.487 8.356 170.487 7.716V6.708H173.631V9.684H176.631V12.492H173.631V18.084C173.631 18.516 173.703 18.884 173.847 19.188C174.007 19.492 174.247 19.724 174.567 19.884C174.903 20.044 175.327 20.124 175.839 20.124C175.951 20.124 176.079 20.116 176.223 20.1C176.383 20.084 176.535 20.068 176.679 20.052V22.74C176.455 22.772 176.199 22.804 175.911 22.836C175.623 22.868 175.359 22.884 175.119 22.884ZM185.348 23.028C184.068 23.028 182.9 22.732 181.844 22.14C180.804 21.548 179.972 20.74 179.348 19.716C178.74 18.692 178.436 17.524 178.436 16.212C178.436 14.9 178.74 13.732 179.348 12.708C179.972 11.684 180.804 10.876 181.844 10.284C182.884 9.692 184.052 9.396 185.348 9.396C186.628 9.396 187.788 9.692 188.828 10.284C189.868 10.876 190.692 11.684 191.3 12.708C191.924 13.716 192.236 14.884 192.236 16.212C192.236 17.524 191.924 18.692 191.3 19.716C190.676 20.74 189.844 21.548 188.804 22.14C187.764 22.732 186.612 23.028 185.348 23.028ZM185.348 20.148C186.052 20.148 186.668 19.98 187.196 19.644C187.74 19.308 188.164 18.844 188.468 18.252C188.788 17.644 188.948 16.964 188.948 16.212C188.948 15.444 188.788 14.772 188.468 14.196C188.164 13.604 187.74 13.14 187.196 12.804C186.668 12.452 186.052 12.276 185.348 12.276C184.628 12.276 183.996 12.452 183.452 12.804C182.908 13.14 182.476 13.604 182.156 14.196C181.852 14.772 181.7 15.444 181.7 16.212C181.7 16.964 181.852 17.644 182.156 18.252C182.476 18.844 182.908 19.308 183.452 19.644C183.996 19.98 184.628 20.148 185.348 20.148ZM194.62 22.74V9.684H197.572V12.588L197.332 12.156C197.636 11.18 198.108 10.5 198.748 10.116C199.404 9.73201 200.188 9.54001 201.1 9.54001H201.868V12.324H200.74C199.844 12.324 199.124 12.604 198.58 13.164C198.036 13.708 197.764 14.476 197.764 15.468V22.74H194.62Z" fill="#FF9C00"/>
</svg>
