<svg width="48" height="48" viewBox="0 0 48 48" fill="none" xmlns="http://www.w3.org/2000/svg">
<path d="M4.92903 14.5296C4.37174 14.9579 3.91234 15.5003 3.58158 16.1205C3.25082 16.7406 3.05633 17.4243 3.01112 18.1257C2.9643 18.8261 3.06569 19.5284 3.30869 20.187C3.55169 20.8455 3.93082 21.4454 4.42135 21.9474L21.0621 38.56C21.9896 39.4823 23.2444 40 24.5524 40C25.8604 40 27.1153 39.4823 28.0427 38.56L44.2886 22.3141C45.1978 21.3775 45.7041 20.122 45.6988 18.8167L45.6988 18.5629C45.6604 17.8689 45.4775 17.1905 45.1618 16.5713C44.8461 15.952 44.4046 15.4055 43.8655 14.9668C38.2671 10.4688 31.3037 8.01177 24.1223 8.00025C17.1749 7.97254 10.4182 10.2711 4.92903 14.5296ZM41.2707 18.2526C41.3532 18.3124 41.4205 18.3909 41.467 18.4815C41.5136 18.5722 41.5381 18.6725 41.5386 18.7744C41.5461 18.876 41.531 18.978 41.4944 19.0731C41.4579 19.1682 41.4007 19.254 41.3271 19.3244L25.053 35.4857C24.9229 35.6185 24.7455 35.6946 24.5595 35.6972C24.3714 35.6976 24.1901 35.6271 24.0518 35.4998L7.42515 18.9577C7.34873 18.8864 7.28986 18.7984 7.25316 18.7005C7.21647 18.6027 7.20292 18.4976 7.21361 18.3936C7.2191 18.2927 7.24581 18.1941 7.29197 18.1042C7.33814 18.0143 7.40274 17.9351 7.48156 17.8719C12.3348 14.1236 18.3105 12.1222 24.4423 12.1913C30.574 12.2604 36.5032 14.396 41.2707 18.2526Z" fill="#FF9C00" stroke="#FFFCF7" stroke-width="0.8"/>
</svg>
