<svg width="20" height="25" viewBox="0 0 20 25" fill="none" xmlns="http://www.w3.org/2000/svg">
<path d="M9.37372 24.017C8.75519 24.017 8.17044 23.8867 7.61946 23.6261C7.06848 23.3655 6.60779 22.9911 6.23741 22.503L0 14.4241L0.45211 13.9417C0.758211 13.6151 1.12431 13.4189 1.5504 13.353C1.97649 13.2869 2.37554 13.3677 2.74756 13.5955L5.73112 15.1967V5.50981C5.73112 5.24962 5.81918 5.03148 5.99529 4.85537C6.17119 4.67946 6.38934 4.59151 6.64973 4.59151C6.91012 4.59151 7.13133 4.67946 7.31336 4.85537C7.49538 5.03148 7.5864 5.24962 7.5864 5.50981V18.4389L3.91074 16.4373L7.72996 21.4151C7.93096 21.6677 8.17584 21.8584 8.4646 21.9872C8.75356 22.116 9.0566 22.1804 9.37372 22.1804H15.3966C16.1643 22.1804 16.8174 21.9131 17.3559 21.3787C17.8942 20.844 18.1634 20.1929 18.1634 19.4254V14.8104C18.1634 14.39 18.0213 14.0377 17.737 13.7534C17.4525 13.4691 17.1002 13.327 16.68 13.327H10.5063V11.4904H16.68C17.6022 11.4904 18.386 11.8131 19.0315 12.4586C19.6772 13.1043 20 13.8882 20 14.8104V19.4245C20 20.6934 19.5492 21.7761 18.6476 22.6726C17.7463 23.5688 16.6626 24.017 15.3966 24.017H9.37372ZM1.88374 8.26472C1.64192 7.85495 1.45745 7.41682 1.33031 6.95032C1.20318 6.48382 1.13961 6.00365 1.13961 5.50981C1.13961 3.98074 1.6757 2.68022 2.74786 1.60825C3.81983 0.536083 5.12035 0 6.64942 0C8.17829 0 9.47881 0.536083 10.551 1.60825C11.6229 2.68022 12.1589 3.98023 12.1589 5.50828C12.1589 6.00518 12.0954 6.48637 11.9682 6.95185C11.8411 7.41733 11.6567 7.85495 11.4151 8.26472L9.83287 7.34641C9.99612 7.06072 10.1186 6.76992 10.2002 6.47403C10.2818 6.17813 10.3226 5.85672 10.3226 5.50981C10.3226 4.48947 9.96551 3.62219 9.25128 2.90796C8.53704 2.19372 7.66976 1.8366 6.64942 1.8366C5.62909 1.8366 4.7618 2.19372 4.04757 2.90796C3.33333 3.62219 2.97622 4.48947 2.97622 5.50981C2.97622 5.85672 3.01703 6.17813 3.09866 6.47403C3.18028 6.76992 3.30272 7.06072 3.46598 7.34641L1.88374 8.26472Z" fill="#1E1E1E"/>
</svg>
