<svg width="48" height="48" viewBox="0 0 48 48" fill="none" xmlns="http://www.w3.org/2000/svg">
<g clip-path="url(#clip0_375_320)">
<path d="M36.2326 0H11.7671C9.68987 0 8 1.68997 8 3.76718V38.7969C8 40.8741 9.68997 42.5641 11.7671 42.5641H20.7432V46.9063C20.7432 47.3675 21.1171 47.7414 21.5783 47.7414C22.0395 47.7414 22.4134 47.3675 22.4134 46.9063V42.5641H25.5865V46.9063C25.5865 47.3675 25.9604 47.7414 26.4216 47.7414C26.8828 47.7414 27.2567 47.3675 27.2567 46.9063V42.5641H36.2328C38.31 42.5641 40 40.8741 40 38.7969V3.76718C39.9998 1.68997 38.3098 0 36.2326 0ZM36.2326 40.894H11.7671C10.6108 40.894 9.67011 39.9532 9.67011 38.7969V3.76718C9.67011 2.61085 10.6108 1.67011 11.7671 1.67011H36.2325C37.3889 1.67011 38.3296 2.61085 38.3296 3.76718V38.7969H38.3297C38.3297 39.9532 37.389 40.894 36.2326 40.894Z" fill="#FF9C00" stroke="#FF9C00" stroke-width="0.5"/>
<path d="M23.9996 27.9128C20.9607 27.9128 18.4883 30.3852 18.4883 33.4241C18.4883 36.4631 20.9607 38.9355 23.9996 38.9355C27.0385 38.9355 29.5109 36.4631 29.5109 33.4241C29.5109 30.3852 27.0385 27.9128 23.9996 27.9128ZM23.9996 37.2653C21.8816 37.2653 20.1585 35.5421 20.1585 33.4241C20.1585 31.3062 21.8816 29.583 23.9996 29.583C26.1176 29.583 27.8407 31.3062 27.8407 33.4241C27.8407 35.5421 26.1176 37.2653 23.9996 37.2653Z" fill="#FF9C00" stroke="#FF9C00" stroke-width="0.5"/>
<path d="M24.0001 31.0408C23.5389 31.0408 23.165 31.4147 23.165 31.8759V33.4245C23.165 33.8857 23.5389 34.2596 24.0001 34.2596C24.4613 34.2596 24.8352 33.8857 24.8352 33.4245V31.8759C24.8352 31.4147 24.4613 31.0408 24.0001 31.0408Z" fill="#FF9C00" stroke="#FF9C00" stroke-width="0.5"/>
<path d="M28.8338 14.7764C28.0857 13.2297 26.9393 12.41 26.8909 12.3758C26.6052 12.1744 26.2243 12.1723 25.9363 12.3705C25.6484 12.5686 25.5143 12.9252 25.6004 13.264C25.6106 13.3043 25.6198 13.3445 25.6278 13.3846C24.5793 10.5373 22.5217 9.27801 22.4068 9.20957C22.1195 9.03846 21.7577 9.05525 21.4874 9.25237C21.2171 9.44958 21.0905 9.7888 21.1657 10.1149L21.4415 11.3101C21.7268 12.5468 21.2984 13.8199 20.3235 14.6324C18.6768 16.0046 18.0841 18.272 18.8487 20.2745L19.278 21.3983C19.4425 21.8292 19.9254 22.0454 20.356 21.8806C20.7869 21.716 21.0029 21.2335 20.8383 20.8026L20.4093 19.6789C19.8993 18.3433 20.2946 16.8308 21.3929 15.9156C22.4949 14.9973 23.1311 13.6865 23.1943 12.3027C23.882 13.2932 24.531 14.7569 24.5606 16.7717C24.5656 17.1168 24.7825 17.4232 25.1062 17.5428C25.4297 17.6623 25.7939 17.5706 26.022 17.3116C26.0697 17.2576 26.8045 16.4092 27.159 15.1756C27.8306 16.3496 28.2787 18.2312 26.9341 20.7824C26.719 21.1903 26.8755 21.6954 27.2835 21.9103C27.4076 21.9758 27.5408 22.0068 27.672 22.0068C27.972 22.0068 28.2619 21.8447 28.4114 21.5609C30.0079 18.5318 29.5223 16.1996 28.8338 14.7764Z" fill="#FF9C00" stroke="#FF9C00" stroke-width="0.5"/>
<path d="M33.0739 6.19556H14.9249C14.4638 6.19556 14.0898 6.56947 14.0898 7.03066V25.1797C14.0898 25.6409 14.4638 26.0148 14.9249 26.0148H33.074C33.5352 26.0148 33.9091 25.6409 33.9091 25.1797V7.03066C33.909 6.56947 33.5351 6.19556 33.0739 6.19556ZM32.2389 24.3446H15.7599V7.86576H32.2388V24.3446H32.2389Z" fill="#FF9C00" stroke="#FF9C00" stroke-width="0.5"/>
</g>
<defs>
<clipPath id="clip0_375_320">
<rect width="48" height="48" fill="white"/>
</clipPath>
</defs>
</svg>
