<svg width="48" height="48" viewBox="0 0 48 48" fill="none" xmlns="http://www.w3.org/2000/svg">
<path d="M12.2178 38.4938C11.4346 40.1227 10.9394 41.2091 6.5778 41.3675C6.70253 37.1593 7.50575 36.7078 9.11096 35.9071C9.78447 35.5703 10.6239 35.1525 11.5319 34.4553L10.0127 32.5158C9.29555 33.0671 8.63576 33.3564 7.99841 33.6732C5.32307 35.0078 4.0621 36.3211 4.0621 42.5848L4.08331 43.8595L5.30935 43.8321C11.921 43.8321 13.157 42.3379 14.3955 39.766C14.6662 39.2023 14.8171 38.8206 15.2748 38.0611L13.4252 36.381C12.8714 37.1381 12.5247 37.8565 12.2178 38.4914V38.4938ZM31.5215 11.4211C28.7626 11.4211 26.5188 13.6649 26.5188 16.4226C26.5188 19.1802 28.7638 21.4253 31.5215 21.4253C34.2791 21.4253 36.5242 19.1802 36.5242 16.4226C36.5242 13.6649 34.2791 11.4211 31.5215 11.4211ZM31.5215 18.9208C30.1445 18.9208 29.0232 17.7995 29.0232 16.4238C29.0232 15.0481 30.1433 13.9268 31.5215 13.9268C32.8997 13.9268 34.0197 15.0481 34.0197 16.4238C34.0197 17.8008 32.8997 18.9208 31.5215 18.9208ZM43.9478 5.20982C43.9104 4.58744 43.4165 4.08855 42.7941 4.0424C42.7941 4.0424 35.8145 3.53352 29.0993 6.04173C26.646 6.95846 24.6267 8.40901 22.7421 10.6079C21.1706 12.4414 19.609 15.754 18.2308 18.5055C17.6982 19.5669 17.1894 20.5834 16.7578 21.3592H9.81939C9.46268 21.3592 9.12343 21.5126 8.88645 21.7782L4.31405 26.7336C4.02219 27.0641 3.92491 27.5231 4.05961 27.9421C4.19431 28.3612 4.5398 28.6805 4.96885 28.7778L12.4112 30.479C12.9188 31.1052 13.7632 32.0418 15.1152 33.5423L17.9352 36.6679L19.4531 43.0887C19.5529 43.5115 19.866 43.8533 20.2801 43.9867C20.406 44.0266 20.537 44.0478 20.6655 44.0478C20.9598 44.0478 21.2479 43.9443 21.4774 43.7472L26.0985 39.1499C26.3741 38.9142 26.5337 38.5674 26.5337 38.2032V31.7674C27.1549 31.382 28.2562 30.7871 29.2927 30.2071C32.1164 28.6294 36.3334 26.6637 38.0808 25.1096C40.5428 22.922 41.4383 21.318 42.3189 18.947C44.4118 13.3082 43.969 5.53785 43.9478 5.20982ZM39.9816 18.0777C39.2133 20.1468 38.5173 21.3841 36.4244 23.2438C34.8791 24.617 30.6509 26.5889 28.0753 28.0294C26.1533 29.1033 25.0021 29.7307 24.497 30.1435C24.2064 30.3793 24.038 30.7347 24.038 31.1089V37.6283L21.4063 40.5206L20.285 35.7811C20.2364 35.5778 20.1379 35.3895 19.9969 35.2335C17.7032 32.6917 14.2384 28.8489 13.9727 28.5433C13.7994 28.3325 13.5586 28.1829 13.288 28.1205L7.57435 26.8134L10.3769 23.8512H17.4725C17.9065 23.8512 18.3094 23.6254 18.5352 23.2575C19.0839 22.3645 19.72 21.0923 20.4584 19.6218C21.7081 17.1298 23.2622 13.832 24.6342 12.2306C26.2556 10.3397 27.9007 9.15112 29.9699 8.37783C34.5735 6.65787 39.323 6.47702 41.4945 6.49324C41.5344 8.79316 41.4483 14.1251 39.9803 18.0789L39.9816 18.0777Z" fill="#FF9C00"/>
</svg>
