<svg width="325" height="200" viewBox="0 0 325 200" fill="none" xmlns="http://www.w3.org/2000/svg">
<path d="M113 151L113 36" stroke="#FF9C00"/>
<path d="M228.822 107.038L225.222 93.6282H227.85L230.676 105.058H229.992L232.944 93.6282H235.482L238.416 105.058H237.732L240.558 93.6282H243.186L239.586 107.038H236.778L233.808 95.9142H234.6L231.63 107.038H228.822Z" fill="#FF9C00"/>
<path d="M234.199 147L237.086 142L231.312 142L234.199 147ZM234.199 107.427L233.699 107.427L233.699 142.5L234.199 142.5L234.699 142.5L234.699 107.427L234.199 107.427Z" fill="#FF9C00"/>
<path d="M234.199 51L237.086 56L231.312 56L234.199 51ZM234.199 90.5725L233.699 90.5725L233.699 55.5L234.199 55.5L234.699 55.5L234.699 90.5725L234.199 90.5725Z" fill="#FF9C00"/>
<path d="M165.409 41.6663L165.597 28.2576L168.044 28.2937L167.887 39.5426L173.629 39.6274L173.598 41.7872L165.409 41.6663Z" fill="#FF9C00"/>
<path d="M119.128 37.5232L124.126 34.6292L124.129 40.4027L119.128 37.5232ZM159.713 37.4643L159.713 37.9643L123.628 38.0167L123.628 37.5167L123.627 37.0167L159.713 36.9643L159.713 37.4643Z" fill="#FF9C00"/>
<path d="M217.584 36.4642L212.583 33.6909L212.586 39.4644L217.584 36.4642ZM177 37.3851L177 37.8851L213.085 37.0663L213.085 36.5663L213.084 36.0663L177 36.8851L177 37.3851Z" fill="#FF9C00"/>
<path d="M112.5 151L244 151" stroke="#FF9C00"/>
<path fill-rule="evenodd" clip-rule="evenodd" d="M118 59C118 51.8203 121.768 46 126.417 46H210.583C215.232 46 219 51.8203 219 59V137C219 144.18 215.232 150 210.583 150H126.417C121.768 150 118 144.18 118 137V59ZM126.417 56.4C125.487 56.4 124.733 57.5641 124.733 59V137C124.733 138.436 125.487 139.6 126.417 139.6H210.583C211.513 139.6 212.267 138.436 212.267 137V59C212.267 57.5641 211.513 56.4 210.583 56.4H126.417Z" fill="#FF9C00"/>
<path d="M128.87 19.288C127.734 19.288 126.678 19.08 125.702 18.664C124.742 18.248 123.91 17.672 123.206 16.936C122.518 16.184 122.014 15.312 121.694 14.32L124.406 13.144C124.838 14.168 125.462 14.976 126.278 15.568C127.094 16.144 128.014 16.432 129.038 16.432C129.614 16.432 130.11 16.344 130.526 16.168C130.958 15.976 131.286 15.72 131.51 15.4C131.75 15.08 131.87 14.696 131.87 14.248C131.87 13.72 131.71 13.288 131.39 12.952C131.086 12.6 130.622 12.328 129.998 12.136L126.566 11.032C125.174 10.6 124.126 9.952 123.422 9.088C122.718 8.224 122.366 7.208 122.366 6.04C122.366 5.016 122.614 4.112 123.11 3.328C123.622 2.544 124.326 1.936 125.222 1.504C126.134 1.056 127.174 0.831999 128.342 0.831999C129.414 0.831999 130.398 1.024 131.294 1.408C132.19 1.776 132.958 2.296 133.598 2.968C134.254 3.624 134.742 4.4 135.062 5.296L132.374 6.496C132.022 5.6 131.494 4.912 130.79 4.432C130.086 3.936 129.27 3.688 128.342 3.688C127.798 3.688 127.318 3.784 126.902 3.976C126.486 4.152 126.158 4.408 125.918 4.744C125.694 5.064 125.582 5.448 125.582 5.896C125.582 6.392 125.742 6.832 126.062 7.216C126.382 7.584 126.87 7.872 127.526 8.08L130.814 9.112C132.238 9.576 133.302 10.216 134.006 11.032C134.726 11.848 135.086 12.856 135.086 14.056C135.086 15.08 134.822 15.984 134.294 16.768C133.766 17.552 133.038 18.168 132.11 18.616C131.182 19.064 130.102 19.288 128.87 19.288ZM147.817 23.8V16.48L148.321 17.104C147.873 17.808 147.249 18.352 146.449 18.736C145.649 19.104 144.777 19.288 143.833 19.288C142.569 19.288 141.441 18.992 140.449 18.4C139.457 17.792 138.673 16.968 138.097 15.928C137.521 14.888 137.233 13.736 137.233 12.472C137.233 11.192 137.521 10.04 138.097 9.016C138.673 7.992 139.457 7.176 140.449 6.568C141.457 5.96 142.577 5.656 143.809 5.656C144.801 5.656 145.681 5.856 146.449 6.256C147.233 6.64 147.849 7.184 148.297 7.888L147.985 8.536V5.944H150.961V23.8H147.817ZM144.169 16.408C144.889 16.408 145.521 16.24 146.065 15.904C146.609 15.568 147.033 15.104 147.337 14.512C147.657 13.92 147.817 13.24 147.817 12.472C147.817 11.72 147.657 11.048 147.337 10.456C147.033 9.848 146.609 9.376 146.065 9.04C145.521 8.704 144.889 8.536 144.169 8.536C143.465 8.536 142.833 8.712 142.273 9.064C141.713 9.4 141.273 9.864 140.953 10.456C140.649 11.032 140.497 11.704 140.497 12.472C140.497 13.24 140.649 13.92 140.953 14.512C141.273 15.104 141.713 15.568 142.273 15.904C142.833 16.24 143.465 16.408 144.169 16.408ZM158.542 19.288C157.534 19.288 156.654 19.064 155.902 18.616C155.166 18.168 154.598 17.544 154.198 16.744C153.814 15.944 153.622 15.008 153.622 13.936V5.944H156.766V13.672C156.766 14.216 156.87 14.696 157.078 15.112C157.302 15.512 157.614 15.832 158.014 16.072C158.43 16.296 158.894 16.408 159.406 16.408C159.918 16.408 160.374 16.296 160.774 16.072C161.174 15.832 161.486 15.504 161.71 15.088C161.934 14.672 162.046 14.176 162.046 13.6V5.944H165.19V19H162.214V16.432L162.478 16.888C162.174 17.688 161.67 18.288 160.966 18.688C160.278 19.088 159.47 19.288 158.542 19.288ZM172.072 19.288C171.16 19.288 170.368 19.136 169.696 18.832C169.024 18.528 168.504 18.096 168.136 17.536C167.768 16.96 167.584 16.296 167.584 15.544C167.584 14.824 167.744 14.184 168.064 13.624C168.384 13.048 168.88 12.568 169.552 12.184C170.224 11.8 171.072 11.528 172.096 11.368L176.368 10.672V13.072L172.696 13.696C172.072 13.808 171.608 14.008 171.304 14.296C171 14.584 170.848 14.96 170.848 15.424C170.848 15.872 171.016 16.232 171.352 16.504C171.704 16.76 172.136 16.888 172.648 16.888C173.304 16.888 173.88 16.752 174.376 16.48C174.888 16.192 175.28 15.8 175.552 15.304C175.84 14.808 175.984 14.264 175.984 13.672V10.312C175.984 9.752 175.76 9.288 175.312 8.92C174.88 8.536 174.304 8.344 173.584 8.344C172.912 8.344 172.312 8.528 171.784 8.896C171.272 9.248 170.896 9.72 170.656 10.312L168.088 9.064C168.344 8.376 168.744 7.784 169.288 7.288C169.848 6.776 170.504 6.376 171.256 6.088C172.008 5.8 172.824 5.656 173.704 5.656C174.776 5.656 175.72 5.856 176.536 6.256C177.352 6.64 177.984 7.184 178.432 7.888C178.896 8.576 179.128 9.384 179.128 10.312V19H176.152V16.768L176.824 16.72C176.488 17.28 176.088 17.752 175.624 18.136C175.16 18.504 174.632 18.792 174.04 19C173.448 19.192 172.792 19.288 172.072 19.288ZM182.034 19V5.944H184.986V8.848L184.746 8.416C185.05 7.44 185.522 6.76 186.162 6.376C186.818 5.992 187.602 5.8 188.514 5.8H189.282V8.584H188.154C187.258 8.584 186.538 8.864 185.994 9.424C185.45 9.968 185.178 10.736 185.178 11.728V19H182.034ZM197.203 19.288C195.859 19.288 194.683 18.984 193.675 18.376C192.667 17.768 191.883 16.944 191.323 15.904C190.763 14.864 190.483 13.712 190.483 12.448C190.483 11.136 190.763 9.976 191.323 8.968C191.899 7.944 192.675 7.136 193.651 6.544C194.643 5.952 195.747 5.656 196.963 5.656C197.987 5.656 198.883 5.824 199.651 6.16C200.435 6.496 201.099 6.96 201.643 7.552C202.187 8.144 202.603 8.824 202.891 9.592C203.179 10.344 203.323 11.16 203.323 12.04C203.323 12.264 203.307 12.496 203.275 12.736C203.259 12.976 203.219 13.184 203.155 13.36H193.075V10.96H201.379L199.891 12.088C200.035 11.352 199.995 10.696 199.771 10.12C199.563 9.544 199.211 9.088 198.715 8.752C198.235 8.416 197.651 8.248 196.963 8.248C196.307 8.248 195.723 8.416 195.211 8.752C194.699 9.072 194.307 9.552 194.035 10.192C193.779 10.816 193.683 11.576 193.747 12.472C193.683 13.272 193.787 13.984 194.059 14.608C194.347 15.216 194.763 15.688 195.307 16.024C195.867 16.36 196.507 16.528 197.227 16.528C197.947 16.528 198.555 16.376 199.051 16.072C199.563 15.768 199.963 15.36 200.251 14.848L202.795 16.096C202.539 16.72 202.139 17.272 201.595 17.752C201.051 18.232 200.403 18.608 199.651 18.88C198.915 19.152 198.099 19.288 197.203 19.288Z" fill="#FF9C00"/>
</svg>
