<svg width="48" height="48" viewBox="0 0 48 48" fill="none" xmlns="http://www.w3.org/2000/svg">
<path d="M26.3438 4.0293C26.6196 3.82437 26.9891 3.77988 27.3096 3.9248L38.4922 8.98438L38.499 8.9873L38.5068 8.97656L38.6406 9.06836L44.7471 13.2783L44.8271 13.3408C45.0069 13.4954 45.1247 13.7121 45.1533 13.9502L45.1602 14.0527C45.1634 14.2897 45.0783 14.5208 44.9199 14.7002L19.584 43.3379C19.3996 43.5467 19.136 43.6602 18.8662 43.6602C18.7846 43.6601 18.7025 43.6487 18.6211 43.627L18.6162 43.6445L18.4521 43.5654L3.38281 36.3271C2.98663 36.137 2.77134 35.7007 2.86035 35.2705L4.71875 26.2666L4.75488 26.0898L4.77344 26.0957C4.81934 25.9836 4.88488 25.8785 4.97266 25.7891L26.2314 4.12695L26.3438 4.0293ZM4.88574 34.9258L17.5898 41.0283L15.9863 32.1846L6.35156 27.8252L4.88574 34.9258ZM17.8691 31.8359L19.457 40.5918L42.7705 14.2412L38.2168 11.1016L17.8691 31.8359ZM7.29883 26.1523L16.623 30.3711L36.4541 10.1631L27.1289 5.94531L7.29883 26.1523Z" fill="#FF9C00" stroke="#FF9C00" stroke-width="0.32"/>
</svg>
