<svg width="48" height="48" viewBox="0 0 48 48" fill="none" xmlns="http://www.w3.org/2000/svg">
<path d="M36.2727 6H11.7273C11.004 6 10.3103 6.28734 9.7988 6.7988C9.28734 7.31026 9 8.00395 9 8.72727V38.7273C9 39.4506 9.28734 40.1443 9.7988 40.6557C10.3103 41.1672 11.004 41.4545 11.7273 41.4545H36.2727C36.996 41.4545 37.6897 41.1672 38.2012 40.6557C38.7127 40.1443 39 39.4506 39 38.7273V8.72727C39 8.00395 38.7127 7.31026 38.2012 6.7988C37.6897 6.28734 36.996 6 36.2727 6ZM28.0909 26.4545H36.2727V30.5455H21.2727V26.4545H28.0909ZM29.4545 23.7273V19.6364H36.2727V23.7273H29.4545ZM36.2727 8.72727V16.9091H28.0909C27.7292 16.9091 27.3824 17.0528 27.1267 17.3085C26.8709 17.5642 26.7273 17.9111 26.7273 18.2727V23.7273H19.9091C19.5474 23.7273 19.2006 23.8709 18.9449 24.1267C18.6891 24.3824 18.5455 24.7292 18.5455 25.0909V30.5455H11.7273V8.72727H36.2727ZM36.2727 38.7273H11.7273V33.2727H36.2727V38.7273Z" fill="#FF9C00"/>
</svg>
