<svg width="48" height="48" viewBox="0 0 48 48" fill="none" xmlns="http://www.w3.org/2000/svg">
<g clip-path="url(#clip0_376_482)">
<path d="M40.0996 0.849609C44.0158 0.849609 47.1504 3.98418 47.1504 7.90039C47.1502 10.6925 45.5167 13.0831 43.1631 14.2275V40.7168H46.0801C46.3441 40.7168 46.5761 40.8056 46.7422 40.9717C46.8758 41.1054 46.9579 41.2819 46.9854 41.4834H46.9971V42.7832H46.9961C47.1497 45.3092 45.4826 47.1503 43.167 47.1504H4.83301C2.51402 47.1502 0.849609 45.3057 0.849609 42.7832V41.6328C0.849712 41.3691 0.938688 41.1376 1.10449 40.9717C1.27056 40.8056 1.50253 40.7168 1.7666 40.7168H4.68359V17.0996C4.6838 14.8702 6.43765 13.1162 8.66699 13.1162H13.8945C13.922 12.9149 14.0041 12.7382 14.1377 12.6045C14.3037 12.4385 14.5358 12.3497 14.7998 12.3496H24C24.2641 12.3496 24.496 12.4385 24.6621 12.6045C24.7958 12.7382 24.8778 12.9148 24.9053 13.1162H30.1338C32.363 13.1164 34.117 14.8705 34.1172 17.0996V40.7168H36.8838V14.1953C34.6135 13.038 33.05 10.6651 33.0498 7.90039C33.0498 3.98432 36.1836 0.849818 40.0996 0.849609ZM41.4834 14.8291C40.5784 15.0115 39.6218 15.0115 38.7168 14.8291V41.6338C38.7167 41.8976 38.6278 42.1289 38.4619 42.2949C38.2958 42.461 38.0639 42.5498 37.7998 42.5498H2.68359V42.7832C2.68359 43.4508 2.85028 44.0874 3.19922 44.5527C3.54393 45.0124 4.0743 45.3163 4.83301 45.3164H43.167C43.9257 45.3163 44.4561 45.0124 44.8008 44.5527C45.1497 44.0874 45.3164 43.4508 45.3164 42.7832V42.5498H42.4004C42.1363 42.5498 41.9044 42.461 41.7383 42.2949C41.5722 42.1288 41.4834 41.8969 41.4834 41.6328V14.8291ZM8.66699 14.9502C7.4466 14.9502 6.5168 15.8793 6.5166 17.0996V40.7168H32.2832V17.0996C32.283 15.8793 31.3532 14.9502 30.1328 14.9502H24.917V22.7734C24.917 23.3041 24.6474 23.6988 24.2461 23.9561L24.0674 24.0576C23.878 24.1522 23.6896 24.1504 23.54 24.1504C23.1899 24.1504 22.8525 23.9784 22.6025 23.7334L19.4004 21.3506L16.1943 23.8125C15.8478 24.1476 15.2626 24.3123 14.7529 24.1426C14.2234 23.966 13.8828 23.4416 13.8828 22.8496V14.9502H8.66699ZM15.7168 21.7822L18.8496 19.4336C19.0223 19.3041 19.2072 19.2305 19.4004 19.2305C19.5934 19.2306 19.7776 19.3042 19.9502 19.4336L23.083 21.7822V14.3975C23.0522 14.3303 23.0312 14.2601 23.0195 14.1836H15.7168V21.7822ZM40.0996 2.68359C37.1926 2.6838 34.8838 4.99336 34.8838 7.90039C34.884 10.8088 37.1945 13.1162 40.0234 13.1162C40.5961 13.1162 41.148 13.0256 41.666 12.8594C41.7652 12.8239 41.8621 12.7872 41.9561 12.7461L41.9688 12.7402C41.9979 12.7305 42.0282 12.7239 42.0576 12.7168C43.9664 11.9349 45.3162 10.0862 45.3164 7.90039C45.3164 4.99323 43.0068 2.68359 40.0996 2.68359Z" fill="#FF9C00" stroke="#FF9C00" stroke-width="0.3"/>
<path d="M39.457 7.25723C39.8223 6.89207 40.377 6.89208 40.7422 7.25723L43.042 9.55704C43.4072 9.92233 43.4072 10.477 43.042 10.8422C42.9565 10.9277 42.8655 10.9984 42.7578 11.0463C42.6494 11.0945 42.5319 11.1166 42.3994 11.1166C42.2672 11.1166 42.1502 11.0943 42.042 11.0463C41.9343 10.9984 41.8424 10.9277 41.7568 10.8422L39.457 8.54239C39.0919 8.17713 39.0917 7.62246 39.457 7.25723Z" fill="#FF9C00" stroke="#FF9C00" stroke-width="0.3"/>
<path d="M15.5664 33.9169C15.8076 33.9169 16.0125 33.9977 16.1572 34.1424C16.3019 34.2872 16.3828 34.492 16.3828 34.7333V38.5663C16.3828 38.8076 16.302 39.0133 16.1572 39.1581C16.0125 39.3027 15.8075 39.3836 15.5664 39.3837H8.66602C8.42482 39.3837 8.21997 39.3027 8.0752 39.1581C7.9304 39.0133 7.84961 38.8076 7.84961 38.5663V34.7333C7.84962 34.4919 7.9304 34.2872 8.0752 34.1424C8.21999 33.9977 8.42467 33.9169 8.66602 33.9169H15.5664ZM9.48242 37.7499H14.749V35.5497H9.48242V37.7499Z" fill="#FF9C00" stroke="#FF9C00" stroke-width="0.1"/>
</g>
<defs>
<clipPath id="clip0_376_482">
<rect width="48" height="48" fill="white"/>
</clipPath>
</defs>
</svg>
