<svg width="48" height="48" viewBox="0 0 48 48" fill="none" xmlns="http://www.w3.org/2000/svg">
<g clip-path="url(#clip0_376_470)">
<path d="M23.3409 8.07569C23.0997 7.93848 22.796 8.02051 22.6583 8.26026C22.5206 8.5 22.6036 8.80567 22.8429 8.94287L24.1329 9.68311C24.376 9.82115 24.6783 9.73622 24.8156 9.49854C24.9533 9.25879 24.8702 8.95313 24.631 8.81592L23.3409 8.07569Z" fill="#FF9C00" stroke="#FF9C00" stroke-width="0.5"/>
<path d="M0.250007 21.1436C0.094734 21.2334 -0.000969196 21.3989 7.40355e-06 21.5781L0.00879647 24.6646C0.00977307 24.8423 0.103523 25.0063 0.25782 25.0952C3.24952 26.8338 28.3123 41.3981 28.1152 41.2847C28.2695 41.3735 28.46 41.373 28.6143 41.2842L35.0508 37.5679C35.2061 37.478 35.3018 37.3125 35.3008 37.1333L35.292 34.0464C35.2913 33.9123 35.2104 33.7117 35.041 33.6143C34.8591 33.5096 32.9608 32.4051 33.0623 32.4633L33.7493 32.0658L40.8012 36.1659C40.8051 36.1683 40.8066 36.173 40.8106 36.1753C40.9648 36.2641 41.1553 36.2637 41.3096 36.1748L47.7461 32.4585C47.9014 32.3687 47.9971 32.2031 47.9961 32.0239L47.9874 28.9548C47.9876 28.9497 47.9912 28.9456 47.9912 28.9404C47.9912 28.7622 47.8965 28.5972 47.7432 28.5073L45.7607 27.3526L47.752 26.2026C47.9072 26.1133 48.0029 25.9473 48.002 25.7676L47.9912 22.6875C47.9904 22.5219 47.8372 22.3126 47.7422 22.2573L26.2822 9.77734C26.044 9.63916 25.7373 9.71826 25.5986 9.95801C25.46 10.1968 25.541 10.5029 25.7803 10.6416L46.493 22.6874L41.0527 25.8217L14.1992 10.2109L19.6309 7.07715L21.1406 7.95215C21.377 8.08936 21.6846 8.01025 21.8242 7.77051C21.9629 7.53125 21.8809 7.22559 21.6426 7.08691L19.8828 6.0669C19.7285 5.97803 19.5381 5.97754 19.3818 6.06641L12.9512 9.77637C12.7658 9.88368 12.7012 10.1048 12.7012 10.2085C12.7012 10.3092 12.7118 13.402 12.7119 13.3013C12.7129 13.4785 12.8076 13.6426 12.9609 13.7314L14.9384 14.8802L14.2538 15.2797L7.19239 11.1772C7.03907 11.0874 6.84864 11.0874 6.69141 11.1763L0.251961 14.8862C0.0866887 14.9814 0.00196053 15.2169 0.00196053 15.3184C0.00196053 15.3188 0.0022657 15.3192 0.0022657 15.3196C0.0022657 15.32 0.00196053 15.3204 0.00196053 15.3208L0.0117262 18.4106C0.0127028 18.5879 0.106453 18.752 0.259773 18.8413L2.24665 19.9959L0.263008 21.1401C0.258918 21.1423 0.254036 21.1412 0.250007 21.1436ZM1.00782 24.375L1.00294 22.4486C37.8029 43.8317 25.0991 36.45 27.8563 38.0521C27.8565 38.1528 27.8617 40.1057 27.8613 39.981L1.00782 24.375ZM28.8618 39.9861C28.8615 39.8854 28.8561 37.9276 28.8565 38.0522C28.9578 37.9937 34.6569 34.7038 34.2949 34.9128L34.2998 36.8467L28.8618 39.9861ZM28.8691 33.7332C28.8688 33.6325 28.8619 31.6727 28.8624 31.7974L34.292 28.6564C34.2924 28.7571 34.3003 30.693 34.2998 30.5923C33.8833 30.8332 28.5839 33.8981 28.8691 33.7332ZM35.0527 31.3115C35.208 31.2217 35.3027 31.0557 35.3018 30.877L35.2987 29.8921C35.4016 29.952 40.8301 33.1085 40.5516 32.9466L40.5571 34.8678L34.7471 31.4893L35.0527 31.3115ZM41.5588 34.8757L41.5527 32.9473L46.9902 29.8063L46.9951 31.7373L41.5588 34.8757ZM41.5588 28.6239C41.5585 28.5192 41.5524 26.5692 41.5527 26.6879L46.9941 23.553L47.001 25.4814C46.5259 25.7558 41.4519 28.6857 41.5588 28.6239ZM13.7041 11.0806L40.5527 26.6874C40.553 26.7881 40.559 28.7427 40.5586 28.618C37.8134 27.0222 50.5031 34.3991 13.7109 13.0107L13.7041 11.0806ZM15.9365 15.4551C16.1127 15.5576 40.9755 30.0167 40.8125 29.9228C40.967 30.0118 41.1576 30.011 41.3115 29.9224C41.4638 29.8344 44.9877 27.7989 44.7627 27.9289L46.4924 28.9359L41.049 32.0789L35.295 28.7336L35.292 27.7896C35.292 27.5848 35.1439 27.4158 35.043 27.3574L15.248 15.8573L15.9365 15.4551ZM6.94044 12.187C11.8817 15.0578 15.474 17.1471 33.793 27.7876L28.3613 30.9307L1.50001 15.3213L6.94044 12.187ZM1.00489 16.1899L27.8623 31.7978C27.8627 31.9183 27.8694 33.8316 27.869 33.7289L1.01075 18.1211L1.00489 16.1899ZM28.1218 35.0319C28.1223 35.0322 28.1225 35.0329 28.1231 35.0332C28.2768 35.1218 28.4676 35.1217 28.6221 35.0327C30.7664 33.7919 32.1726 32.9782 32.0657 33.04L33.7938 34.0468C33.6898 34.1067 27.9904 37.3903 28.3525 37.1816C25.5928 35.5782 38.2984 42.9604 1.50111 21.5804L3.24024 20.5771L28.1218 35.0319C28.1216 35.0318 28.122 35.032 28.1218 35.0319Z" fill="#FF9C00"/>
<path d="M28.1218 35.0319C28.1223 35.0322 28.1225 35.0329 28.1231 35.0332C28.2768 35.1218 28.4676 35.1217 28.6221 35.0327C30.7664 33.7919 32.1726 32.9782 32.0657 33.04L33.7938 34.0468C33.6898 34.1067 27.9904 37.3903 28.3525 37.1816C25.5928 35.5782 38.2984 42.9604 1.50111 21.5804L3.24024 20.5771L28.1218 35.0319ZM28.1218 35.0319C28.122 35.032 28.1216 35.0318 28.1218 35.0319ZM0.250007 21.1436C0.094734 21.2334 -0.000969196 21.3989 7.40355e-06 21.5781L0.00879647 24.6646C0.00977307 24.8423 0.103523 25.0063 0.25782 25.0952C3.24952 26.8338 28.3123 41.3981 28.1152 41.2847C28.2695 41.3735 28.46 41.373 28.6143 41.2842L35.0508 37.5679C35.2061 37.478 35.3018 37.3125 35.3008 37.1333L35.292 34.0464C35.2913 33.9123 35.2104 33.7117 35.041 33.6143C34.8591 33.5096 32.9608 32.4051 33.0623 32.4633L33.7493 32.0658L40.8012 36.1659C40.8051 36.1683 40.8066 36.173 40.8106 36.1753C40.9648 36.2641 41.1553 36.2637 41.3096 36.1748L47.7461 32.4585C47.9014 32.3687 47.9971 32.2031 47.9961 32.0239L47.9874 28.9548C47.9876 28.9497 47.9912 28.9456 47.9912 28.9404C47.9912 28.7622 47.8965 28.5972 47.7432 28.5073L45.7607 27.3526L47.752 26.2026C47.9072 26.1133 48.0029 25.9473 48.002 25.7676L47.9912 22.6875C47.9904 22.5219 47.8372 22.3126 47.7422 22.2573L26.2822 9.77734C26.044 9.63916 25.7373 9.71826 25.5986 9.95801C25.46 10.1968 25.541 10.5029 25.7803 10.6416L46.493 22.6874L41.0527 25.8217L14.1992 10.2109L19.6309 7.07715L21.1406 7.95215C21.377 8.08936 21.6846 8.01025 21.8242 7.77051C21.9629 7.53125 21.8809 7.22559 21.6426 7.08691L19.8828 6.0669C19.7285 5.97803 19.5381 5.97754 19.3818 6.06641L12.9512 9.77637C12.7658 9.88368 12.7012 10.1048 12.7012 10.2085C12.7012 10.3092 12.7118 13.402 12.7119 13.3013C12.7129 13.4785 12.8076 13.6426 12.9609 13.7314L14.9384 14.8802L14.2538 15.2797L7.19239 11.1772C7.03907 11.0874 6.84864 11.0874 6.69141 11.1763L0.251961 14.8862C0.0866887 14.9814 0.00196053 15.2169 0.00196053 15.3184C0.00196053 15.3188 0.0022657 15.3192 0.0022657 15.3196C0.0022657 15.32 0.00196053 15.3204 0.00196053 15.3208L0.0117262 18.4106C0.0127028 18.5879 0.106453 18.752 0.259773 18.8413L2.24665 19.9959L0.263008 21.1401C0.258918 21.1423 0.254036 21.1412 0.250007 21.1436ZM1.00782 24.375L1.00294 22.4486C37.8029 43.8317 25.0991 36.45 27.8563 38.0521C27.8565 38.1528 27.8617 40.1057 27.8613 39.981L1.00782 24.375ZM28.8618 39.9861C28.8615 39.8854 28.8561 37.9276 28.8565 38.0522C28.9578 37.9937 34.6569 34.7038 34.2949 34.9128L34.2998 36.8467L28.8618 39.9861ZM28.8691 33.7332C28.8688 33.6325 28.8619 31.6727 28.8624 31.7974L34.292 28.6564C34.2924 28.7571 34.3003 30.693 34.2998 30.5923C33.8833 30.8332 28.5839 33.8981 28.8691 33.7332ZM35.0527 31.3115C35.208 31.2217 35.3027 31.0557 35.3018 30.877L35.2987 29.8921C35.4016 29.952 40.8301 33.1085 40.5516 32.9466L40.5571 34.8678L34.7471 31.4893L35.0527 31.3115ZM41.5588 34.8757L41.5527 32.9473L46.9902 29.8063L46.9951 31.7373L41.5588 34.8757ZM41.5588 28.6239C41.5585 28.5192 41.5524 26.5692 41.5527 26.6879L46.9941 23.553L47.001 25.4814C46.5259 25.7558 41.4519 28.6857 41.5588 28.6239ZM13.7041 11.0806L40.5527 26.6874C40.553 26.7881 40.559 28.7427 40.5586 28.618C37.8134 27.0222 50.5031 34.3991 13.7109 13.0107L13.7041 11.0806ZM15.9365 15.4551C16.1127 15.5576 40.9755 30.0167 40.8125 29.9228C40.967 30.0118 41.1576 30.011 41.3115 29.9224C41.4638 29.8344 44.9877 27.7989 44.7627 27.9289L46.4924 28.9359L41.049 32.0789L35.295 28.7336L35.292 27.7896C35.292 27.5848 35.1439 27.4158 35.043 27.3574L15.248 15.8573L15.9365 15.4551ZM6.94044 12.187C11.8817 15.0578 15.474 17.1471 33.793 27.7876L28.3613 30.9307L1.50001 15.3213L6.94044 12.187ZM1.00489 16.1899L27.8623 31.7978C27.8627 31.9183 27.8694 33.8316 27.869 33.7289L1.01075 18.1211L1.00489 16.1899Z" stroke="#FF9C00" stroke-width="0.5"/>
</g>
<defs>
<clipPath id="clip0_376_470">
<rect width="48" height="48" fill="white"/>
</clipPath>
</defs>
</svg>
