<svg width="48" height="48" viewBox="0 0 48 48" fill="none" xmlns="http://www.w3.org/2000/svg">
<g clip-path="url(#clip0_376_522)">
<path d="M11.7236 2.87109C11.9166 2.7919 12.1382 2.80484 12.3232 2.91309L16.9912 5.62402C17.3154 5.8125 17.4268 6.2291 17.2373 6.55371L17.2363 6.55273C17.0474 6.87908 16.6299 6.98784 16.3076 6.7998L11.9805 4.28516L1.85645 10.1318L36.0078 29.9775L46.1328 24.1318L23.0479 10.7168C22.7242 10.5282 22.6134 10.112 22.8027 9.78711C22.9918 9.46223 23.408 9.35453 23.7314 9.54199H23.7324L47.8096 23.5332L47.835 23.541L47.8594 23.5654C47.975 23.6412 48.0512 23.7458 48.0977 23.8428C48.1467 23.9454 48.1697 24.0524 48.1699 24.1328L48.1787 27.1514C48.1794 27.395 48.0497 27.6201 47.8389 27.7422L43.8682 30.0342L43.8633 32.4062L47.8203 34.6982L47.8213 34.6992C47.9405 34.7689 48.0251 34.8844 48.0781 34.9834C48.1293 35.079 48.1696 35.194 48.1699 35.2861L48.1797 38.3047C48.1804 38.5484 48.0508 38.7744 47.8398 38.8965C41.4372 42.5999 47.5049 39.0739 36.375 45.5273L36.374 45.5283C36.163 45.6496 35.9025 45.6492 35.6924 45.5264L0.18457 24.8916C-0.0237964 24.7705 -0.152488 24.5478 -0.15332 24.3066L-0.160156 21.3506C-0.164314 21.3366 -0.169922 21.316 -0.169922 21.291V21.29C-0.169129 21.0569 -0.056745 20.8239 0.160156 20.6982L4.14062 18.4004L4.14844 16.0498L0.166016 13.7354C-0.042351 13.6143 -0.171042 13.3915 -0.171875 13.1504L-0.179688 10.1318V10.1094L-0.177734 10.1006C-0.167737 9.87244 -0.0442346 9.65838 0.160156 9.54004L11.6426 2.91113L11.7236 2.87109ZM45.7607 37.0791C44.8207 37.6221 43.4996 38.3852 42.1533 39.1631C39.7234 40.5671 37.2108 42.0185 36.707 42.3096L36.7109 43.749L46.8184 37.915L46.8135 36.4707C46.5772 36.6071 46.2132 36.8178 45.7607 37.0791ZM1.20508 23.9121L35.335 43.7461L35.3311 42.3193L1.20117 22.4795L1.20508 23.9121ZM1.86719 21.2832L36.0127 41.126L39.1777 39.3057L4.91895 19.5225L1.86719 21.2832ZM5.50098 18.2852L39.8828 38.1396C39.8832 37.9929 39.8832 37.8014 39.8838 37.5771C39.8852 36.9946 39.8876 36.1905 39.8896 35.375C39.8927 34.1488 39.8951 32.896 39.8965 32.3281L36.3604 34.376C36.1495 34.4975 35.8892 34.4981 35.6777 34.374C14.8203 22.2516 7.99072 18.2827 5.98535 17.1172C5.89026 17.0619 5.80582 17.013 5.73145 16.9697H5.73047C5.72399 16.966 5.68651 16.9441 5.63477 16.9141C5.60155 16.8948 5.55866 16.8701 5.50488 16.8389L5.50098 18.2852ZM42.0557 31.083C41.7449 31.2617 41.4171 31.449 41.2588 31.54C41.2587 31.5578 41.2588 31.5774 41.2588 31.5986C41.2584 31.755 41.2586 32.0042 41.2578 32.3164C41.2563 32.9411 41.2532 33.8192 41.251 34.7148C41.2476 36.086 41.2437 37.499 41.2422 38.1104L42.4902 37.3936C42.4955 35.3158 42.5027 32.4578 42.5068 30.8232C42.3793 30.8965 42.2197 30.9887 42.0557 31.083ZM43.8525 36.5967L46.1211 35.2861L43.8594 33.9756L43.8525 36.5967ZM36.6885 31.1553L36.6924 32.6064C40.7953 30.2377 42.6482 29.1672 46.8164 26.7607L46.8125 25.3105C44.5238 26.6319 37.6649 30.5916 36.6885 31.1553ZM1.18652 12.7559C1.34109 12.8456 1.58462 12.9869 1.90625 13.1738C2.68767 13.6279 3.93151 14.351 5.49023 15.2568C8.60783 17.0685 12.9847 19.6115 17.4375 22.1992C25.4674 26.8657 33.7447 31.6771 35.332 32.5996L35.3281 31.1553L1.18262 11.3125L1.18652 12.7559Z" fill="#FF9C00" stroke="#FF9C00" stroke-width="0.36"/>
<path d="M18.2803 7.15903C18.4453 6.8748 18.7853 6.75671 19.085 6.85727L19.21 6.91391L21.6064 8.30649C21.9309 8.49511 22.0404 8.9106 21.8516 9.2352C21.6631 9.55947 21.248 9.67065 20.9229 9.48227L18.5264 8.08969C18.2016 7.90105 18.091 7.48379 18.2803 7.15903Z" fill="#FF9C00" stroke="#FF9C00" stroke-width="0.36"/>
</g>
<defs>
<clipPath id="clip0_376_522">
<rect width="48" height="48" fill="white"/>
</clipPath>
</defs>
</svg>
