<svg width="48" height="48" viewBox="0 0 48 48" fill="none" xmlns="http://www.w3.org/2000/svg">
<path d="M16.6316 42C14.8079 42 13.2468 41.3506 11.9483 40.0517C10.6494 38.7532 10 37.1921 10 35.3684V19.4815C10 17.8274 10.5217 16.401 11.5651 15.2023C12.6084 14.0035 13.9087 13.2681 15.4658 12.9958V8.73268C15.4658 7.99058 15.7357 7.34968 16.2754 6.81C16.8154 6.27 17.4564 6 18.1985 6H30.2225C30.9646 6 31.6057 6.27 32.1457 6.81C32.6854 7.34968 32.9552 7.99058 32.9552 8.73268V12.9958C34.5124 13.2681 35.8126 14.0035 36.856 15.2023C37.8994 16.401 38.4211 17.8274 38.4211 19.4815V35.3684C38.4211 37.1921 37.7716 38.7532 36.4728 40.0517C35.1743 41.3506 33.6132 42 31.7895 42H16.6316ZM12.1501 26.6962H36.271V19.4815C36.271 18.2256 35.8382 17.1647 34.9726 16.2988C34.1067 15.4329 33.0457 15 31.7895 15H16.6316C15.3754 15 14.3143 15.4329 13.4484 16.2988C12.5828 17.1647 12.1501 18.2256 12.1501 19.4815V26.6962ZM16.6316 39.8499H31.7895C33.0457 39.8499 34.1067 39.4172 34.9726 38.5516C35.8382 37.6857 36.271 36.6246 36.271 35.3684V28.8463H12.1501V35.3684C12.1501 36.6218 12.5828 37.6821 13.4484 38.5492C14.3143 39.4164 15.3754 39.8499 16.6316 39.8499ZM25.8864 12.8504H30.8056V8.73268C30.8056 8.56279 30.751 8.42321 30.6417 8.31395C30.5325 8.20468 30.3927 8.15005 30.2225 8.15005H18.1985C18.0283 8.15005 17.8886 8.20468 17.7793 8.31395C17.6701 8.42321 17.6154 8.56279 17.6154 8.73268V12.8504H22.5346C22.5346 12.3862 22.6979 11.9908 23.0244 11.6643C23.3513 11.3375 23.7466 11.1741 24.2105 11.1741C24.6744 11.1741 25.0698 11.3375 25.3966 11.6643C25.7232 11.9908 25.8864 12.3862 25.8864 12.8504Z" fill="#FF9C00"/>
</svg>
