<svg width="48" height="48" viewBox="0 0 48 48" fill="none" xmlns="http://www.w3.org/2000/svg">
<path d="M19.7499 41.0093H8.41666C8.04094 41.0093 7.6806 40.86 7.41493 40.5943C7.14925 40.3287 7 39.9683 7 39.5926C7 39.2169 7.14925 38.8566 7.41493 38.5909C7.6806 38.3252 8.04094 38.176 8.41666 38.176H19.7499C20.1256 38.176 20.486 38.3252 20.7516 38.5909C21.0173 38.8566 21.1666 39.2169 21.1666 39.5926C21.1666 39.9683 21.0173 40.3287 20.7516 40.5943C20.486 40.86 20.1256 41.0093 19.7499 41.0093ZM16.9166 35.3426H8.41666C8.04094 35.3426 7.6806 35.1934 7.41493 34.9277C7.14925 34.662 7 34.3017 7 33.926C7 33.5503 7.14925 33.1899 7.41493 32.9243C7.6806 32.6586 8.04094 32.5093 8.41666 32.5093H16.9166C17.2923 32.5093 17.6527 32.6586 17.9183 32.9243C18.184 33.1899 18.3333 33.5503 18.3333 33.926C18.3333 34.3017 18.184 34.662 17.9183 34.9277C17.6527 35.1934 17.2923 35.3426 16.9166 35.3426ZM14.0833 29.676H8.41666C8.04094 29.676 7.6806 29.5268 7.41493 29.2611C7.14925 28.9954 7 28.6351 7 28.2594C7 27.8836 7.14925 27.5233 7.41493 27.2576C7.6806 26.992 8.04094 26.8427 8.41666 26.8427H14.0833C14.459 26.8427 14.8193 26.992 15.085 27.2576C15.3507 27.5233 15.4999 27.8836 15.4999 28.2594C15.4999 28.6351 15.3507 28.9954 15.085 29.2611C14.8193 29.5268 14.459 29.676 14.0833 29.676ZM25.4165 40.9455C25.0408 40.9622 24.6739 40.829 24.3964 40.5752C24.1189 40.3213 23.9536 39.9676 23.9368 39.5919C23.9201 39.2162 24.0533 38.8492 24.3072 38.5717C24.5611 38.2942 24.9147 38.1289 25.2905 38.1122C27.9714 37.8669 30.527 36.8628 32.6578 35.2174C34.7887 33.572 36.4066 31.3535 37.322 28.8218C38.2375 26.2901 38.4126 23.5499 37.8268 20.9222C37.2411 18.2946 35.9187 15.8882 34.0146 13.985C32.1105 12.0818 29.7036 10.7605 27.0756 10.176C24.4477 9.59142 21.7076 9.76778 19.1763 10.6844C16.645 11.601 14.4272 13.2199 12.7828 15.3515C11.1384 17.4831 10.1355 20.0392 9.8914 22.7202C9.87465 22.9055 9.82158 23.0857 9.7352 23.2505C9.64882 23.4153 9.53083 23.5614 9.38797 23.6806C9.24511 23.7998 9.08017 23.8897 8.90258 23.9451C8.72498 24.0005 8.5382 24.0205 8.35291 24.0037C8.16761 23.987 7.98743 23.9339 7.82265 23.8475C7.65787 23.7611 7.51171 23.6432 7.39253 23.5003C7.27335 23.3574 7.18347 23.1925 7.12803 23.0149C7.07259 22.8373 7.05267 22.6505 7.06942 22.4652C7.46451 18.1066 9.52534 14.0683 12.8229 11.1909C16.1205 8.31344 20.4008 6.81863 24.7728 7.01759C29.1447 7.21656 33.2715 9.09397 36.2941 12.259C39.3167 15.4241 41.0022 19.6329 40.9998 24.0094C41.0215 28.257 39.4435 32.3572 36.5797 35.4942C33.7158 38.6313 29.7761 40.5754 25.544 40.9399C25.5015 40.9441 25.4576 40.9455 25.4165 40.9455ZM23.9999 15.5094C23.6242 15.5094 23.2638 15.6587 22.9982 15.9244C22.7325 16.19 22.5832 16.5504 22.5832 16.9261V24.0094C22.5833 24.3851 22.7326 24.7453 22.9983 25.011L27.2483 29.2609C27.5155 29.519 27.8733 29.6618 28.2448 29.6586C28.6162 29.6553 28.9715 29.5063 29.2342 29.2437C29.4968 28.981 29.6458 28.6257 29.6491 28.2543C29.6523 27.8828 29.5095 27.525 29.2514 27.2578L25.4165 23.4229V16.9261C25.4165 16.5504 25.2673 16.19 25.0016 15.9244C24.7359 15.6587 24.3756 15.5094 23.9999 15.5094Z" fill="#FF9C00"/>
</svg>
