<svg width="48" height="48" viewBox="0 0 48 48" fill="none" xmlns="http://www.w3.org/2000/svg">
<path d="M44.8953 42.0231C44.4746 40.5387 43.5667 39.2022 42.339 38.2598C41.5123 37.6252 40.5803 37.1852 39.5879 36.955C39.1204 32.1881 35.0891 28.451 30.2015 28.451C28.2588 28.451 26.3662 29.0535 24.7873 30.161C24.8094 27.6033 24.3659 24.9928 23.5749 23.1457C23.2748 22.4447 22.4633 22.1197 21.7621 22.4198L19.0458 23.5828L17.8076 20.6909C17.5075 19.9899 16.6959 19.6649 15.9948 19.9651L15.7202 20.0826L10.8144 8.62465C11.4551 8.10096 11.9573 7.4218 12.2735 6.63226C12.7658 5.40272 12.7498 4.05497 12.2285 2.8373C12.0844 2.50076 11.8124 2.2351 11.4724 2.09895C11.1326 1.9628 10.7524 1.96731 10.4157 2.11147L3.83766 4.92791C3.13659 5.22809 2.81165 6.03972 3.11183 6.74079C3.63312 7.95837 4.59737 8.90007 5.82701 9.39246C6.42333 9.63124 7.04735 9.75045 7.67101 9.75045C7.87297 9.75045 8.07475 9.73637 8.2757 9.71142L13.1816 21.1698L12.907 21.2873C12.5703 21.4314 12.3048 21.7034 12.1686 22.0433C12.0325 22.3833 12.037 22.7635 12.1811 23.1L13.4193 25.992L10.7029 27.155C10.3663 27.2991 10.1007 27.5712 9.96459 27.911C9.82845 28.251 9.83296 28.6312 9.97711 28.9678C10.8786 31.0733 12.8091 33.537 15.0152 35.3973C15.3685 35.6953 15.7951 36.0318 16.2704 36.3616C14.9981 37.7702 14.2209 39.6343 14.2209 41.6776C14.2209 42.2439 14.2815 42.8106 14.4011 43.3616C14.6766 44.6317 15.8003 45.5378 17.0999 45.5378H42.2384C43.104 45.5378 43.9194 45.132 44.4413 44.4416C44.9633 43.7511 45.1313 42.8558 44.8953 42.0231ZM6.8534 6.8287C6.78086 6.79971 6.71044 6.76703 6.64232 6.73113L9.78491 5.38569C9.76383 5.45979 9.73879 5.53325 9.70979 5.60578C9.49163 6.15055 9.07444 6.57777 8.53492 6.80873C7.9955 7.03969 7.39826 7.04678 6.8534 6.8287ZM15.2632 23.2824L15.8123 23.0473L16.507 24.6698L15.9579 24.9049L15.2632 23.2824ZM13.1582 29.1076L21.4807 25.5443C21.9122 27.1554 22.1093 29.1792 21.994 31.0602C21.9235 32.2118 21.7493 33.1045 21.5405 33.7625C20.4929 33.8441 19.5023 34.1294 18.6073 34.5794C18.0805 34.2773 17.4722 33.8566 16.7954 33.2859C15.3547 32.0712 14.0262 30.5318 13.1582 29.1076ZM17.0999 42.7761C17.0231 42.4221 16.9825 42.0545 16.9825 41.6774C16.9825 38.8167 19.3016 36.4977 22.1622 36.4977C22.3952 36.4977 22.6245 36.5134 22.8492 36.5434C23.2794 36.6009 23.6956 36.3512 23.8221 35.9361C24.655 33.2021 27.1952 31.2126 30.2015 31.2126C33.8854 31.2126 36.8717 34.1989 36.8717 37.8827C36.8717 38.1081 36.8602 38.3307 36.8381 38.5502C36.7831 39.0962 37.2207 39.5539 37.769 39.533C37.8264 39.5307 37.8842 39.5296 37.9422 39.5296C39.9857 39.5296 41.7075 40.9026 42.2384 42.7761H17.0999V42.7761Z" fill="#FF9C00"/>
</svg>
