<svg width="340" height="171" viewBox="0 0 340 171" fill="none" xmlns="http://www.w3.org/2000/svg">
<path d="M189.231 106.636L189.497 93.2288L195.145 93.4363C196.033 93.469 196.785 93.6527 197.403 93.9875C198.032 94.3108 198.509 94.7606 198.834 95.3368C199.171 95.9015 199.331 96.5797 199.316 97.3716C199.303 97.9835 199.124 98.5532 198.778 99.0807C198.443 99.5967 197.913 100.015 197.187 100.337L197.209 99.2032C197.864 99.4794 198.379 99.8105 198.755 100.197C199.132 100.583 199.393 101.006 199.54 101.468C199.687 101.93 199.755 102.412 199.745 102.916C199.72 104.2 199.274 105.192 198.408 105.893C197.555 106.582 196.378 106.899 194.879 106.844L189.231 106.636ZM191.72 104.566L195.174 104.693C195.81 104.717 196.317 104.561 196.695 104.227C197.086 103.881 197.287 103.414 197.299 102.826C197.311 102.239 197.128 101.758 196.752 101.384C196.387 101.01 195.887 100.812 195.252 100.788L191.798 100.661L191.72 104.566ZM191.84 98.5197L195.168 98.6419C195.672 98.6605 196.076 98.5312 196.382 98.2543C196.688 97.9654 196.845 97.587 196.854 97.1191C196.864 96.6512 196.721 96.2737 196.427 95.9868C196.133 95.6998 195.734 95.5471 195.23 95.5286L191.902 95.4063L191.84 98.5197Z" fill="#FF9C00"/>
<path d="M194.167 79.6988L197.029 84.8019L191.26 84.5775L194.167 79.6988ZM194.109 92.3513L193.61 92.3319L193.647 84.1712L194.146 84.1906L194.646 84.2101L194.609 92.3707L194.109 92.3513Z" fill="#FF9C00"/>
<path d="M194.697 120.008L197.48 115.144L191.719 114.86L194.697 120.008ZM194.441 106.94L193.942 106.915L194.11 115.478L194.609 115.503L195.108 115.527L194.94 106.964L194.441 106.94Z" fill="#FF9C00"/>
<path d="M153.767 84.4403L164.13 72.2334L167.357 71.8894L166.418 83.0918L163.705 83.381L163.946 80.9709L158.666 81.5337L156.462 84.153L153.767 84.4403ZM160.291 79.5722L164.142 79.1618L164.682 73.5753L165.379 73.5011L160.291 79.5722Z" fill="#FF9C00"/>
<path d="M116.222 78.0005L121.372 80.9537L121.071 75.188L116.222 78.0005ZM150.227 78.4792L150.201 77.9799L120.696 77.5645L120.722 78.0638L120.748 78.5631L150.253 78.9785L150.227 78.4792Z" fill="#FF9C00"/>
<path d="M204.878 78.8081L200.028 81.6206L199.728 75.8549L204.878 78.8081ZM170.873 78.3294L170.847 77.8301L200.352 78.2455L200.378 78.7448L200.404 79.2441L170.899 78.8287L170.873 78.3294Z" fill="#FF9C00"/>
<path d="M154.68 170.086L160.331 158.382L164.787 157.907C166.229 157.753 167.361 157.871 168.181 158.26C169.019 158.638 169.519 159.235 169.681 160.052C169.848 160.859 169.654 161.839 169.097 162.991C168.546 164.133 167.762 165.18 166.746 166.133C165.734 167.075 164.569 167.855 163.251 168.472C161.95 169.078 160.578 169.458 159.136 169.611L154.68 170.086ZM158.084 167.935L160.101 167.72C161.03 167.621 161.909 167.373 162.738 166.977C163.584 166.569 164.339 166.051 165.001 165.424C165.668 164.787 166.196 164.065 166.586 163.259C166.98 162.442 167.129 161.76 167.034 161.214C166.938 160.668 166.626 160.269 166.098 160.017C165.583 159.764 164.86 159.687 163.931 159.786L161.915 160.001L158.084 167.935Z" fill="#FF9C00"/>
<path d="M116.279 163.738L121.428 166.691L121.128 160.925L116.279 163.738ZM150.283 164.217L150.257 163.717L120.752 163.302L120.778 163.801L120.804 164.301L150.309 164.716L150.283 164.217Z" fill="#FF9C00"/>
<path d="M204.934 164.546L200.085 167.358L199.784 161.592L204.934 164.546ZM170.93 164.067L170.904 163.568L200.409 163.983L200.435 164.482L200.461 164.982L170.956 164.566L170.93 164.067Z" fill="#FF9C00"/>
<path d="M99.5243 142.239C98.6002 142.552 97.7562 142.672 96.9922 142.599C96.2397 142.522 95.5882 142.279 95.0376 141.871C94.4985 141.458 94.0932 140.898 93.8216 140.189C93.5499 139.48 93.4448 138.641 93.5062 137.67C93.5677 136.7 93.7802 135.753 94.1439 134.829C94.5198 133.89 95.0154 133.024 95.6307 132.233C96.2583 131.425 96.9752 130.725 97.7813 130.132C98.5883 129.527 99.4537 129.068 100.378 128.755C101.302 128.442 102.118 128.321 102.825 128.39C103.545 128.455 104.142 128.665 104.617 129.019C105.092 129.361 105.42 129.805 105.601 130.35L103.424 132.065C103.223 131.493 102.846 131.094 102.296 130.869C101.745 130.632 101.06 130.652 100.24 130.93C99.4316 131.203 98.7033 131.639 98.0551 132.236C97.4185 132.829 96.9055 133.523 96.516 134.318C96.1381 135.109 95.9203 135.961 95.8626 136.873C95.8049 137.784 95.9217 138.528 96.213 139.105C96.5166 139.665 96.9623 140.035 97.5501 140.213C98.1494 140.388 98.8534 140.338 99.6619 140.065C100.482 139.787 101.194 139.34 101.798 138.724C102.403 138.096 102.848 137.413 103.132 136.677L105.182 136.96C104.924 137.654 104.523 138.35 103.982 139.048C103.441 139.735 102.791 140.361 102.032 140.927C101.284 141.489 100.448 141.926 99.5243 142.239Z" fill="#FF9C00"/>
<path d="M99.3756 112.508L96.3904 117.64L102.158 117.373L99.3756 112.508ZM99.0254 129.748L99.5249 129.724L99.7837 116.984L99.2842 117.007L98.7848 117.03L98.5259 129.771L99.0254 129.748Z" fill="#FF9C00"/>
<path d="M98.8978 157.446L96.1157 152.581L101.883 152.314L98.8978 157.446ZM99.248 140.206L99.7475 140.183L99.4887 152.924L98.9892 152.947L98.4898 152.97L98.7486 140.23L99.248 140.206Z" fill="#FF9C00"/>
<path d="M130.979 60.7979C129.843 60.7979 128.787 60.5899 127.811 60.1739C126.851 59.7579 126.019 59.1819 125.315 58.4459C124.627 57.6939 124.123 56.8219 123.803 55.8299L126.515 54.6539C126.947 55.6779 127.571 56.4859 128.387 57.0779C129.203 57.6539 130.123 57.9419 131.147 57.9419C131.723 57.9419 132.219 57.8539 132.635 57.6779C133.067 57.4859 133.395 57.2299 133.619 56.9099C133.859 56.5899 133.979 56.2059 133.979 55.7579C133.979 55.2299 133.819 54.7979 133.499 54.4619C133.195 54.1099 132.731 53.8379 132.107 53.6459L128.675 52.5419C127.283 52.1099 126.235 51.4619 125.531 50.5979C124.827 49.7339 124.475 48.7179 124.475 47.5499C124.475 46.5259 124.723 45.6219 125.219 44.8379C125.731 44.0539 126.435 43.4459 127.331 43.0139C128.243 42.5659 129.283 42.3419 130.451 42.3419C131.523 42.3419 132.507 42.5339 133.403 42.9179C134.299 43.2859 135.067 43.8059 135.707 44.4779C136.363 45.1339 136.851 45.9099 137.171 46.8059L134.483 48.0059C134.131 47.1099 133.603 46.4219 132.899 45.9419C132.195 45.4459 131.379 45.1979 130.451 45.1979C129.907 45.1979 129.427 45.2939 129.011 45.4859C128.595 45.6619 128.267 45.9179 128.027 46.2539C127.803 46.5739 127.691 46.9579 127.691 47.4059C127.691 47.9019 127.851 48.3419 128.171 48.7259C128.491 49.0939 128.979 49.3819 129.635 49.5899L132.923 50.6219C134.347 51.0859 135.411 51.7259 136.115 52.5419C136.835 53.3579 137.195 54.3659 137.195 55.5659C137.195 56.5899 136.931 57.4939 136.403 58.2779C135.875 59.0619 135.147 59.6779 134.219 60.1259C133.291 60.5739 132.211 60.7979 130.979 60.7979ZM146.062 60.7979C144.718 60.7979 143.542 60.4939 142.534 59.8859C141.526 59.2779 140.742 58.4539 140.182 57.4139C139.622 56.3739 139.342 55.2219 139.342 53.9579C139.342 52.6459 139.622 51.4859 140.182 50.4779C140.758 49.4539 141.534 48.6459 142.51 48.0539C143.502 47.4619 144.606 47.1659 145.822 47.1659C146.846 47.1659 147.742 47.3339 148.51 47.6699C149.294 48.0059 149.958 48.4699 150.502 49.0619C151.046 49.6539 151.462 50.3339 151.75 51.1019C152.038 51.8539 152.182 52.6699 152.182 53.5499C152.182 53.7739 152.166 54.0059 152.134 54.2459C152.118 54.4859 152.078 54.6939 152.014 54.8699H141.934V52.4699H150.238L148.75 53.5979C148.894 52.8619 148.854 52.2059 148.63 51.6299C148.422 51.0539 148.07 50.5979 147.574 50.2619C147.094 49.9259 146.51 49.7579 145.822 49.7579C145.166 49.7579 144.582 49.9259 144.07 50.2619C143.558 50.5819 143.166 51.0619 142.894 51.7019C142.638 52.3259 142.542 53.0859 142.606 53.9819C142.542 54.7819 142.646 55.4939 142.918 56.1179C143.206 56.7259 143.622 57.1979 144.166 57.5339C144.726 57.8699 145.366 58.0379 146.086 58.0379C146.806 58.0379 147.414 57.8859 147.91 57.5819C148.422 57.2779 148.822 56.8699 149.11 56.3579L151.654 57.6059C151.398 58.2299 150.998 58.7819 150.454 59.2619C149.91 59.7419 149.262 60.1179 148.51 60.3899C147.774 60.6619 146.958 60.7979 146.062 60.7979ZM160.854 60.7979C159.558 60.7979 158.39 60.5019 157.35 59.9099C156.326 59.3019 155.518 58.4859 154.926 57.4619C154.334 56.4219 154.038 55.2539 154.038 53.9579C154.038 52.6619 154.334 51.5019 154.926 50.4779C155.518 49.4539 156.326 48.6459 157.35 48.0539C158.39 47.4619 159.558 47.1659 160.854 47.1659C161.782 47.1659 162.646 47.3339 163.446 47.6699C164.246 47.9899 164.934 48.4379 165.51 49.0139C166.102 49.5739 166.526 50.2459 166.782 51.0299L164.022 52.2299C163.782 51.5739 163.374 51.0459 162.798 50.6459C162.238 50.2459 161.59 50.0459 160.854 50.0459C160.166 50.0459 159.55 50.2139 159.006 50.5499C158.478 50.8859 158.062 51.3499 157.758 51.9419C157.454 52.5339 157.302 53.2139 157.302 53.9819C157.302 54.7499 157.454 55.4299 157.758 56.0219C158.062 56.6139 158.478 57.0779 159.006 57.4139C159.55 57.7499 160.166 57.9179 160.854 57.9179C161.606 57.9179 162.262 57.7179 162.822 57.3179C163.382 56.9179 163.782 56.3819 164.022 55.7099L166.782 56.9579C166.526 57.6939 166.11 58.3579 165.534 58.9499C164.958 59.5259 164.27 59.9819 163.47 60.3179C162.67 60.6379 161.798 60.7979 160.854 60.7979ZM175.119 60.6539C173.647 60.6539 172.503 60.2539 171.687 59.4539C170.887 58.6379 170.487 57.4939 170.487 56.0219V50.2619H168.231V47.4539H168.471C169.111 47.4539 169.607 47.2859 169.959 46.9499C170.311 46.6139 170.487 46.1259 170.487 45.4859V44.4779H173.631V47.4539H176.631V50.2619H173.631V55.8539C173.631 56.2859 173.703 56.6539 173.847 56.9579C174.007 57.2619 174.247 57.4939 174.567 57.6539C174.903 57.8139 175.327 57.8939 175.839 57.8939C175.951 57.8939 176.079 57.8859 176.223 57.8699C176.383 57.8539 176.535 57.8379 176.679 57.8219V60.5099C176.455 60.5419 176.199 60.5739 175.911 60.6059C175.623 60.6379 175.359 60.6539 175.119 60.6539ZM185.348 60.7979C184.068 60.7979 182.9 60.5019 181.844 59.9099C180.804 59.3179 179.972 58.5099 179.348 57.4859C178.74 56.4619 178.436 55.2939 178.436 53.9819C178.436 52.6699 178.74 51.5019 179.348 50.4779C179.972 49.4539 180.804 48.6459 181.844 48.0539C182.884 47.4619 184.052 47.1659 185.348 47.1659C186.628 47.1659 187.788 47.4619 188.828 48.0539C189.868 48.6459 190.692 49.4539 191.3 50.4779C191.924 51.4859 192.236 52.6539 192.236 53.9819C192.236 55.2939 191.924 56.4619 191.3 57.4859C190.676 58.5099 189.844 59.3179 188.804 59.9099C187.764 60.5019 186.612 60.7979 185.348 60.7979ZM185.348 57.9179C186.052 57.9179 186.668 57.7499 187.196 57.4139C187.74 57.0779 188.164 56.6139 188.468 56.0219C188.788 55.4139 188.948 54.7339 188.948 53.9819C188.948 53.2139 188.788 52.5419 188.468 51.9659C188.164 51.3739 187.74 50.9099 187.196 50.5739C186.668 50.2219 186.052 50.0459 185.348 50.0459C184.628 50.0459 183.996 50.2219 183.452 50.5739C182.908 50.9099 182.476 51.3739 182.156 51.9659C181.852 52.5419 181.7 53.2139 181.7 53.9819C181.7 54.7339 181.852 55.4139 182.156 56.0219C182.476 56.6139 182.908 57.0779 183.452 57.4139C183.996 57.7499 184.628 57.9179 185.348 57.9179ZM194.62 60.5099V47.4539H197.572V50.3579L197.332 49.9259C197.636 48.9499 198.108 48.2699 198.748 47.8859C199.404 47.5019 200.188 47.3099 201.1 47.3099H201.868V50.0939H200.74C199.844 50.0939 199.124 50.3739 198.58 50.9339C198.036 51.4779 197.764 52.2459 197.764 53.2379V60.5099H194.62Z" fill="#FF9C00"/>
<path d="M150.719 122.75V91.1973H171.217V122.75H210V151.718H113V122.75H150.719Z" stroke="#FF9C00" stroke-width="2.8"/>
</svg>
