<svg width="48" height="48" viewBox="0 0 48 48" fill="none" xmlns="http://www.w3.org/2000/svg">
<mask id="mask0_441_232" style="mask-type:luminance" maskUnits="userSpaceOnUse" x="3" y="3" width="42" height="42">
<path d="M45 3H3V45H45V3Z" fill="white"/>
</mask>
<g mask="url(#mask0_441_232)">
<path fill-rule="evenodd" clip-rule="evenodd" d="M18.5605 6.94499C20.091 4.35167 23.9089 4.35167 25.4396 6.94499L40.4523 32.382C42.0316 35.0579 39.9837 38.2336 37.0128 38.2336H6.98721C4.01631 38.2336 1.96843 35.0579 3.54768 32.382L18.5605 6.94499ZM22.7138 8.55374C22.4079 8.03556 21.5921 8.03556 21.2862 8.55374L6.27346 33.9908C6.03043 34.4026 6.28519 35.0685 6.98721 35.0685H37.0128C37.7148 35.0685 37.9696 34.4026 37.7265 33.9908L22.7138 8.55374Z" fill="#FF9C00"/>
</g>
</svg>
