<svg width="325" height="200" viewBox="0 0 325 200" fill="none" xmlns="http://www.w3.org/2000/svg">
<path fill-rule="evenodd" clip-rule="evenodd" d="M149.634 51.7354C154.024 44.0882 164.976 44.0882 169.366 51.7354L212.429 126.745C216.959 134.635 211.085 144 202.563 144H116.437C107.915 144 102.041 134.635 106.571 126.745L149.634 51.7354ZM161.547 56.4793C160.67 54.9513 158.33 54.9513 157.452 56.4793L114.39 131.489C113.693 132.703 114.423 134.667 116.437 134.667H202.563C204.577 134.667 205.308 132.703 204.61 131.489L161.547 56.4793Z" fill="#FF9C00"/>
<path d="M204.036 94.6307L207.169 80.7953L210.318 80.449L216.382 93.273L213.734 93.5642L212.471 90.8057L207.318 91.3724L206.666 94.3414L204.036 94.6307ZM207.779 89.1486L211.537 88.7354L208.588 82.3414L209.268 82.2667L207.779 89.1486Z" fill="#FF9C00"/>
<path d="M231.08 130.723L231.37 124.956L226.232 127.588L231.08 130.723ZM213.041 95.5009L212.596 95.7289L228.584 126.945L229.029 126.717L229.474 126.489L213.486 95.273L213.041 95.5009Z" fill="#FF9C00"/>
<path d="M187.318 45.2774L192.167 48.4117L187.028 51.0436L187.318 45.2774ZM205.357 80.4991L204.912 80.727L188.924 49.5106L189.369 49.2826L189.815 49.0547L205.802 80.2712L205.357 80.4991Z" fill="#FF9C00"/>
<path d="M113.944 97.5816C113.05 97.9322 112.16 98.0945 111.273 98.0686C110.397 98.0383 109.56 97.8445 108.762 97.4873C107.975 97.1256 107.272 96.6153 106.652 95.9562C106.032 95.2972 105.539 94.5042 105.175 93.5772C104.81 92.6503 104.625 91.7368 104.62 90.8367C104.621 89.9211 104.789 89.069 105.123 88.2803C105.465 87.4761 105.954 86.7687 106.59 86.158C107.223 85.5362 107.986 85.05 108.879 84.6995C109.773 84.3489 110.631 84.1864 111.454 84.2119C112.287 84.2329 113.048 84.3984 113.738 84.7081C114.422 85.0067 114.987 85.4103 115.432 85.919L113.763 87.6757C113.283 87.1423 112.684 86.7842 111.967 86.6012C111.246 86.4071 110.489 86.4656 109.696 86.7767C108.914 87.0834 108.294 87.5394 107.836 88.1445C107.388 88.7453 107.125 89.4353 107.044 90.2145C106.975 90.9893 107.111 91.8122 107.454 92.6833C107.796 93.5544 108.259 94.2559 108.842 94.7877C109.432 95.304 110.095 95.6303 110.832 95.7666C111.58 95.8985 112.345 95.8111 113.127 95.5044C113.921 95.1933 114.517 94.7272 114.918 94.106C115.314 93.4737 115.507 92.7989 115.495 92.0814L117.915 92.2344C117.935 92.9096 117.799 93.5948 117.505 94.2902C117.206 94.9744 116.759 95.6074 116.163 96.1894C115.577 96.767 114.838 97.2311 113.944 97.5816Z" fill="#FF9C00"/>
<path d="M88.9542 136.162L88.845 130.388L93.8967 133.184L88.9542 136.162ZM108.572 100.634L109.01 100.876L91.5667 132.466L91.1292 132.224L90.6917 131.982L108.135 100.392L108.572 100.634Z" fill="#FF9C00"/>
<path d="M135.745 49.5299L130.895 52.5602L135.947 55.3555L135.745 49.5299ZM116.881 85.4753L117.318 85.7174L134.091 53.7571L133.653 53.5151L133.216 53.273L116.443 85.2332L116.881 85.4753Z" fill="#FF9C00"/>
<path d="M156.844 161.49L157.531 148.098L163.175 148.392C164.062 148.438 164.809 148.633 165.416 148.977C166.036 149.31 166.499 149.766 166.806 150.347C167.125 150.916 167.264 151.597 167.224 152.387C167.192 152.999 166.995 153.565 166.632 154.087C166.281 154.597 165.737 155.008 165.001 155.318L165.059 154.185C165.705 154.471 166.21 154.81 166.575 155.202C166.939 155.593 167.187 156.021 167.32 156.484C167.452 156.948 167.506 157.431 167.48 157.934C167.414 159.217 166.937 160.201 166.049 160.888C165.173 161.563 163.986 161.862 162.488 161.784L156.844 161.49ZM159.399 159.46L162.85 159.64C163.486 159.673 163.998 159.525 164.387 159.197C164.789 158.858 165.005 158.394 165.035 157.807C165.065 157.22 164.898 156.736 164.533 156.357C164.18 155.978 163.686 155.772 163.05 155.739L159.599 155.559L159.399 159.46ZM159.709 153.42L163.034 153.593C163.538 153.62 163.946 153.497 164.261 153.225C164.576 152.941 164.745 152.565 164.769 152.097C164.793 151.63 164.662 151.251 164.377 150.96C164.092 150.668 163.697 150.51 163.194 150.483L159.868 150.31L159.709 153.42Z" fill="#FF9C00"/>
<path d="M112.077 155.097L117.211 152.452L116.93 158.219L112.077 155.097ZM152.615 157.035L152.591 157.535L116.547 155.811L116.571 155.312L116.596 154.812L152.64 156.536L152.615 157.035Z" fill="#FF9C00"/>
<path d="M210.465 158.885L205.607 155.869L205.326 161.635L210.465 158.885ZM169.885 157.807L169.86 158.306L205.942 159.265L205.966 158.765L205.99 158.266L169.909 157.308L169.885 157.807Z" fill="#FF9C00"/>
<path d="M121.822 26V11H117.19V8.12H129.67V11H125.11V26H121.822ZM129.968 26V12.944H132.92V15.848L132.68 15.416C132.984 14.44 133.456 13.76 134.096 13.376C134.752 12.992 135.536 12.8 136.448 12.8H137.216V15.584H136.088C135.192 15.584 134.472 15.864 133.928 16.424C133.384 16.968 133.112 17.736 133.112 18.728V26H129.968ZM138.944 26V12.944H142.088V26H138.944ZM138.944 11.48V8.12H142.088V11.48H138.944ZM148.951 26.288C148.039 26.288 147.247 26.136 146.575 25.832C145.903 25.528 145.383 25.096 145.015 24.536C144.647 23.96 144.463 23.296 144.463 22.544C144.463 21.824 144.623 21.184 144.943 20.624C145.263 20.048 145.759 19.568 146.431 19.184C147.103 18.8 147.951 18.528 148.975 18.368L153.247 17.672V20.072L149.575 20.696C148.951 20.808 148.487 21.008 148.183 21.296C147.879 21.584 147.727 21.96 147.727 22.424C147.727 22.872 147.895 23.232 148.231 23.504C148.583 23.76 149.015 23.888 149.527 23.888C150.183 23.888 150.759 23.752 151.255 23.48C151.767 23.192 152.159 22.8 152.431 22.304C152.719 21.808 152.863 21.264 152.863 20.672V17.312C152.863 16.752 152.639 16.288 152.191 15.92C151.759 15.536 151.183 15.344 150.463 15.344C149.791 15.344 149.191 15.528 148.663 15.896C148.151 16.248 147.775 16.72 147.535 17.312L144.967 16.064C145.223 15.376 145.623 14.784 146.167 14.288C146.727 13.776 147.383 13.376 148.135 13.088C148.887 12.8 149.703 12.656 150.583 12.656C151.655 12.656 152.599 12.856 153.415 13.256C154.231 13.64 154.863 14.184 155.311 14.888C155.775 15.576 156.007 16.384 156.007 17.312V26H153.031V23.768L153.703 23.72C153.367 24.28 152.967 24.752 152.503 25.136C152.039 25.504 151.511 25.792 150.919 26C150.327 26.192 149.671 26.288 148.951 26.288ZM158.913 26V12.944H161.865V15.512L161.625 15.056C161.929 14.272 162.425 13.68 163.113 13.28C163.817 12.864 164.633 12.656 165.561 12.656C166.521 12.656 167.369 12.864 168.105 13.28C168.857 13.696 169.441 14.28 169.857 15.032C170.273 15.768 170.481 16.624 170.481 17.6V26H167.337V18.344C167.337 17.768 167.225 17.272 167.001 16.856C166.777 16.44 166.465 16.12 166.065 15.896C165.681 15.656 165.225 15.536 164.697 15.536C164.185 15.536 163.729 15.656 163.329 15.896C162.929 16.12 162.617 16.44 162.393 16.856C162.169 17.272 162.057 17.768 162.057 18.344V26H158.913ZM179.476 31.28C178.5 31.28 177.596 31.12 176.764 30.8C175.932 30.48 175.212 30.032 174.604 29.456C174.012 28.896 173.58 28.232 173.308 27.464L176.236 26.36C176.428 26.968 176.804 27.456 177.364 27.824C177.94 28.208 178.644 28.4 179.476 28.4C180.116 28.4 180.676 28.28 181.156 28.04C181.652 27.8 182.036 27.448 182.308 26.984C182.58 26.536 182.716 25.992 182.716 25.352V22.376L183.316 23.096C182.868 23.88 182.268 24.472 181.516 24.872C180.764 25.272 179.908 25.472 178.948 25.472C177.732 25.472 176.644 25.192 175.684 24.632C174.724 24.072 173.972 23.304 173.428 22.328C172.884 21.352 172.612 20.256 172.612 19.04C172.612 17.808 172.884 16.712 173.428 15.752C173.972 14.792 174.716 14.04 175.66 13.496C176.604 12.936 177.676 12.656 178.876 12.656C179.852 12.656 180.708 12.864 181.444 13.28C182.196 13.68 182.82 14.264 183.316 15.032L182.884 15.824V12.944H185.86V25.352C185.86 26.488 185.58 27.504 185.02 28.4C184.476 29.296 183.724 30 182.764 30.512C181.82 31.024 180.724 31.28 179.476 31.28ZM179.332 22.568C180.004 22.568 180.588 22.424 181.084 22.136C181.596 21.832 181.996 21.416 182.284 20.888C182.572 20.36 182.716 19.752 182.716 19.064C182.716 18.392 182.564 17.792 182.26 17.264C181.972 16.72 181.572 16.296 181.06 15.992C180.564 15.688 179.988 15.536 179.332 15.536C178.676 15.536 178.084 15.688 177.556 15.992C177.028 16.296 176.612 16.72 176.308 17.264C176.02 17.792 175.876 18.392 175.876 19.064C175.876 19.736 176.02 20.336 176.308 20.864C176.612 21.392 177.02 21.808 177.532 22.112C178.06 22.416 178.66 22.568 179.332 22.568ZM188.796 26V7.832H191.94V26H188.796ZM201.035 26.288C199.691 26.288 198.515 25.984 197.507 25.376C196.499 24.768 195.715 23.944 195.155 22.904C194.595 21.864 194.315 20.712 194.315 19.448C194.315 18.136 194.595 16.976 195.155 15.968C195.731 14.944 196.507 14.136 197.483 13.544C198.475 12.952 199.579 12.656 200.795 12.656C201.819 12.656 202.715 12.824 203.483 13.16C204.267 13.496 204.931 13.96 205.475 14.552C206.019 15.144 206.435 15.824 206.723 16.592C207.011 17.344 207.155 18.16 207.155 19.04C207.155 19.264 207.139 19.496 207.107 19.736C207.091 19.976 207.051 20.184 206.987 20.36H196.907V17.96H205.211L203.723 19.088C203.867 18.352 203.827 17.696 203.603 17.12C203.395 16.544 203.043 16.088 202.547 15.752C202.067 15.416 201.483 15.248 200.795 15.248C200.139 15.248 199.555 15.416 199.043 15.752C198.531 16.072 198.139 16.552 197.867 17.192C197.611 17.816 197.515 18.576 197.579 19.472C197.515 20.272 197.619 20.984 197.891 21.608C198.179 22.216 198.595 22.688 199.139 23.024C199.699 23.36 200.339 23.528 201.059 23.528C201.779 23.528 202.387 23.376 202.883 23.072C203.395 22.768 203.795 22.36 204.083 21.848L206.627 23.096C206.371 23.72 205.971 24.272 205.427 24.752C204.883 25.232 204.235 25.608 203.483 25.88C202.747 26.152 201.931 26.288 201.035 26.288Z" fill="#FF9C00"/>
</svg>
