<svg width="48" height="48" viewBox="0 0 48 48" fill="none" xmlns="http://www.w3.org/2000/svg">
<path d="M36.1934 19.516V34.4501L23.4192 40.3495V23.1625L32.8024 18.8309C31.9556 18.4642 31.1718 17.9665 30.4798 17.3561L22.258 21.1418L9.93675 15.4516L22.258 9.76127L27.6115 12.2348C27.5276 11.7633 27.4849 11.2854 27.4837 10.8064C27.4865 10.418 27.5137 10.0302 27.565 9.64514L22.7457 7.42709C22.5928 7.35635 22.4264 7.3197 22.258 7.3197C22.0895 7.3197 21.9231 7.35635 21.7702 7.42709L6.67355 14.3948C6.47197 14.4881 6.30138 14.6372 6.182 14.8245C6.06262 15.0118 5.99945 15.2294 6 15.4516V35.1934C5.99945 35.4155 6.06262 35.6331 6.182 35.8204C6.30138 36.0077 6.47197 36.1568 6.67355 36.2501L21.7702 43.2178C21.9231 43.2886 22.0895 43.3252 22.258 43.3252C22.4264 43.3252 22.5928 43.2886 22.7457 43.2178L37.8424 36.2501C38.0439 36.1568 38.2145 36.0077 38.3339 35.8204C38.4533 35.6331 38.5165 35.4155 38.5159 35.1934V19.1909C37.7603 19.4053 36.9788 19.5147 36.1934 19.516ZM21.0967 40.3495L8.32257 34.4501V17.2632L21.0967 23.1625V40.3495Z" fill="#FF9C00"/>
<path d="M36.1931 16.6128C39.3999 16.6128 41.9995 14.0132 41.9995 10.8064C41.9995 7.59962 39.3999 5 36.1931 5C32.9863 5 30.3867 7.59962 30.3867 10.8064C30.3867 14.0132 32.9863 16.6128 36.1931 16.6128Z" fill="#FF9C00"/>
</svg>
