<svg width="48" height="48" viewBox="0 0 48 48" fill="none" xmlns="http://www.w3.org/2000/svg">
<path d="M31.8409 11.7752C29.7354 9.34354 27.3657 7.15391 24.7756 5.24678C24.5463 5.08616 24.2731 5 23.9932 5C23.7132 5 23.4401 5.08616 23.2108 5.24678C20.6254 7.15471 18.2603 9.34431 16.1591 11.7752C11.4733 17.1564 9 22.8292 9 28.1814C9 32.1597 10.5804 35.975 13.3934 38.788C16.2064 41.6011 20.0218 43.1814 24 43.1814C27.9782 43.1814 31.7936 41.6011 34.6066 38.788C37.4196 35.975 39 32.1597 39 28.1814C39 22.8292 36.5267 17.1564 31.8409 11.7752ZM34.1983 34.9996H13.8017C13.2356 34.1507 12.7775 33.2346 12.4381 32.2723H35.5687C35.2272 33.2349 34.7668 34.1511 34.1983 34.9996ZM36.2727 28.1814C36.2724 28.6371 36.2463 29.0924 36.1943 29.5451H11.8057C11.7537 29.0924 11.7276 28.6371 11.7273 28.1814C11.7273 27.7269 11.7477 27.2723 11.7886 26.8178H36.2114C36.2523 27.2723 36.2727 27.7269 36.2727 28.1814ZM24 8.0678C26.4136 9.95985 33.692 16.2053 35.7341 24.0905H12.2659C14.308 16.2087 21.5864 9.96325 24 8.0678ZM16.2972 37.7269H31.7028C29.5233 39.4913 26.8042 40.454 24 40.454C21.1958 40.454 18.4767 39.4913 16.2972 37.7269Z" fill="#FF9C00"/>
</svg>
