<svg width="48" height="48" viewBox="0 0 48 48" fill="none" xmlns="http://www.w3.org/2000/svg">
<path d="M24 16.8889L25.7778 13.3333M15.2885 15.1131C15.1722 15.6869 15.1111 16.2807 15.1111 16.8889C15.1111 21.798 19.0908 25.7778 24 25.7778C28.9092 25.7778 32.8889 21.798 32.8889 16.8889C32.8889 16.2807 32.8277 15.6869 32.7115 15.1131M15.2885 15.1131C16.1114 11.0548 19.6989 8 24 8C28.301 8 31.8887 11.0548 32.7115 15.1131M15.2885 15.1131C13.1072 15.1241 11.8821 15.1981 10.9121 15.6924C9.90852 16.2037 9.09262 17.0196 8.5813 18.0232C8 19.164 8 20.6574 8 23.6444V31.4667C8 34.4537 8 35.947 8.5813 37.088C9.09262 38.0916 9.90852 38.9074 10.9121 39.4187C12.0529 40 13.5464 40 16.5333 40H31.4667C34.4537 40 35.947 40 37.088 39.4187C38.0916 38.9074 38.9074 38.0916 39.4187 37.088C40 35.947 40 34.4537 40 31.4667V23.6444C40 20.6574 40 19.164 39.4187 18.0232C38.9074 17.0196 38.0916 16.2037 37.088 15.6924C36.1179 15.1981 34.8928 15.1241 32.7115 15.1131" stroke="#FF9C00" stroke-width="2.7" stroke-linecap="round" stroke-linejoin="round"/>
</svg>
