<svg width="48" height="48" viewBox="0 0 48 48" fill="none" xmlns="http://www.w3.org/2000/svg">
<path d="M43.86 25.0701L37.1933 11.7368C37.0825 11.5153 36.9121 11.329 36.7013 11.1989C36.4906 11.0688 36.2477 10.9999 36 11.0001H12C11.7523 10.9999 11.5094 11.0688 11.2987 11.1989C11.0879 11.329 10.9175 11.5153 10.8067 11.7368L4.14 25.0701C4.04809 25.2556 4.00019 25.4598 4 25.6668V35.0001C4 35.7074 4.28095 36.3856 4.78105 36.8857C5.28115 37.3858 5.95942 37.6668 6.66667 37.6668H41.3333C42.0406 37.6668 42.7189 37.3858 43.219 36.8857C43.719 36.3856 44 35.7074 44 35.0001V25.6668C43.9998 25.4598 43.9519 25.2556 43.86 25.0701ZM19.1767 13.6668L21.1767 17.6668H16.1567L14.1567 13.6668H19.1767ZM27.1767 13.6668L29.1767 17.6668H24.1567L22.1567 13.6668H27.1767ZM19.49 24.3335L17.49 20.3335H22.51L24.51 24.3335H19.49ZM27.49 24.3335L25.49 20.3335H30.51L32.51 24.3335H27.49ZM35.49 24.3335L33.49 20.3335H38.51L40.51 24.3335H35.49ZM37.1767 17.6668H32.1567L30.1567 13.6668H35.1767L37.1767 17.6668ZM6.66667 25.9818L12 15.3151L17.3333 25.9818V35.0001H6.66667V25.9818ZM20 35.0001V27.0001H41.3333V35.0001H20Z" fill="#FF9C00"/>
</svg>
